solid sphere
  facet normal -5.627086e-01 8.107531e-01 1.613641e-01
    outer loop
      vertex -5.257311e+00 8.506508e+00 0.000000e+00
      vertex -6.937805e+00 7.020464e+00 1.606220e+00
      vertex -4.338886e+00 8.626685e+00 2.598919e+00
    endloop
  endfacet
  facet normal -7.056159e-01 6.343544e-01 3.157542e-01
    outer loop
      vertex -8.090170e+00 5.000000e+00 3.090170e+00
      vertex -5.877853e+00 6.881910e+00 4.253254e+00
      vertex -6.937805e+00 7.020464e+00 1.606220e+00
    endloop
  endfacet
  facet normal -4.530333e-01 7.904590e-01 4.122322e-01
    outer loop
      vertex -3.090170e+00 8.090170e+00 5.000000e+00
      vertex -4.338886e+00 8.626685e+00 2.598919e+00
      vertex -5.877853e+00 6.881910e+00 4.253254e+00
    endloop
  endfacet
  facet normal -5.789576e-01 7.686279e-01 2.720648e-01
    outer loop
      vertex -6.937805e+00 7.020464e+00 1.606220e+00
      vertex -5.877853e+00 6.881910e+00 4.253254e+00
      vertex -4.338886e+00 8.626685e+00 2.598919e+00
    endloop
  endfacet
  facet normal -8.107531e-01 1.613641e-01 5.627086e-01
    outer loop
      vertex -8.506508e+00 0.000000e+00 5.257311e+00
      vertex -7.020464e+00 1.606220e+00 6.937805e+00
      vertex -8.626685e+00 2.598919e+00 4.338886e+00
    endloop
  endfacet
  facet normal -6.343544e-01 3.157542e-01 7.056159e-01
    outer loop
      vertex -5.000000e+00 3.090170e+00 8.090170e+00
      vertex -6.881910e+00 4.253254e+00 5.877853e+00
      vertex -7.020464e+00 1.606220e+00 6.937805e+00
    endloop
  endfacet
  facet normal -7.904590e-01 4.122322e-01 4.530333e-01
    outer loop
      vertex -8.090170e+00 5.000000e+00 3.090170e+00
      vertex -8.626685e+00 2.598919e+00 4.338886e+00
      vertex -6.881910e+00 4.253254e+00 5.877853e+00
    endloop
  endfacet
  facet normal -7.686279e-01 2.720648e-01 5.789576e-01
    outer loop
      vertex -7.020464e+00 1.606220e+00 6.937805e+00
      vertex -6.881910e+00 4.253254e+00 5.877853e+00
      vertex -8.626685e+00 2.598919e+00 4.338886e+00
    endloop
  endfacet
  facet normal -1.613641e-01 5.627086e-01 8.107531e-01
    outer loop
      vertex 0.000000e+00 5.257311e+00 8.506508e+00
      vertex -1.606220e+00 6.937805e+00 7.020464e+00
      vertex -2.598919e+00 4.338886e+00 8.626685e+00
    endloop
  endfacet
  facet normal -3.157542e-01 7.056159e-01 6.343544e-01
    outer loop
      vertex -3.090170e+00 8.090170e+00 5.000000e+00
      vertex -4.253254e+00 5.877853e+00 6.881910e+00
      vertex -1.606220e+00 6.937805e+00 7.020464e+00
    endloop
  endfacet
  facet normal -4.122322e-01 4.530333e-01 7.904590e-01
    outer loop
      vertex -5.000000e+00 3.090170e+00 8.090170e+00
      vertex -2.598919e+00 4.338886e+00 8.626685e+00
      vertex -4.253254e+00 5.877853e+00 6.881910e+00
    endloop
  endfacet
  facet normal -2.720648e-01 5.789576e-01 7.686279e-01
    outer loop
      vertex -1.606220e+00 6.937805e+00 7.020464e+00
      vertex -4.253254e+00 5.877853e+00 6.881910e+00
      vertex -2.598919e+00 4.338886e+00 8.626685e+00
    endloop
  endfacet
  facet normal -7.038250e-01 5.481165e-01 4.518835e-01
    outer loop
      vertex -8.090170e+00 5.000000e+00 3.090170e+00
      vertex -6.881910e+00 4.253254e+00 5.877853e+00
      vertex -5.877853e+00 6.881910e+00 4.253254e+00
    endloop
  endfacet
  facet normal -5.481165e-01 4.518835e-01 7.038250e-01
    outer loop
      vertex -5.000000e+00 3.090170e+00 8.090170e+00
      vertex -4.253254e+00 5.877853e+00 6.881910e+00
      vertex -6.881910e+00 4.253254e+00 5.877853e+00
    endloop
  endfacet
  facet normal -4.518835e-01 7.038250e-01 5.481165e-01
    outer loop
      vertex -3.090170e+00 8.090170e+00 5.000000e+00
      vertex -5.877853e+00 6.881910e+00 4.253254e+00
      vertex -4.253254e+00 5.877853e+00 6.881910e+00
    endloop
  endfacet
  facet normal -5.773503e-01 5.773503e-01 5.773503e-01
    outer loop
      vertex -6.881910e+00 4.253254e+00 5.877853e+00
      vertex -4.253254e+00 5.877853e+00 6.881910e+00
      vertex -5.877853e+00 6.881910e+00 4.253254e+00
    endloop
  endfacet
  facet normal -4.013445e-01 9.104816e-01 9.972850e-02
    outer loop
      vertex -5.257311e+00 8.506508e+00 0.000000e+00
      vertex -4.338886e+00 8.626685e+00 2.598919e+00
      vertex -2.732665e+00 9.619384e+00 0.000000e+00
    endloop
  endfacet
  facet normal -2.933837e-01 8.891279e-01 3.512515e-01
    outer loop
      vertex -3.090170e+00 8.090170e+00 5.000000e+00
      vertex -1.624598e+00 9.510565e+00 2.628656e+00
      vertex -4.338886e+00 8.626685e+00 2.598919e+00
    endloop
  endfacet
  facet normal -1.372791e-01 9.856059e-01 9.866886e-02
    outer loop
      vertex 0.000000e+00 1.000000e+01 0.000000e+00
      vertex -2.732665e+00 9.619384e+00 0.000000e+00
      vertex -1.624598e+00 9.510565e+00 2.628656e+00
    endloop
  endfacet
  facet normal -3.068929e-01 9.367731e-01 1.681453e-01
    outer loop
      vertex -4.338886e+00 8.626685e+00 2.598919e+00
      vertex -1.624598e+00 9.510565e+00 2.628656e+00
      vertex -2.732665e+00 9.619384e+00 0.000000e+00
    endloop
  endfacet
  facet normal 0.000000e+00 6.624371e-01 7.491175e-01
    outer loop
      vertex 0.000000e+00 5.257311e+00 8.506508e+00
      vertex 1.606220e+00 6.937805e+00 7.020464e+00
      vertex -1.606220e+00 6.937805e+00 7.020464e+00
    endloop
  endfacet
  facet normal 1.561046e-01 8.042848e-01 5.733737e-01
    outer loop
      vertex 3.090170e+00 8.090170e+00 5.000000e+00
      vertex 0.000000e+00 8.506508e+00 5.257311e+00
      vertex 1.606220e+00 6.937805e+00 7.020464e+00
    endloop
  endfacet
  facet normal -1.561046e-01 8.042848e-01 5.733737e-01
    outer loop
      vertex -3.090170e+00 8.090170e+00 5.000000e+00
      vertex -1.606220e+00 6.937805e+00 7.020464e+00
      vertex 0.000000e+00 8.506508e+00 5.257311e+00
    endloop
  endfacet
  facet normal 0.000000e+00 7.471029e-01 6.647084e-01
    outer loop
      vertex 1.606220e+00 6.937805e+00 7.020464e+00
      vertex 0.000000e+00 8.506508e+00 5.257311e+00
      vertex -1.606220e+00 6.937805e+00 7.020464e+00
    endloop
  endfacet
  facet normal 4.013445e-01 9.104816e-01 9.972850e-02
    outer loop
      vertex 5.257311e+00 8.506508e+00 0.000000e+00
      vertex 2.732665e+00 9.619384e+00 0.000000e+00
      vertex 4.338886e+00 8.626685e+00 2.598919e+00
    endloop
  endfacet
  facet normal 1.372791e-01 9.856059e-01 9.866886e-02
    outer loop
      vertex 0.000000e+00 1.000000e+01 0.000000e+00
      vertex 1.624598e+00 9.510565e+00 2.628656e+00
      vertex 2.732665e+00 9.619384e+00 0.000000e+00
    endloop
  endfacet
  facet normal 2.933837e-01 8.891279e-01 3.512515e-01
    outer loop
      vertex 3.090170e+00 8.090170e+00 5.000000e+00
      vertex 4.338886e+00 8.626685e+00 2.598919e+00
      vertex 1.624598e+00 9.510565e+00 2.628656e+00
    endloop
  endfacet
  facet normal 3.068929e-01 9.367731e-01 1.681453e-01
    outer loop
      vertex 2.732665e+00 9.619384e+00 0.000000e+00
      vertex 1.624598e+00 9.510565e+00 2.628656e+00
      vertex 4.338886e+00 8.626685e+00 2.598919e+00
    endloop
  endfacet
  facet normal -1.557084e-01 8.868712e-01 4.349878e-01
    outer loop
      vertex -3.090170e+00 8.090170e+00 5.000000e+00
      vertex 0.000000e+00 8.506508e+00 5.257311e+00
      vertex -1.624598e+00 9.510565e+00 2.628656e+00
    endloop
  endfacet
  facet normal 1.557084e-01 8.868712e-01 4.349878e-01
    outer loop
      vertex 3.090170e+00 8.090170e+00 5.000000e+00
      vertex 1.624598e+00 9.510565e+00 2.628656e+00
      vertex 0.000000e+00 8.506508e+00 5.257311e+00
    endloop
  endfacet
  facet normal 0.000000e+00 9.831043e-01 1.830462e-01
    outer loop
      vertex 0.000000e+00 1.000000e+01 0.000000e+00
      vertex -1.624598e+00 9.510565e+00 2.628656e+00
      vertex 1.624598e+00 9.510565e+00 2.628656e+00
    endloop
  endfacet
  facet normal 0.000000e+00 9.341724e-01 3.568221e-01
    outer loop
      vertex 0.000000e+00 8.506508e+00 5.257311e+00
      vertex 1.624598e+00 9.510565e+00 2.628656e+00
      vertex -1.624598e+00 9.510565e+00 2.628656e+00
    endloop
  endfacet
  facet normal -4.013445e-01 9.104816e-01 -9.972850e-02
    outer loop
      vertex -5.257311e+00 8.506508e+00 0.000000e+00
      vertex -2.732665e+00 9.619384e+00 0.000000e+00
      vertex -4.338886e+00 8.626685e+00 -2.598919e+00
    endloop
  endfacet
  facet normal -1.372791e-01 9.856059e-01 -9.866886e-02
    outer loop
      vertex 0.000000e+00 1.000000e+01 0.000000e+00
      vertex -1.624598e+00 9.510565e+00 -2.628656e+00
      vertex -2.732665e+00 9.619384e+00 0.000000e+00
    endloop
  endfacet
  facet normal -2.933837e-01 8.891279e-01 -3.512515e-01
    outer loop
      vertex -3.090170e+00 8.090170e+00 -5.000000e+00
      vertex -4.338886e+00 8.626685e+00 -2.598919e+00
      vertex -1.624598e+00 9.510565e+00 -2.628656e+00
    endloop
  endfacet
  facet normal -3.068929e-01 9.367731e-01 -1.681453e-01
    outer loop
      vertex -2.732665e+00 9.619384e+00 0.000000e+00
      vertex -1.624598e+00 9.510565e+00 -2.628656e+00
      vertex -4.338886e+00 8.626685e+00 -2.598919e+00
    endloop
  endfacet
  facet normal 4.013445e-01 9.104816e-01 -9.972850e-02
    outer loop
      vertex 5.257311e+00 8.506508e+00 0.000000e+00
      vertex 4.338886e+00 8.626685e+00 -2.598919e+00
      vertex 2.732665e+00 9.619384e+00 0.000000e+00
    endloop
  endfacet
  facet normal 2.933837e-01 8.891279e-01 -3.512515e-01
    outer loop
      vertex 3.090170e+00 8.090170e+00 -5.000000e+00
      vertex 1.624598e+00 9.510565e+00 -2.628656e+00
      vertex 4.338886e+00 8.626685e+00 -2.598919e+00
    endloop
  endfacet
  facet normal 1.372791e-01 9.856059e-01 -9.866886e-02
    outer loop
      vertex 0.000000e+00 1.000000e+01 0.000000e+00
      vertex 2.732665e+00 9.619384e+00 0.000000e+00
      vertex 1.624598e+00 9.510565e+00 -2.628656e+00
    endloop
  endfacet
  facet normal 3.068929e-01 9.367731e-01 -1.681453e-01
    outer loop
      vertex 4.338886e+00 8.626685e+00 -2.598919e+00
      vertex 1.624598e+00 9.510565e+00 -2.628656e+00
      vertex 2.732665e+00 9.619384e+00 0.000000e+00
    endloop
  endfacet
  facet normal 0.000000e+00 6.624371e-01 -7.491175e-01
    outer loop
      vertex 0.000000e+00 5.257311e+00 -8.506508e+00
      vertex -1.606220e+00 6.937805e+00 -7.020464e+00
      vertex 1.606220e+00 6.937805e+00 -7.020464e+00
    endloop
  endfacet
  facet normal -1.561046e-01 8.042848e-01 -5.733737e-01
    outer loop
      vertex -3.090170e+00 8.090170e+00 -5.000000e+00
      vertex 0.000000e+00 8.506508e+00 -5.257311e+00
      vertex -1.606220e+00 6.937805e+00 -7.020464e+00
    endloop
  endfacet
  facet normal 1.561046e-01 8.042848e-01 -5.733737e-01
    outer loop
      vertex 3.090170e+00 8.090170e+00 -5.000000e+00
      vertex 1.606220e+00 6.937805e+00 -7.020464e+00
      vertex 0.000000e+00 8.506508e+00 -5.257311e+00
    endloop
  endfacet
  facet normal 0.000000e+00 7.471029e-01 -6.647084e-01
    outer loop
      vertex -1.606220e+00 6.937805e+00 -7.020464e+00
      vertex 0.000000e+00 8.506508e+00 -5.257311e+00
      vertex 1.606220e+00 6.937805e+00 -7.020464e+00
    endloop
  endfacet
  facet normal 0.000000e+00 9.831043e-01 -1.830462e-01
    outer loop
      vertex 0.000000e+00 1.000000e+01 0.000000e+00
      vertex 1.624598e+00 9.510565e+00 -2.628656e+00
      vertex -1.624598e+00 9.510565e+00 -2.628656e+00
    endloop
  endfacet
  facet normal 1.557084e-01 8.868712e-01 -4.349878e-01
    outer loop
      vertex 3.090170e+00 8.090170e+00 -5.000000e+00
      vertex 0.000000e+00 8.506508e+00 -5.257311e+00
      vertex 1.624598e+00 9.510565e+00 -2.628656e+00
    endloop
  endfacet
  facet normal -1.557084e-01 8.868712e-01 -4.349878e-01
    outer loop
      vertex -3.090170e+00 8.090170e+00 -5.000000e+00
      vertex -1.624598e+00 9.510565e+00 -2.628656e+00
      vertex 0.000000e+00 8.506508e+00 -5.257311e+00
    endloop
  endfacet
  facet normal 0.000000e+00 9.341724e-01 -3.568221e-01
    outer loop
      vertex 1.624598e+00 9.510565e+00 -2.628656e+00
      vertex 0.000000e+00 8.506508e+00 -5.257311e+00
      vertex -1.624598e+00 9.510565e+00 -2.628656e+00
    endloop
  endfacet
  facet normal -5.627086e-01 8.107531e-01 -1.613641e-01
    outer loop
      vertex -5.257311e+00 8.506508e+00 0.000000e+00
      vertex -4.338886e+00 8.626685e+00 -2.598919e+00
      vertex -6.937805e+00 7.020464e+00 -1.606220e+00
    endloop
  endfacet
  facet normal -4.530333e-01 7.904590e-01 -4.122322e-01
    outer loop
      vertex -3.090170e+00 8.090170e+00 -5.000000e+00
      vertex -5.877853e+00 6.881910e+00 -4.253254e+00
      vertex -4.338886e+00 8.626685e+00 -2.598919e+00
    endloop
  endfacet
  facet normal -7.056159e-01 6.343544e-01 -3.157542e-01
    outer loop
      vertex -8.090170e+00 5.000000e+00 -3.090170e+00
      vertex -6.937805e+00 7.020464e+00 -1.606220e+00
      vertex -5.877853e+00 6.881910e+00 -4.253254e+00
    endloop
  endfacet
  facet normal -5.789576e-01 7.686279e-01 -2.720648e-01
    outer loop
      vertex -4.338886e+00 8.626685e+00 -2.598919e+00
      vertex -5.877853e+00 6.881910e+00 -4.253254e+00
      vertex -6.937805e+00 7.020464e+00 -1.606220e+00
    endloop
  endfacet
  facet normal -1.613641e-01 5.627086e-01 -8.107531e-01
    outer loop
      vertex 0.000000e+00 5.257311e+00 -8.506508e+00
      vertex -2.598919e+00 4.338886e+00 -8.626685e+00
      vertex -1.606220e+00 6.937805e+00 -7.020464e+00
    endloop
  endfacet
  facet normal -4.122322e-01 4.530333e-01 -7.904590e-01
    outer loop
      vertex -5.000000e+00 3.090170e+00 -8.090170e+00
      vertex -4.253254e+00 5.877853e+00 -6.881910e+00
      vertex -2.598919e+00 4.338886e+00 -8.626685e+00
    endloop
  endfacet
  facet normal -3.157542e-01 7.056159e-01 -6.343544e-01
    outer loop
      vertex -3.090170e+00 8.090170e+00 -5.000000e+00
      vertex -1.606220e+00 6.937805e+00 -7.020464e+00
      vertex -4.253254e+00 5.877853e+00 -6.881910e+00
    endloop
  endfacet
  facet normal -2.720648e-01 5.789576e-01 -7.686279e-01
    outer loop
      vertex -2.598919e+00 4.338886e+00 -8.626685e+00
      vertex -4.253254e+00 5.877853e+00 -6.881910e+00
      vertex -1.606220e+00 6.937805e+00 -7.020464e+00
    endloop
  endfacet
  facet normal -8.107531e-01 1.613641e-01 -5.627086e-01
    outer loop
      vertex -8.506508e+00 0.000000e+00 -5.257311e+00
      vertex -8.626685e+00 2.598919e+00 -4.338886e+00
      vertex -7.020464e+00 1.606220e+00 -6.937805e+00
    endloop
  endfacet
  facet normal -7.904590e-01 4.122322e-01 -4.530333e-01
    outer loop
      vertex -8.090170e+00 5.000000e+00 -3.090170e+00
      vertex -6.881910e+00 4.253254e+00 -5.877853e+00
      vertex -8.626685e+00 2.598919e+00 -4.338886e+00
    endloop
  endfacet
  facet normal -6.343544e-01 3.157542e-01 -7.056159e-01
    outer loop
      vertex -5.000000e+00 3.090170e+00 -8.090170e+00
      vertex -7.020464e+00 1.606220e+00 -6.937805e+00
      vertex -6.881910e+00 4.253254e+00 -5.877853e+00
    endloop
  endfacet
  facet normal -7.686279e-01 2.720648e-01 -5.789576e-01
    outer loop
      vertex -8.626685e+00 2.598919e+00 -4.338886e+00
      vertex -6.881910e+00 4.253254e+00 -5.877853e+00
      vertex -7.020464e+00 1.606220e+00 -6.937805e+00
    endloop
  endfacet
  facet normal -4.518835e-01 7.038250e-01 -5.481165e-01
    outer loop
      vertex -3.090170e+00 8.090170e+00 -5.000000e+00
      vertex -4.253254e+00 5.877853e+00 -6.881910e+00
      vertex -5.877853e+00 6.881910e+00 -4.253254e+00
    endloop
  endfacet
  facet normal -5.481165e-01 4.518835e-01 -7.038250e-01
    outer loop
      vertex -5.000000e+00 3.090170e+00 -8.090170e+00
      vertex -6.881910e+00 4.253254e+00 -5.877853e+00
      vertex -4.253254e+00 5.877853e+00 -6.881910e+00
    endloop
  endfacet
  facet normal -7.038250e-01 5.481165e-01 -4.518835e-01
    outer loop
      vertex -8.090170e+00 5.000000e+00 -3.090170e+00
      vertex -5.877853e+00 6.881910e+00 -4.253254e+00
      vertex -6.881910e+00 4.253254e+00 -5.877853e+00
    endloop
  endfacet
  facet normal -5.773503e-01 5.773503e-01 -5.773503e-01
    outer loop
      vertex -4.253254e+00 5.877853e+00 -6.881910e+00
      vertex -6.881910e+00 4.253254e+00 -5.877853e+00
      vertex -5.877853e+00 6.881910e+00 -4.253254e+00
    endloop
  endfacet
  facet normal -6.624371e-01 7.491175e-01 0.000000e+00
    outer loop
      vertex -5.257311e+00 8.506508e+00 0.000000e+00
      vertex -6.937805e+00 7.020464e+00 -1.606220e+00
      vertex -6.937805e+00 7.020464e+00 1.606220e+00
    endloop
  endfacet
  facet normal -8.042848e-01 5.733737e-01 -1.561046e-01
    outer loop
      vertex -8.090170e+00 5.000000e+00 -3.090170e+00
      vertex -8.506508e+00 5.257311e+00 0.000000e+00
      vertex -6.937805e+00 7.020464e+00 -1.606220e+00
    endloop
  endfacet
  facet normal -8.042848e-01 5.733737e-01 1.561046e-01
    outer loop
      vertex -8.090170e+00 5.000000e+00 3.090170e+00
      vertex -6.937805e+00 7.020464e+00 1.606220e+00
      vertex -8.506508e+00 5.257311e+00 0.000000e+00
    endloop
  endfacet
  facet normal -7.471029e-01 6.647084e-01 0.000000e+00
    outer loop
      vertex -6.937805e+00 7.020464e+00 -1.606220e+00
      vertex -8.506508e+00 5.257311e+00 0.000000e+00
      vertex -6.937805e+00 7.020464e+00 1.606220e+00
    endloop
  endfacet
  facet normal -9.104816e-01 9.972850e-02 -4.013445e-01
    outer loop
      vertex -8.506508e+00 0.000000e+00 -5.257311e+00
      vertex -9.619384e+00 0.000000e+00 -2.732665e+00
      vertex -8.626685e+00 2.598919e+00 -4.338886e+00
    endloop
  endfacet
  facet normal -9.856059e-01 9.866886e-02 -1.372791e-01
    outer loop
      vertex -1.000000e+01 0.000000e+00 0.000000e+00
      vertex -9.510565e+00 2.628656e+00 -1.624598e+00
      vertex -9.619384e+00 0.000000e+00 -2.732665e+00
    endloop
  endfacet
  facet normal -8.891279e-01 3.512515e-01 -2.933837e-01
    outer loop
      vertex -8.090170e+00 5.000000e+00 -3.090170e+00
      vertex -8.626685e+00 2.598919e+00 -4.338886e+00
      vertex -9.510565e+00 2.628656e+00 -1.624598e+00
    endloop
  endfacet
  facet normal -9.367731e-01 1.681453e-01 -3.068929e-01
    outer loop
      vertex -9.619384e+00 0.000000e+00 -2.732665e+00
      vertex -9.510565e+00 2.628656e+00 -1.624598e+00
      vertex -8.626685e+00 2.598919e+00 -4.338886e+00
    endloop
  endfacet
  facet normal -9.104816e-01 9.972850e-02 4.013445e-01
    outer loop
      vertex -8.506508e+00 0.000000e+00 5.257311e+00
      vertex -8.626685e+00 2.598919e+00 4.338886e+00
      vertex -9.619384e+00 0.000000e+00 2.732665e+00
    endloop
  endfacet
  facet normal -8.891279e-01 3.512515e-01 2.933837e-01
    outer loop
      vertex -8.090170e+00 5.000000e+00 3.090170e+00
      vertex -9.510565e+00 2.628656e+00 1.624598e+00
      vertex -8.626685e+00 2.598919e+00 4.338886e+00
    endloop
  endfacet
  facet normal -9.856059e-01 9.866886e-02 1.372791e-01
    outer loop
      vertex -1.000000e+01 0.000000e+00 0.000000e+00
      vertex -9.619384e+00 0.000000e+00 2.732665e+00
      vertex -9.510565e+00 2.628656e+00 1.624598e+00
    endloop
  endfacet
  facet normal -9.367731e-01 1.681453e-01 3.068929e-01
    outer loop
      vertex -8.626685e+00 2.598919e+00 4.338886e+00
      vertex -9.510565e+00 2.628656e+00 1.624598e+00
      vertex -9.619384e+00 0.000000e+00 2.732665e+00
    endloop
  endfacet
  facet normal -8.868712e-01 4.349878e-01 -1.557084e-01
    outer loop
      vertex -8.090170e+00 5.000000e+00 -3.090170e+00
      vertex -9.510565e+00 2.628656e+00 -1.624598e+00
      vertex -8.506508e+00 5.257311e+00 0.000000e+00
    endloop
  endfacet
  facet normal -9.831043e-01 1.830462e-01 0.000000e+00
    outer loop
      vertex -1.000000e+01 0.000000e+00 0.000000e+00
      vertex -9.510565e+00 2.628656e+00 1.624598e+00
      vertex -9.510565e+00 2.628656e+00 -1.624598e+00
    endloop
  endfacet
  facet normal -8.868712e-01 4.349878e-01 1.557084e-01
    outer loop
      vertex -8.090170e+00 5.000000e+00 3.090170e+00
      vertex -8.506508e+00 5.257311e+00 0.000000e+00
      vertex -9.510565e+00 2.628656e+00 1.624598e+00
    endloop
  endfacet
  facet normal -9.341724e-01 3.568221e-01 0.000000e+00
    outer loop
      vertex -9.510565e+00 2.628656e+00 -1.624598e+00
      vertex -9.510565e+00 2.628656e+00 1.624598e+00
      vertex -8.506508e+00 5.257311e+00 0.000000e+00
    endloop
  endfacet
  facet normal 5.627086e-01 8.107531e-01 1.613641e-01
    outer loop
      vertex 5.257311e+00 8.506508e+00 0.000000e+00
      vertex 4.338886e+00 8.626685e+00 2.598919e+00
      vertex 6.937805e+00 7.020464e+00 1.606220e+00
    endloop
  endfacet
  facet normal 4.530333e-01 7.904590e-01 4.122322e-01
    outer loop
      vertex 3.090170e+00 8.090170e+00 5.000000e+00
      vertex 5.877853e+00 6.881910e+00 4.253254e+00
      vertex 4.338886e+00 8.626685e+00 2.598919e+00
    endloop
  endfacet
  facet normal 7.056159e-01 6.343544e-01 3.157542e-01
    outer loop
      vertex 8.090170e+00 5.000000e+00 3.090170e+00
      vertex 6.937805e+00 7.020464e+00 1.606220e+00
      vertex 5.877853e+00 6.881910e+00 4.253254e+00
    endloop
  endfacet
  facet normal 5.789576e-01 7.686279e-01 2.720648e-01
    outer loop
      vertex 4.338886e+00 8.626685e+00 2.598919e+00
      vertex 5.877853e+00 6.881910e+00 4.253254e+00
      vertex 6.937805e+00 7.020464e+00 1.606220e+00
    endloop
  endfacet
  facet normal 1.613641e-01 5.627086e-01 8.107531e-01
    outer loop
      vertex 0.000000e+00 5.257311e+00 8.506508e+00
      vertex 2.598919e+00 4.338886e+00 8.626685e+00
      vertex 1.606220e+00 6.937805e+00 7.020464e+00
    endloop
  endfacet
  facet normal 4.122322e-01 4.530333e-01 7.904590e-01
    outer loop
      vertex 5.000000e+00 3.090170e+00 8.090170e+00
      vertex 4.253254e+00 5.877853e+00 6.881910e+00
      vertex 2.598919e+00 4.338886e+00 8.626685e+00
    endloop
  endfacet
  facet normal 3.157542e-01 7.056159e-01 6.343544e-01
    outer loop
      vertex 3.090170e+00 8.090170e+00 5.000000e+00
      vertex 1.606220e+00 6.937805e+00 7.020464e+00
      vertex 4.253254e+00 5.877853e+00 6.881910e+00
    endloop
  endfacet
  facet normal 2.720648e-01 5.789576e-01 7.686279e-01
    outer loop
      vertex 2.598919e+00 4.338886e+00 8.626685e+00
      vertex 4.253254e+00 5.877853e+00 6.881910e+00
      vertex 1.606220e+00 6.937805e+00 7.020464e+00
    endloop
  endfacet
  facet normal 8.107531e-01 1.613641e-01 5.627086e-01
    outer loop
      vertex 8.506508e+00 0.000000e+00 5.257311e+00
      vertex 8.626685e+00 2.598919e+00 4.338886e+00
      vertex 7.020464e+00 1.606220e+00 6.937805e+00
    endloop
  endfacet
  facet normal 7.904590e-01 4.122322e-01 4.530333e-01
    outer loop
      vertex 8.090170e+00 5.000000e+00 3.090170e+00
      vertex 6.881910e+00 4.253254e+00 5.877853e+00
      vertex 8.626685e+00 2.598919e+00 4.338886e+00
    endloop
  endfacet
  facet normal 6.343544e-01 3.157542e-01 7.056159e-01
    outer loop
      vertex 5.000000e+00 3.090170e+00 8.090170e+00
      vertex 7.020464e+00 1.606220e+00 6.937805e+00
      vertex 6.881910e+00 4.253254e+00 5.877853e+00
    endloop
  endfacet
  facet normal 7.686279e-01 2.720648e-01 5.789576e-01
    outer loop
      vertex 8.626685e+00 2.598919e+00 4.338886e+00
      vertex 6.881910e+00 4.253254e+00 5.877853e+00
      vertex 7.020464e+00 1.606220e+00 6.937805e+00
    endloop
  endfacet
  facet normal 4.518835e-01 7.038250e-01 5.481165e-01
    outer loop
      vertex 3.090170e+00 8.090170e+00 5.000000e+00
      vertex 4.253254e+00 5.877853e+00 6.881910e+00
      vertex 5.877853e+00 6.881910e+00 4.253254e+00
    endloop
  endfacet
  facet normal 5.481165e-01 4.518835e-01 7.038250e-01
    outer loop
      vertex 5.000000e+00 3.090170e+00 8.090170e+00
      vertex 6.881910e+00 4.253254e+00 5.877853e+00
      vertex 4.253254e+00 5.877853e+00 6.881910e+00
    endloop
  endfacet
  facet normal 7.038250e-01 5.481165e-01 4.518835e-01
    outer loop
      vertex 8.090170e+00 5.000000e+00 3.090170e+00
      vertex 5.877853e+00 6.881910e+00 4.253254e+00
      vertex 6.881910e+00 4.253254e+00 5.877853e+00
    endloop
  endfacet
  facet normal 5.773503e-01 5.773503e-01 5.773503e-01
    outer loop
      vertex 4.253254e+00 5.877853e+00 6.881910e+00
      vertex 6.881910e+00 4.253254e+00 5.877853e+00
      vertex 5.877853e+00 6.881910e+00 4.253254e+00
    endloop
  endfacet
  facet normal -9.972850e-02 4.013445e-01 9.104816e-01
    outer loop
      vertex 0.000000e+00 5.257311e+00 8.506508e+00
      vertex -2.598919e+00 4.338886e+00 8.626685e+00
      vertex 0.000000e+00 2.732665e+00 9.619384e+00
    endloop
  endfacet
  facet normal -3.512515e-01 2.933837e-01 8.891279e-01
    outer loop
      vertex -5.000000e+00 3.090170e+00 8.090170e+00
      vertex -2.628656e+00 1.624598e+00 9.510565e+00
      vertex -2.598919e+00 4.338886e+00 8.626685e+00
    endloop
  endfacet
  facet normal -9.866886e-02 1.372791e-01 9.856059e-01
    outer loop
      vertex 0.000000e+00 0.000000e+00 1.000000e+01
      vertex 0.000000e+00 2.732665e+00 9.619384e+00
      vertex -2.628656e+00 1.624598e+00 9.510565e+00
    endloop
  endfacet
  facet normal -1.681453e-01 3.068929e-01 9.367731e-01
    outer loop
      vertex -2.598919e+00 4.338886e+00 8.626685e+00
      vertex -2.628656e+00 1.624598e+00 9.510565e+00
      vertex 0.000000e+00 2.732665e+00 9.619384e+00
    endloop
  endfacet
  facet normal -7.491175e-01 0.000000e+00 6.624371e-01
    outer loop
      vertex -8.506508e+00 0.000000e+00 5.257311e+00
      vertex -7.020464e+00 -1.606220e+00 6.937805e+00
      vertex -7.020464e+00 1.606220e+00 6.937805e+00
    endloop
  endfacet
  facet normal -5.733737e-01 -1.561046e-01 8.042848e-01
    outer loop
      vertex -5.000000e+00 -3.090170e+00 8.090170e+00
      vertex -5.257311e+00 0.000000e+00 8.506508e+00
      vertex -7.020464e+00 -1.606220e+00 6.937805e+00
    endloop
  endfacet
  facet normal -5.733737e-01 1.561046e-01 8.042848e-01
    outer loop
      vertex -5.000000e+00 3.090170e+00 8.090170e+00
      vertex -7.020464e+00 1.606220e+00 6.937805e+00
      vertex -5.257311e+00 0.000000e+00 8.506508e+00
    endloop
  endfacet
  facet normal -6.647084e-01 0.000000e+00 7.471029e-01
    outer loop
      vertex -7.020464e+00 -1.606220e+00 6.937805e+00
      vertex -5.257311e+00 0.000000e+00 8.506508e+00
      vertex -7.020464e+00 1.606220e+00 6.937805e+00
    endloop
  endfacet
  facet normal -9.972850e-02 -4.013445e-01 9.104816e-01
    outer loop
      vertex 0.000000e+00 -5.257311e+00 8.506508e+00
      vertex 0.000000e+00 -2.732665e+00 9.619384e+00
      vertex -2.598919e+00 -4.338886e+00 8.626685e+00
    endloop
  endfacet
  facet normal -9.866886e-02 -1.372791e-01 9.856059e-01
    outer loop
      vertex 0.000000e+00 0.000000e+00 1.000000e+01
      vertex -2.628656e+00 -1.624598e+00 9.510565e+00
      vertex 0.000000e+00 -2.732665e+00 9.619384e+00
    endloop
  endfacet
  facet normal -3.512515e-01 -2.933837e-01 8.891279e-01
    outer loop
      vertex -5.000000e+00 -3.090170e+00 8.090170e+00
      vertex -2.598919e+00 -4.338886e+00 8.626685e+00
      vertex -2.628656e+00 -1.624598e+00 9.510565e+00
    endloop
  endfacet
  facet normal -1.681453e-01 -3.068929e-01 9.367731e-01
    outer loop
      vertex 0.000000e+00 -2.732665e+00 9.619384e+00
      vertex -2.628656e+00 -1.624598e+00 9.510565e+00
      vertex -2.598919e+00 -4.338886e+00 8.626685e+00
    endloop
  endfacet
  facet normal -4.349878e-01 1.557084e-01 8.868712e-01
    outer loop
      vertex -5.000000e+00 3.090170e+00 8.090170e+00
      vertex -5.257311e+00 0.000000e+00 8.506508e+00
      vertex -2.628656e+00 1.624598e+00 9.510565e+00
    endloop
  endfacet
  facet normal -4.349878e-01 -1.557084e-01 8.868712e-01
    outer loop
      vertex -5.000000e+00 -3.090170e+00 8.090170e+00
      vertex -2.628656e+00 -1.624598e+00 9.510565e+00
      vertex -5.257311e+00 0.000000e+00 8.506508e+00
    endloop
  endfacet
  facet normal -1.830462e-01 0.000000e+00 9.831043e-01
    outer loop
      vertex 0.000000e+00 0.000000e+00 1.000000e+01
      vertex -2.628656e+00 1.624598e+00 9.510565e+00
      vertex -2.628656e+00 -1.624598e+00 9.510565e+00
    endloop
  endfacet
  facet normal -3.568221e-01 0.000000e+00 9.341724e-01
    outer loop
      vertex -5.257311e+00 0.000000e+00 8.506508e+00
      vertex -2.628656e+00 -1.624598e+00 9.510565e+00
      vertex -2.628656e+00 1.624598e+00 9.510565e+00
    endloop
  endfacet
  facet normal -9.104816e-01 -9.972850e-02 4.013445e-01
    outer loop
      vertex -8.506508e+00 0.000000e+00 5.257311e+00
      vertex -9.619384e+00 0.000000e+00 2.732665e+00
      vertex -8.626685e+00 -2.598919e+00 4.338886e+00
    endloop
  endfacet
  facet normal -9.856059e-01 -9.866886e-02 1.372791e-01
    outer loop
      vertex -1.000000e+01 0.000000e+00 0.000000e+00
      vertex -9.510565e+00 -2.628656e+00 1.624598e+00
      vertex -9.619384e+00 0.000000e+00 2.732665e+00
    endloop
  endfacet
  facet normal -8.891279e-01 -3.512515e-01 2.933837e-01
    outer loop
      vertex -8.090170e+00 -5.000000e+00 3.090170e+00
      vertex -8.626685e+00 -2.598919e+00 4.338886e+00
      vertex -9.510565e+00 -2.628656e+00 1.624598e+00
    endloop
  endfacet
  facet normal -9.367731e-01 -1.681453e-01 3.068929e-01
    outer loop
      vertex -9.619384e+00 0.000000e+00 2.732665e+00
      vertex -9.510565e+00 -2.628656e+00 1.624598e+00
      vertex -8.626685e+00 -2.598919e+00 4.338886e+00
    endloop
  endfacet
  facet normal -9.104816e-01 -9.972850e-02 -4.013445e-01
    outer loop
      vertex -8.506508e+00 0.000000e+00 -5.257311e+00
      vertex -8.626685e+00 -2.598919e+00 -4.338886e+00
      vertex -9.619384e+00 0.000000e+00 -2.732665e+00
    endloop
  endfacet
  facet normal -8.891279e-01 -3.512515e-01 -2.933837e-01
    outer loop
      vertex -8.090170e+00 -5.000000e+00 -3.090170e+00
      vertex -9.510565e+00 -2.628656e+00 -1.624598e+00
      vertex -8.626685e+00 -2.598919e+00 -4.338886e+00
    endloop
  endfacet
  facet normal -9.856059e-01 -9.866886e-02 -1.372791e-01
    outer loop
      vertex -1.000000e+01 0.000000e+00 0.000000e+00
      vertex -9.619384e+00 0.000000e+00 -2.732665e+00
      vertex -9.510565e+00 -2.628656e+00 -1.624598e+00
    endloop
  endfacet
  facet normal -9.367731e-01 -1.681453e-01 -3.068929e-01
    outer loop
      vertex -8.626685e+00 -2.598919e+00 -4.338886e+00
      vertex -9.510565e+00 -2.628656e+00 -1.624598e+00
      vertex -9.619384e+00 0.000000e+00 -2.732665e+00
    endloop
  endfacet
  facet normal -6.624371e-01 -7.491175e-01 0.000000e+00
    outer loop
      vertex -5.257311e+00 -8.506508e+00 0.000000e+00
      vertex -6.937805e+00 -7.020464e+00 1.606220e+00
      vertex -6.937805e+00 -7.020464e+00 -1.606220e+00
    endloop
  endfacet
  facet normal -8.042848e-01 -5.733737e-01 1.561046e-01
    outer loop
      vertex -8.090170e+00 -5.000000e+00 3.090170e+00
      vertex -8.506508e+00 -5.257311e+00 0.000000e+00
      vertex -6.937805e+00 -7.020464e+00 1.606220e+00
    endloop
  endfacet
  facet normal -8.042848e-01 -5.733737e-01 -1.561046e-01
    outer loop
      vertex -8.090170e+00 -5.000000e+00 -3.090170e+00
      vertex -6.937805e+00 -7.020464e+00 -1.606220e+00
      vertex -8.506508e+00 -5.257311e+00 0.000000e+00
    endloop
  endfacet
  facet normal -7.471029e-01 -6.647084e-01 -0.000000e+00
    outer loop
      vertex -6.937805e+00 -7.020464e+00 1.606220e+00
      vertex -8.506508e+00 -5.257311e+00 0.000000e+00
      vertex -6.937805e+00 -7.020464e+00 -1.606220e+00
    endloop
  endfacet
  facet normal -9.831043e-01 -1.830462e-01 0.000000e+00
    outer loop
      vertex -1.000000e+01 0.000000e+00 0.000000e+00
      vertex -9.510565e+00 -2.628656e+00 -1.624598e+00
      vertex -9.510565e+00 -2.628656e+00 1.624598e+00
    endloop
  endfacet
  facet normal -8.868712e-01 -4.349878e-01 -1.557084e-01
    outer loop
      vertex -8.090170e+00 -5.000000e+00 -3.090170e+00
      vertex -8.506508e+00 -5.257311e+00 0.000000e+00
      vertex -9.510565e+00 -2.628656e+00 -1.624598e+00
    endloop
  endfacet
  facet normal -8.868712e-01 -4.349878e-01 1.557084e-01
    outer loop
      vertex -8.090170e+00 -5.000000e+00 3.090170e+00
      vertex -9.510565e+00 -2.628656e+00 1.624598e+00
      vertex -8.506508e+00 -5.257311e+00 0.000000e+00
    endloop
  endfacet
  facet normal -9.341724e-01 -3.568221e-01 0.000000e+00
    outer loop
      vertex -9.510565e+00 -2.628656e+00 -1.624598e+00
      vertex -8.506508e+00 -5.257311e+00 0.000000e+00
      vertex -9.510565e+00 -2.628656e+00 1.624598e+00
    endloop
  endfacet
  facet normal -7.491175e-01 0.000000e+00 -6.624371e-01
    outer loop
      vertex -8.506508e+00 0.000000e+00 -5.257311e+00
      vertex -7.020464e+00 1.606220e+00 -6.937805e+00
      vertex -7.020464e+00 -1.606220e+00 -6.937805e+00
    endloop
  endfacet
  facet normal -5.733737e-01 1.561046e-01 -8.042848e-01
    outer loop
      vertex -5.000000e+00 3.090170e+00 -8.090170e+00
      vertex -5.257311e+00 0.000000e+00 -8.506508e+00
      vertex -7.020464e+00 1.606220e+00 -6.937805e+00
    endloop
  endfacet
  facet normal -5.733737e-01 -1.561046e-01 -8.042848e-01
    outer loop
      vertex -5.000000e+00 -3.090170e+00 -8.090170e+00
      vertex -7.020464e+00 -1.606220e+00 -6.937805e+00
      vertex -5.257311e+00 0.000000e+00 -8.506508e+00
    endloop
  endfacet
  facet normal -6.647084e-01 -0.000000e+00 -7.471029e-01
    outer loop
      vertex -7.020464e+00 1.606220e+00 -6.937805e+00
      vertex -5.257311e+00 0.000000e+00 -8.506508e+00
      vertex -7.020464e+00 -1.606220e+00 -6.937805e+00
    endloop
  endfacet
  facet normal -9.972850e-02 4.013445e-01 -9.104816e-01
    outer loop
      vertex 0.000000e+00 5.257311e+00 -8.506508e+00
      vertex 0.000000e+00 2.732665e+00 -9.619384e+00
      vertex -2.598919e+00 4.338886e+00 -8.626685e+00
    endloop
  endfacet
  facet normal -9.866886e-02 1.372791e-01 -9.856059e-01
    outer loop
      vertex 0.000000e+00 0.000000e+00 -1.000000e+01
      vertex -2.628656e+00 1.624598e+00 -9.510565e+00
      vertex 0.000000e+00 2.732665e+00 -9.619384e+00
    endloop
  endfacet
  facet normal -3.512515e-01 2.933837e-01 -8.891279e-01
    outer loop
      vertex -5.000000e+00 3.090170e+00 -8.090170e+00
      vertex -2.598919e+00 4.338886e+00 -8.626685e+00
      vertex -2.628656e+00 1.624598e+00 -9.510565e+00
    endloop
  endfacet
  facet normal -1.681453e-01 3.068929e-01 -9.367731e-01
    outer loop
      vertex 0.000000e+00 2.732665e+00 -9.619384e+00
      vertex -2.628656e+00 1.624598e+00 -9.510565e+00
      vertex -2.598919e+00 4.338886e+00 -8.626685e+00
    endloop
  endfacet
  facet normal -9.972850e-02 -4.013445e-01 -9.104816e-01
    outer loop
      vertex 0.000000e+00 -5.257311e+00 -8.506508e+00
      vertex -2.598919e+00 -4.338886e+00 -8.626685e+00
      vertex 0.000000e+00 -2.732665e+00 -9.619384e+00
    endloop
  endfacet
  facet normal -3.512515e-01 -2.933837e-01 -8.891279e-01
    outer loop
      vertex -5.000000e+00 -3.090170e+00 -8.090170e+00
      vertex -2.628656e+00 -1.624598e+00 -9.510565e+00
      vertex -2.598919e+00 -4.338886e+00 -8.626685e+00
    endloop
  endfacet
  facet normal -9.866886e-02 -1.372791e-01 -9.856059e-01
    outer loop
      vertex 0.000000e+00 0.000000e+00 -1.000000e+01
      vertex 0.000000e+00 -2.732665e+00 -9.619384e+00
      vertex -2.628656e+00 -1.624598e+00 -9.510565e+00
    endloop
  endfacet
  facet normal -1.681453e-01 -3.068929e-01 -9.367731e-01
    outer loop
      vertex -2.598919e+00 -4.338886e+00 -8.626685e+00
      vertex -2.628656e+00 -1.624598e+00 -9.510565e+00
      vertex 0.000000e+00 -2.732665e+00 -9.619384e+00
    endloop
  endfacet
  facet normal -4.349878e-01 1.557084e-01 -8.868712e-01
    outer loop
      vertex -5.000000e+00 3.090170e+00 -8.090170e+00
      vertex -2.628656e+00 1.624598e+00 -9.510565e+00
      vertex -5.257311e+00 0.000000e+00 -8.506508e+00
    endloop
  endfacet
  facet normal -1.830462e-01 0.000000e+00 -9.831043e-01
    outer loop
      vertex 0.000000e+00 0.000000e+00 -1.000000e+01
      vertex -2.628656e+00 -1.624598e+00 -9.510565e+00
      vertex -2.628656e+00 1.624598e+00 -9.510565e+00
    endloop
  endfacet
  facet normal -4.349878e-01 -1.557084e-01 -8.868712e-01
    outer loop
      vertex -5.000000e+00 -3.090170e+00 -8.090170e+00
      vertex -5.257311e+00 0.000000e+00 -8.506508e+00
      vertex -2.628656e+00 -1.624598e+00 -9.510565e+00
    endloop
  endfacet
  facet normal -3.568221e-01 -0.000000e+00 -9.341724e-01
    outer loop
      vertex -2.628656e+00 1.624598e+00 -9.510565e+00
      vertex -2.628656e+00 -1.624598e+00 -9.510565e+00
      vertex -5.257311e+00 0.000000e+00 -8.506508e+00
    endloop
  endfacet
  facet normal 1.613641e-01 5.627086e-01 -8.107531e-01
    outer loop
      vertex 0.000000e+00 5.257311e+00 -8.506508e+00
      vertex 1.606220e+00 6.937805e+00 -7.020464e+00
      vertex 2.598919e+00 4.338886e+00 -8.626685e+00
    endloop
  endfacet
  facet normal 3.157542e-01 7.056159e-01 -6.343544e-01
    outer loop
      vertex 3.090170e+00 8.090170e+00 -5.000000e+00
      vertex 4.253254e+00 5.877853e+00 -6.881910e+00
      vertex 1.606220e+00 6.937805e+00 -7.020464e+00
    endloop
  endfacet
  facet normal 4.122322e-01 4.530333e-01 -7.904590e-01
    outer loop
      vertex 5.000000e+00 3.090170e+00 -8.090170e+00
      vertex 2.598919e+00 4.338886e+00 -8.626685e+00
      vertex 4.253254e+00 5.877853e+00 -6.881910e+00
    endloop
  endfacet
  facet normal 2.720648e-01 5.789576e-01 -7.686279e-01
    outer loop
      vertex 1.606220e+00 6.937805e+00 -7.020464e+00
      vertex 4.253254e+00 5.877853e+00 -6.881910e+00
      vertex 2.598919e+00 4.338886e+00 -8.626685e+00
    endloop
  endfacet
  facet normal 5.627086e-01 8.107531e-01 -1.613641e-01
    outer loop
      vertex 5.257311e+00 8.506508e+00 0.000000e+00
      vertex 6.937805e+00 7.020464e+00 -1.606220e+00
      vertex 4.338886e+00 8.626685e+00 -2.598919e+00
    endloop
  endfacet
  facet normal 7.056159e-01 6.343544e-01 -3.157542e-01
    outer loop
      vertex 8.090170e+00 5.000000e+00 -3.090170e+00
      vertex 5.877853e+00 6.881910e+00 -4.253254e+00
      vertex 6.937805e+00 7.020464e+00 -1.606220e+00
    endloop
  endfacet
  facet normal 4.530333e-01 7.904590e-01 -4.122322e-01
    outer loop
      vertex 3.090170e+00 8.090170e+00 -5.000000e+00
      vertex 4.338886e+00 8.626685e+00 -2.598919e+00
      vertex 5.877853e+00 6.881910e+00 -4.253254e+00
    endloop
  endfacet
  facet normal 5.789576e-01 7.686279e-01 -2.720648e-01
    outer loop
      vertex 6.937805e+00 7.020464e+00 -1.606220e+00
      vertex 5.877853e+00 6.881910e+00 -4.253254e+00
      vertex 4.338886e+00 8.626685e+00 -2.598919e+00
    endloop
  endfacet
  facet normal 8.107531e-01 1.613641e-01 -5.627086e-01
    outer loop
      vertex 8.506508e+00 0.000000e+00 -5.257311e+00
      vertex 7.020464e+00 1.606220e+00 -6.937805e+00
      vertex 8.626685e+00 2.598919e+00 -4.338886e+00
    endloop
  endfacet
  facet normal 6.343544e-01 3.157542e-01 -7.056159e-01
    outer loop
      vertex 5.000000e+00 3.090170e+00 -8.090170e+00
      vertex 6.881910e+00 4.253254e+00 -5.877853e+00
      vertex 7.020464e+00 1.606220e+00 -6.937805e+00
    endloop
  endfacet
  facet normal 7.904590e-01 4.122322e-01 -4.530333e-01
    outer loop
      vertex 8.090170e+00 5.000000e+00 -3.090170e+00
      vertex 8.626685e+00 2.598919e+00 -4.338886e+00
      vertex 6.881910e+00 4.253254e+00 -5.877853e+00
    endloop
  endfacet
  facet normal 7.686279e-01 2.720648e-01 -5.789576e-01
    outer loop
      vertex 7.020464e+00 1.606220e+00 -6.937805e+00
      vertex 6.881910e+00 4.253254e+00 -5.877853e+00
      vertex 8.626685e+00 2.598919e+00 -4.338886e+00
    endloop
  endfacet
  facet normal 4.518835e-01 7.038250e-01 -5.481165e-01
    outer loop
      vertex 3.090170e+00 8.090170e+00 -5.000000e+00
      vertex 5.877853e+00 6.881910e+00 -4.253254e+00
      vertex 4.253254e+00 5.877853e+00 -6.881910e+00
    endloop
  endfacet
  facet normal 7.038250e-01 5.481165e-01 -4.518835e-01
    outer loop
      vertex 8.090170e+00 5.000000e+00 -3.090170e+00
      vertex 6.881910e+00 4.253254e+00 -5.877853e+00
      vertex 5.877853e+00 6.881910e+00 -4.253254e+00
    endloop
  endfacet
  facet normal 5.481165e-01 4.518835e-01 -7.038250e-01
    outer loop
      vertex 5.000000e+00 3.090170e+00 -8.090170e+00
      vertex 4.253254e+00 5.877853e+00 -6.881910e+00
      vertex 6.881910e+00 4.253254e+00 -5.877853e+00
    endloop
  endfacet
  facet normal 5.773503e-01 5.773503e-01 -5.773503e-01
    outer loop
      vertex 5.877853e+00 6.881910e+00 -4.253254e+00
      vertex 6.881910e+00 4.253254e+00 -5.877853e+00
      vertex 4.253254e+00 5.877853e+00 -6.881910e+00
    endloop
  endfacet
  facet normal 5.627086e-01 -8.107531e-01 1.613641e-01
    outer loop
      vertex 5.257311e+00 -8.506508e+00 0.000000e+00
      vertex 6.937805e+00 -7.020464e+00 1.606220e+00
      vertex 4.338886e+00 -8.626685e+00 2.598919e+00
    endloop
  endfacet
  facet normal 7.056159e-01 -6.343544e-01 3.157542e-01
    outer loop
      vertex 8.090170e+00 -5.000000e+00 3.090170e+00
      vertex 5.877853e+00 -6.881910e+00 4.253254e+00
      vertex 6.937805e+00 -7.020464e+00 1.606220e+00
    endloop
  endfacet
  facet normal 4.530333e-01 -7.904590e-01 4.122322e-01
    outer loop
      vertex 3.090170e+00 -8.090170e+00 5.000000e+00
      vertex 4.338886e+00 -8.626685e+00 2.598919e+00
      vertex 5.877853e+00 -6.881910e+00 4.253254e+00
    endloop
  endfacet
  facet normal 5.789576e-01 -7.686279e-01 2.720648e-01
    outer loop
      vertex 6.937805e+00 -7.020464e+00 1.606220e+00
      vertex 5.877853e+00 -6.881910e+00 4.253254e+00
      vertex 4.338886e+00 -8.626685e+00 2.598919e+00
    endloop
  endfacet
  facet normal 8.107531e-01 -1.613641e-01 5.627086e-01
    outer loop
      vertex 8.506508e+00 0.000000e+00 5.257311e+00
      vertex 7.020464e+00 -1.606220e+00 6.937805e+00
      vertex 8.626685e+00 -2.598919e+00 4.338886e+00
    endloop
  endfacet
  facet normal 6.343544e-01 -3.157542e-01 7.056159e-01
    outer loop
      vertex 5.000000e+00 -3.090170e+00 8.090170e+00
      vertex 6.881910e+00 -4.253254e+00 5.877853e+00
      vertex 7.020464e+00 -1.606220e+00 6.937805e+00
    endloop
  endfacet
  facet normal 7.904590e-01 -4.122322e-01 4.530333e-01
    outer loop
      vertex 8.090170e+00 -5.000000e+00 3.090170e+00
      vertex 8.626685e+00 -2.598919e+00 4.338886e+00
      vertex 6.881910e+00 -4.253254e+00 5.877853e+00
    endloop
  endfacet
  facet normal 7.686279e-01 -2.720648e-01 5.789576e-01
    outer loop
      vertex 7.020464e+00 -1.606220e+00 6.937805e+00
      vertex 6.881910e+00 -4.253254e+00 5.877853e+00
      vertex 8.626685e+00 -2.598919e+00 4.338886e+00
    endloop
  endfacet
  facet normal 1.613641e-01 -5.627086e-01 8.107531e-01
    outer loop
      vertex 0.000000e+00 -5.257311e+00 8.506508e+00
      vertex 1.606220e+00 -6.937805e+00 7.020464e+00
      vertex 2.598919e+00 -4.338886e+00 8.626685e+00
    endloop
  endfacet
  facet normal 3.157542e-01 -7.056159e-01 6.343544e-01
    outer loop
      vertex 3.090170e+00 -8.090170e+00 5.000000e+00
      vertex 4.253254e+00 -5.877853e+00 6.881910e+00
      vertex 1.606220e+00 -6.937805e+00 7.020464e+00
    endloop
  endfacet
  facet normal 4.122322e-01 -4.530333e-01 7.904590e-01
    outer loop
      vertex 5.000000e+00 -3.090170e+00 8.090170e+00
      vertex 2.598919e+00 -4.338886e+00 8.626685e+00
      vertex 4.253254e+00 -5.877853e+00 6.881910e+00
    endloop
  endfacet
  facet normal 2.720648e-01 -5.789576e-01 7.686279e-01
    outer loop
      vertex 1.606220e+00 -6.937805e+00 7.020464e+00
      vertex 4.253254e+00 -5.877853e+00 6.881910e+00
      vertex 2.598919e+00 -4.338886e+00 8.626685e+00
    endloop
  endfacet
  facet normal 7.038250e-01 -5.481165e-01 4.518835e-01
    outer loop
      vertex 8.090170e+00 -5.000000e+00 3.090170e+00
      vertex 6.881910e+00 -4.253254e+00 5.877853e+00
      vertex 5.877853e+00 -6.881910e+00 4.253254e+00
    endloop
  endfacet
  facet normal 5.481165e-01 -4.518835e-01 7.038250e-01
    outer loop
      vertex 5.000000e+00 -3.090170e+00 8.090170e+00
      vertex 4.253254e+00 -5.877853e+00 6.881910e+00
      vertex 6.881910e+00 -4.253254e+00 5.877853e+00
    endloop
  endfacet
  facet normal 4.518835e-01 -7.038250e-01 5.481165e-01
    outer loop
      vertex 3.090170e+00 -8.090170e+00 5.000000e+00
      vertex 5.877853e+00 -6.881910e+00 4.253254e+00
      vertex 4.253254e+00 -5.877853e+00 6.881910e+00
    endloop
  endfacet
  facet normal 5.773503e-01 -5.773503e-01 5.773503e-01
    outer loop
      vertex 6.881910e+00 -4.253254e+00 5.877853e+00
      vertex 4.253254e+00 -5.877853e+00 6.881910e+00
      vertex 5.877853e+00 -6.881910e+00 4.253254e+00
    endloop
  endfacet
  facet normal 4.013445e-01 -9.104816e-01 9.972850e-02
    outer loop
      vertex 5.257311e+00 -8.506508e+00 0.000000e+00
      vertex 4.338886e+00 -8.626685e+00 2.598919e+00
      vertex 2.732665e+00 -9.619384e+00 0.000000e+00
    endloop
  endfacet
  facet normal 2.933837e-01 -8.891279e-01 3.512515e-01
    outer loop
      vertex 3.090170e+00 -8.090170e+00 5.000000e+00
      vertex 1.624598e+00 -9.510565e+00 2.628656e+00
      vertex 4.338886e+00 -8.626685e+00 2.598919e+00
    endloop
  endfacet
  facet normal 1.372791e-01 -9.856059e-01 9.866886e-02
    outer loop
      vertex 0.000000e+00 -1.000000e+01 0.000000e+00
      vertex 2.732665e+00 -9.619384e+00 0.000000e+00
      vertex 1.624598e+00 -9.510565e+00 2.628656e+00
    endloop
  endfacet
  facet normal 3.068929e-01 -9.367731e-01 1.681453e-01
    outer loop
      vertex 4.338886e+00 -8.626685e+00 2.598919e+00
      vertex 1.624598e+00 -9.510565e+00 2.628656e+00
      vertex 2.732665e+00 -9.619384e+00 0.000000e+00
    endloop
  endfacet
  facet normal 0.000000e+00 -6.624371e-01 7.491175e-01
    outer loop
      vertex 0.000000e+00 -5.257311e+00 8.506508e+00
      vertex -1.606220e+00 -6.937805e+00 7.020464e+00
      vertex 1.606220e+00 -6.937805e+00 7.020464e+00
    endloop
  endfacet
  facet normal -1.561046e-01 -8.042848e-01 5.733737e-01
    outer loop
      vertex -3.090170e+00 -8.090170e+00 5.000000e+00
      vertex 0.000000e+00 -8.506508e+00 5.257311e+00
      vertex -1.606220e+00 -6.937805e+00 7.020464e+00
    endloop
  endfacet
  facet normal 1.561046e-01 -8.042848e-01 5.733737e-01
    outer loop
      vertex 3.090170e+00 -8.090170e+00 5.000000e+00
      vertex 1.606220e+00 -6.937805e+00 7.020464e+00
      vertex 0.000000e+00 -8.506508e+00 5.257311e+00
    endloop
  endfacet
  facet normal 0.000000e+00 -7.471029e-01 6.647084e-01
    outer loop
      vertex -1.606220e+00 -6.937805e+00 7.020464e+00
      vertex 0.000000e+00 -8.506508e+00 5.257311e+00
      vertex 1.606220e+00 -6.937805e+00 7.020464e+00
    endloop
  endfacet
  facet normal -4.013445e-01 -9.104816e-01 9.972850e-02
    outer loop
      vertex -5.257311e+00 -8.506508e+00 0.000000e+00
      vertex -2.732665e+00 -9.619384e+00 0.000000e+00
      vertex -4.338886e+00 -8.626685e+00 2.598919e+00
    endloop
  endfacet
  facet normal -1.372791e-01 -9.856059e-01 9.866886e-02
    outer loop
      vertex 0.000000e+00 -1.000000e+01 0.000000e+00
      vertex -1.624598e+00 -9.510565e+00 2.628656e+00
      vertex -2.732665e+00 -9.619384e+00 0.000000e+00
    endloop
  endfacet
  facet normal -2.933837e-01 -8.891279e-01 3.512515e-01
    outer loop
      vertex -3.090170e+00 -8.090170e+00 5.000000e+00
      vertex -4.338886e+00 -8.626685e+00 2.598919e+00
      vertex -1.624598e+00 -9.510565e+00 2.628656e+00
    endloop
  endfacet
  facet normal -3.068929e-01 -9.367731e-01 1.681453e-01
    outer loop
      vertex -2.732665e+00 -9.619384e+00 0.000000e+00
      vertex -1.624598e+00 -9.510565e+00 2.628656e+00
      vertex -4.338886e+00 -8.626685e+00 2.598919e+00
    endloop
  endfacet
  facet normal 1.557084e-01 -8.868712e-01 4.349878e-01
    outer loop
      vertex 3.090170e+00 -8.090170e+00 5.000000e+00
      vertex 0.000000e+00 -8.506508e+00 5.257311e+00
      vertex 1.624598e+00 -9.510565e+00 2.628656e+00
    endloop
  endfacet
  facet normal -1.557084e-01 -8.868712e-01 4.349878e-01
    outer loop
      vertex -3.090170e+00 -8.090170e+00 5.000000e+00
      vertex -1.624598e+00 -9.510565e+00 2.628656e+00
      vertex 0.000000e+00 -8.506508e+00 5.257311e+00
    endloop
  endfacet
  facet normal 0.000000e+00 -9.831043e-01 1.830462e-01
    outer loop
      vertex 0.000000e+00 -1.000000e+01 0.000000e+00
      vertex 1.624598e+00 -9.510565e+00 2.628656e+00
      vertex -1.624598e+00 -9.510565e+00 2.628656e+00
    endloop
  endfacet
  facet normal 0.000000e+00 -9.341724e-01 3.568221e-01
    outer loop
      vertex 0.000000e+00 -8.506508e+00 5.257311e+00
      vertex -1.624598e+00 -9.510565e+00 2.628656e+00
      vertex 1.624598e+00 -9.510565e+00 2.628656e+00
    endloop
  endfacet
  facet normal 4.013445e-01 -9.104816e-01 -9.972850e-02
    outer loop
      vertex 5.257311e+00 -8.506508e+00 0.000000e+00
      vertex 2.732665e+00 -9.619384e+00 0.000000e+00
      vertex 4.338886e+00 -8.626685e+00 -2.598919e+00
    endloop
  endfacet
  facet normal 1.372791e-01 -9.856059e-01 -9.866886e-02
    outer loop
      vertex 0.000000e+00 -1.000000e+01 0.000000e+00
      vertex 1.624598e+00 -9.510565e+00 -2.628656e+00
      vertex 2.732665e+00 -9.619384e+00 0.000000e+00
    endloop
  endfacet
  facet normal 2.933837e-01 -8.891279e-01 -3.512515e-01
    outer loop
      vertex 3.090170e+00 -8.090170e+00 -5.000000e+00
      vertex 4.338886e+00 -8.626685e+00 -2.598919e+00
      vertex 1.624598e+00 -9.510565e+00 -2.628656e+00
    endloop
  endfacet
  facet normal 3.068929e-01 -9.367731e-01 -1.681453e-01
    outer loop
      vertex 2.732665e+00 -9.619384e+00 0.000000e+00
      vertex 1.624598e+00 -9.510565e+00 -2.628656e+00
      vertex 4.338886e+00 -8.626685e+00 -2.598919e+00
    endloop
  endfacet
  facet normal -4.013445e-01 -9.104816e-01 -9.972850e-02
    outer loop
      vertex -5.257311e+00 -8.506508e+00 0.000000e+00
      vertex -4.338886e+00 -8.626685e+00 -2.598919e+00
      vertex -2.732665e+00 -9.619384e+00 0.000000e+00
    endloop
  endfacet
  facet normal -2.933837e-01 -8.891279e-01 -3.512515e-01
    outer loop
      vertex -3.090170e+00 -8.090170e+00 -5.000000e+00
      vertex -1.624598e+00 -9.510565e+00 -2.628656e+00
      vertex -4.338886e+00 -8.626685e+00 -2.598919e+00
    endloop
  endfacet
  facet normal -1.372791e-01 -9.856059e-01 -9.866886e-02
    outer loop
      vertex 0.000000e+00 -1.000000e+01 0.000000e+00
      vertex -2.732665e+00 -9.619384e+00 0.000000e+00
      vertex -1.624598e+00 -9.510565e+00 -2.628656e+00
    endloop
  endfacet
  facet normal -3.068929e-01 -9.367731e-01 -1.681453e-01
    outer loop
      vertex -4.338886e+00 -8.626685e+00 -2.598919e+00
      vertex -1.624598e+00 -9.510565e+00 -2.628656e+00
      vertex -2.732665e+00 -9.619384e+00 0.000000e+00
    endloop
  endfacet
  facet normal 0.000000e+00 -6.624371e-01 -7.491175e-01
    outer loop
      vertex 0.000000e+00 -5.257311e+00 -8.506508e+00
      vertex 1.606220e+00 -6.937805e+00 -7.020464e+00
      vertex -1.606220e+00 -6.937805e+00 -7.020464e+00
    endloop
  endfacet
  facet normal 1.561046e-01 -8.042848e-01 -5.733737e-01
    outer loop
      vertex 3.090170e+00 -8.090170e+00 -5.000000e+00
      vertex 0.000000e+00 -8.506508e+00 -5.257311e+00
      vertex 1.606220e+00 -6.937805e+00 -7.020464e+00
    endloop
  endfacet
  facet normal -1.561046e-01 -8.042848e-01 -5.733737e-01
    outer loop
      vertex -3.090170e+00 -8.090170e+00 -5.000000e+00
      vertex -1.606220e+00 -6.937805e+00 -7.020464e+00
      vertex 0.000000e+00 -8.506508e+00 -5.257311e+00
    endloop
  endfacet
  facet normal -0.000000e+00 -7.471029e-01 -6.647084e-01
    outer loop
      vertex 1.606220e+00 -6.937805e+00 -7.020464e+00
      vertex 0.000000e+00 -8.506508e+00 -5.257311e+00
      vertex -1.606220e+00 -6.937805e+00 -7.020464e+00
    endloop
  endfacet
  facet normal 0.000000e+00 -9.831043e-01 -1.830462e-01
    outer loop
      vertex 0.000000e+00 -1.000000e+01 0.000000e+00
      vertex -1.624598e+00 -9.510565e+00 -2.628656e+00
      vertex 1.624598e+00 -9.510565e+00 -2.628656e+00
    endloop
  endfacet
  facet normal -1.557084e-01 -8.868712e-01 -4.349878e-01
    outer loop
      vertex -3.090170e+00 -8.090170e+00 -5.000000e+00
      vertex 0.000000e+00 -8.506508e+00 -5.257311e+00
      vertex -1.624598e+00 -9.510565e+00 -2.628656e+00
    endloop
  endfacet
  facet normal 1.557084e-01 -8.868712e-01 -4.349878e-01
    outer loop
      vertex 3.090170e+00 -8.090170e+00 -5.000000e+00
      vertex 1.624598e+00 -9.510565e+00 -2.628656e+00
      vertex 0.000000e+00 -8.506508e+00 -5.257311e+00
    endloop
  endfacet
  facet normal 0.000000e+00 -9.341724e-01 -3.568221e-01
    outer loop
      vertex -1.624598e+00 -9.510565e+00 -2.628656e+00
      vertex 0.000000e+00 -8.506508e+00 -5.257311e+00
      vertex 1.624598e+00 -9.510565e+00 -2.628656e+00
    endloop
  endfacet
  facet normal 5.627086e-01 -8.107531e-01 -1.613641e-01
    outer loop
      vertex 5.257311e+00 -8.506508e+00 0.000000e+00
      vertex 4.338886e+00 -8.626685e+00 -2.598919e+00
      vertex 6.937805e+00 -7.020464e+00 -1.606220e+00
    endloop
  endfacet
  facet normal 4.530333e-01 -7.904590e-01 -4.122322e-01
    outer loop
      vertex 3.090170e+00 -8.090170e+00 -5.000000e+00
      vertex 5.877853e+00 -6.881910e+00 -4.253254e+00
      vertex 4.338886e+00 -8.626685e+00 -2.598919e+00
    endloop
  endfacet
  facet normal 7.056159e-01 -6.343544e-01 -3.157542e-01
    outer loop
      vertex 8.090170e+00 -5.000000e+00 -3.090170e+00
      vertex 6.937805e+00 -7.020464e+00 -1.606220e+00
      vertex 5.877853e+00 -6.881910e+00 -4.253254e+00
    endloop
  endfacet
  facet normal 5.789576e-01 -7.686279e-01 -2.720648e-01
    outer loop
      vertex 4.338886e+00 -8.626685e+00 -2.598919e+00
      vertex 5.877853e+00 -6.881910e+00 -4.253254e+00
      vertex 6.937805e+00 -7.020464e+00 -1.606220e+00
    endloop
  endfacet
  facet normal 1.613641e-01 -5.627086e-01 -8.107531e-01
    outer loop
      vertex 0.000000e+00 -5.257311e+00 -8.506508e+00
      vertex 2.598919e+00 -4.338886e+00 -8.626685e+00
      vertex 1.606220e+00 -6.937805e+00 -7.020464e+00
    endloop
  endfacet
  facet normal 4.122322e-01 -4.530333e-01 -7.904590e-01
    outer loop
      vertex 5.000000e+00 -3.090170e+00 -8.090170e+00
      vertex 4.253254e+00 -5.877853e+00 -6.881910e+00
      vertex 2.598919e+00 -4.338886e+00 -8.626685e+00
    endloop
  endfacet
  facet normal 3.157542e-01 -7.056159e-01 -6.343544e-01
    outer loop
      vertex 3.090170e+00 -8.090170e+00 -5.000000e+00
      vertex 1.606220e+00 -6.937805e+00 -7.020464e+00
      vertex 4.253254e+00 -5.877853e+00 -6.881910e+00
    endloop
  endfacet
  facet normal 2.720648e-01 -5.789576e-01 -7.686279e-01
    outer loop
      vertex 2.598919e+00 -4.338886e+00 -8.626685e+00
      vertex 4.253254e+00 -5.877853e+00 -6.881910e+00
      vertex 1.606220e+00 -6.937805e+00 -7.020464e+00
    endloop
  endfacet
  facet normal 8.107531e-01 -1.613641e-01 -5.627086e-01
    outer loop
      vertex 8.506508e+00 0.000000e+00 -5.257311e+00
      vertex 8.626685e+00 -2.598919e+00 -4.338886e+00
      vertex 7.020464e+00 -1.606220e+00 -6.937805e+00
    endloop
  endfacet
  facet normal 7.904590e-01 -4.122322e-01 -4.530333e-01
    outer loop
      vertex 8.090170e+00 -5.000000e+00 -3.090170e+00
      vertex 6.881910e+00 -4.253254e+00 -5.877853e+00
      vertex 8.626685e+00 -2.598919e+00 -4.338886e+00
    endloop
  endfacet
  facet normal 6.343544e-01 -3.157542e-01 -7.056159e-01
    outer loop
      vertex 5.000000e+00 -3.090170e+00 -8.090170e+00
      vertex 7.020464e+00 -1.606220e+00 -6.937805e+00
      vertex 6.881910e+00 -4.253254e+00 -5.877853e+00
    endloop
  endfacet
  facet normal 7.686279e-01 -2.720648e-01 -5.789576e-01
    outer loop
      vertex 8.626685e+00 -2.598919e+00 -4.338886e+00
      vertex 6.881910e+00 -4.253254e+00 -5.877853e+00
      vertex 7.020464e+00 -1.606220e+00 -6.937805e+00
    endloop
  endfacet
  facet normal 4.518835e-01 -7.038250e-01 -5.481165e-01
    outer loop
      vertex 3.090170e+00 -8.090170e+00 -5.000000e+00
      vertex 4.253254e+00 -5.877853e+00 -6.881910e+00
      vertex 5.877853e+00 -6.881910e+00 -4.253254e+00
    endloop
  endfacet
  facet normal 5.481165e-01 -4.518835e-01 -7.038250e-01
    outer loop
      vertex 5.000000e+00 -3.090170e+00 -8.090170e+00
      vertex 6.881910e+00 -4.253254e+00 -5.877853e+00
      vertex 4.253254e+00 -5.877853e+00 -6.881910e+00
    endloop
  endfacet
  facet normal 7.038250e-01 -5.481165e-01 -4.518835e-01
    outer loop
      vertex 8.090170e+00 -5.000000e+00 -3.090170e+00
      vertex 5.877853e+00 -6.881910e+00 -4.253254e+00
      vertex 6.881910e+00 -4.253254e+00 -5.877853e+00
    endloop
  endfacet
  facet normal 5.773503e-01 -5.773503e-01 -5.773503e-01
    outer loop
      vertex 4.253254e+00 -5.877853e+00 -6.881910e+00
      vertex 6.881910e+00 -4.253254e+00 -5.877853e+00
      vertex 5.877853e+00 -6.881910e+00 -4.253254e+00
    endloop
  endfacet
  facet normal 6.624371e-01 -7.491175e-01 0.000000e+00
    outer loop
      vertex 5.257311e+00 -8.506508e+00 0.000000e+00
      vertex 6.937805e+00 -7.020464e+00 -1.606220e+00
      vertex 6.937805e+00 -7.020464e+00 1.606220e+00
    endloop
  endfacet
  facet normal 8.042848e-01 -5.733737e-01 -1.561046e-01
    outer loop
      vertex 8.090170e+00 -5.000000e+00 -3.090170e+00
      vertex 8.506508e+00 -5.257311e+00 0.000000e+00
      vertex 6.937805e+00 -7.020464e+00 -1.606220e+00
    endloop
  endfacet
  facet normal 8.042848e-01 -5.733737e-01 1.561046e-01
    outer loop
      vertex 8.090170e+00 -5.000000e+00 3.090170e+00
      vertex 6.937805e+00 -7.020464e+00 1.606220e+00
      vertex 8.506508e+00 -5.257311e+00 0.000000e+00
    endloop
  endfacet
  facet normal 7.471029e-01 -6.647084e-01 0.000000e+00
    outer loop
      vertex 6.937805e+00 -7.020464e+00 -1.606220e+00
      vertex 8.506508e+00 -5.257311e+00 0.000000e+00
      vertex 6.937805e+00 -7.020464e+00 1.606220e+00
    endloop
  endfacet
  facet normal 9.104816e-01 -9.972850e-02 -4.013445e-01
    outer loop
      vertex 8.506508e+00 0.000000e+00 -5.257311e+00
      vertex 9.619384e+00 0.000000e+00 -2.732665e+00
      vertex 8.626685e+00 -2.598919e+00 -4.338886e+00
    endloop
  endfacet
  facet normal 9.856059e-01 -9.866886e-02 -1.372791e-01
    outer loop
      vertex 1.000000e+01 0.000000e+00 0.000000e+00
      vertex 9.510565e+00 -2.628656e+00 -1.624598e+00
      vertex 9.619384e+00 0.000000e+00 -2.732665e+00
    endloop
  endfacet
  facet normal 8.891279e-01 -3.512515e-01 -2.933837e-01
    outer loop
      vertex 8.090170e+00 -5.000000e+00 -3.090170e+00
      vertex 8.626685e+00 -2.598919e+00 -4.338886e+00
      vertex 9.510565e+00 -2.628656e+00 -1.624598e+00
    endloop
  endfacet
  facet normal 9.367731e-01 -1.681453e-01 -3.068929e-01
    outer loop
      vertex 9.619384e+00 0.000000e+00 -2.732665e+00
      vertex 9.510565e+00 -2.628656e+00 -1.624598e+00
      vertex 8.626685e+00 -2.598919e+00 -4.338886e+00
    endloop
  endfacet
  facet normal 9.104816e-01 -9.972850e-02 4.013445e-01
    outer loop
      vertex 8.506508e+00 0.000000e+00 5.257311e+00
      vertex 8.626685e+00 -2.598919e+00 4.338886e+00
      vertex 9.619384e+00 0.000000e+00 2.732665e+00
    endloop
  endfacet
  facet normal 8.891279e-01 -3.512515e-01 2.933837e-01
    outer loop
      vertex 8.090170e+00 -5.000000e+00 3.090170e+00
      vertex 9.510565e+00 -2.628656e+00 1.624598e+00
      vertex 8.626685e+00 -2.598919e+00 4.338886e+00
    endloop
  endfacet
  facet normal 9.856059e-01 -9.866886e-02 1.372791e-01
    outer loop
      vertex 1.000000e+01 0.000000e+00 0.000000e+00
      vertex 9.619384e+00 0.000000e+00 2.732665e+00
      vertex 9.510565e+00 -2.628656e+00 1.624598e+00
    endloop
  endfacet
  facet normal 9.367731e-01 -1.681453e-01 3.068929e-01
    outer loop
      vertex 8.626685e+00 -2.598919e+00 4.338886e+00
      vertex 9.510565e+00 -2.628656e+00 1.624598e+00
      vertex 9.619384e+00 0.000000e+00 2.732665e+00
    endloop
  endfacet
  facet normal 8.868712e-01 -4.349878e-01 -1.557084e-01
    outer loop
      vertex 8.090170e+00 -5.000000e+00 -3.090170e+00
      vertex 9.510565e+00 -2.628656e+00 -1.624598e+00
      vertex 8.506508e+00 -5.257311e+00 0.000000e+00
    endloop
  endfacet
  facet normal 9.831043e-01 -1.830462e-01 0.000000e+00
    outer loop
      vertex 1.000000e+01 0.000000e+00 0.000000e+00
      vertex 9.510565e+00 -2.628656e+00 1.624598e+00
      vertex 9.510565e+00 -2.628656e+00 -1.624598e+00
    endloop
  endfacet
  facet normal 8.868712e-01 -4.349878e-01 1.557084e-01
    outer loop
      vertex 8.090170e+00 -5.000000e+00 3.090170e+00
      vertex 8.506508e+00 -5.257311e+00 0.000000e+00
      vertex 9.510565e+00 -2.628656e+00 1.624598e+00
    endloop
  endfacet
  facet normal 9.341724e-01 -3.568221e-01 0.000000e+00
    outer loop
      vertex 9.510565e+00 -2.628656e+00 -1.624598e+00
      vertex 9.510565e+00 -2.628656e+00 1.624598e+00
      vertex 8.506508e+00 -5.257311e+00 0.000000e+00
    endloop
  endfacet
  facet normal 9.972850e-02 -4.013445e-01 9.104816e-01
    outer loop
      vertex 0.000000e+00 -5.257311e+00 8.506508e+00
      vertex 2.598919e+00 -4.338886e+00 8.626685e+00
      vertex 0.000000e+00 -2.732665e+00 9.619384e+00
    endloop
  endfacet
  facet normal 3.512515e-01 -2.933837e-01 8.891279e-01
    outer loop
      vertex 5.000000e+00 -3.090170e+00 8.090170e+00
      vertex 2.628656e+00 -1.624598e+00 9.510565e+00
      vertex 2.598919e+00 -4.338886e+00 8.626685e+00
    endloop
  endfacet
  facet normal 9.866886e-02 -1.372791e-01 9.856059e-01
    outer loop
      vertex 0.000000e+00 0.000000e+00 1.000000e+01
      vertex 0.000000e+00 -2.732665e+00 9.619384e+00
      vertex 2.628656e+00 -1.624598e+00 9.510565e+00
    endloop
  endfacet
  facet normal 1.681453e-01 -3.068929e-01 9.367731e-01
    outer loop
      vertex 2.598919e+00 -4.338886e+00 8.626685e+00
      vertex 2.628656e+00 -1.624598e+00 9.510565e+00
      vertex 0.000000e+00 -2.732665e+00 9.619384e+00
    endloop
  endfacet
  facet normal 7.491175e-01 0.000000e+00 6.624371e-01
    outer loop
      vertex 8.506508e+00 0.000000e+00 5.257311e+00
      vertex 7.020464e+00 1.606220e+00 6.937805e+00
      vertex 7.020464e+00 -1.606220e+00 6.937805e+00
    endloop
  endfacet
  facet normal 5.733737e-01 1.561046e-01 8.042848e-01
    outer loop
      vertex 5.000000e+00 3.090170e+00 8.090170e+00
      vertex 5.257311e+00 0.000000e+00 8.506508e+00
      vertex 7.020464e+00 1.606220e+00 6.937805e+00
    endloop
  endfacet
  facet normal 5.733737e-01 -1.561046e-01 8.042848e-01
    outer loop
      vertex 5.000000e+00 -3.090170e+00 8.090170e+00
      vertex 7.020464e+00 -1.606220e+00 6.937805e+00
      vertex 5.257311e+00 0.000000e+00 8.506508e+00
    endloop
  endfacet
  facet normal 6.647084e-01 0.000000e+00 7.471029e-01
    outer loop
      vertex 7.020464e+00 1.606220e+00 6.937805e+00
      vertex 5.257311e+00 0.000000e+00 8.506508e+00
      vertex 7.020464e+00 -1.606220e+00 6.937805e+00
    endloop
  endfacet
  facet normal 9.972850e-02 4.013445e-01 9.104816e-01
    outer loop
      vertex 0.000000e+00 5.257311e+00 8.506508e+00
      vertex 0.000000e+00 2.732665e+00 9.619384e+00
      vertex 2.598919e+00 4.338886e+00 8.626685e+00
    endloop
  endfacet
  facet normal 9.866886e-02 1.372791e-01 9.856059e-01
    outer loop
      vertex 0.000000e+00 0.000000e+00 1.000000e+01
      vertex 2.628656e+00 1.624598e+00 9.510565e+00
      vertex 0.000000e+00 2.732665e+00 9.619384e+00
    endloop
  endfacet
  facet normal 3.512515e-01 2.933837e-01 8.891279e-01
    outer loop
      vertex 5.000000e+00 3.090170e+00 8.090170e+00
      vertex 2.598919e+00 4.338886e+00 8.626685e+00
      vertex 2.628656e+00 1.624598e+00 9.510565e+00
    endloop
  endfacet
  facet normal 1.681453e-01 3.068929e-01 9.367731e-01
    outer loop
      vertex 0.000000e+00 2.732665e+00 9.619384e+00
      vertex 2.628656e+00 1.624598e+00 9.510565e+00
      vertex 2.598919e+00 4.338886e+00 8.626685e+00
    endloop
  endfacet
  facet normal 4.349878e-01 -1.557084e-01 8.868712e-01
    outer loop
      vertex 5.000000e+00 -3.090170e+00 8.090170e+00
      vertex 5.257311e+00 0.000000e+00 8.506508e+00
      vertex 2.628656e+00 -1.624598e+00 9.510565e+00
    endloop
  endfacet
  facet normal 4.349878e-01 1.557084e-01 8.868712e-01
    outer loop
      vertex 5.000000e+00 3.090170e+00 8.090170e+00
      vertex 2.628656e+00 1.624598e+00 9.510565e+00
      vertex 5.257311e+00 0.000000e+00 8.506508e+00
    endloop
  endfacet
  facet normal 1.830462e-01 0.000000e+00 9.831043e-01
    outer loop
      vertex 0.000000e+00 0.000000e+00 1.000000e+01
      vertex 2.628656e+00 -1.624598e+00 9.510565e+00
      vertex 2.628656e+00 1.624598e+00 9.510565e+00
    endloop
  endfacet
  facet normal 3.568221e-01 0.000000e+00 9.341724e-01
    outer loop
      vertex 5.257311e+00 0.000000e+00 8.506508e+00
      vertex 2.628656e+00 1.624598e+00 9.510565e+00
      vertex 2.628656e+00 -1.624598e+00 9.510565e+00
    endloop
  endfacet
  facet normal -5.627086e-01 -8.107531e-01 1.613641e-01
    outer loop
      vertex -5.257311e+00 -8.506508e+00 0.000000e+00
      vertex -4.338886e+00 -8.626685e+00 2.598919e+00
      vertex -6.937805e+00 -7.020464e+00 1.606220e+00
    endloop
  endfacet
  facet normal -4.530333e-01 -7.904590e-01 4.122322e-01
    outer loop
      vertex -3.090170e+00 -8.090170e+00 5.000000e+00
      vertex -5.877853e+00 -6.881910e+00 4.253254e+00
      vertex -4.338886e+00 -8.626685e+00 2.598919e+00
    endloop
  endfacet
  facet normal -7.056159e-01 -6.343544e-01 3.157542e-01
    outer loop
      vertex -8.090170e+00 -5.000000e+00 3.090170e+00
      vertex -6.937805e+00 -7.020464e+00 1.606220e+00
      vertex -5.877853e+00 -6.881910e+00 4.253254e+00
    endloop
  endfacet
  facet normal -5.789576e-01 -7.686279e-01 2.720648e-01
    outer loop
      vertex -4.338886e+00 -8.626685e+00 2.598919e+00
      vertex -5.877853e+00 -6.881910e+00 4.253254e+00
      vertex -6.937805e+00 -7.020464e+00 1.606220e+00
    endloop
  endfacet
  facet normal -1.613641e-01 -5.627086e-01 8.107531e-01
    outer loop
      vertex 0.000000e+00 -5.257311e+00 8.506508e+00
      vertex -2.598919e+00 -4.338886e+00 8.626685e+00
      vertex -1.606220e+00 -6.937805e+00 7.020464e+00
    endloop
  endfacet
  facet normal -4.122322e-01 -4.530333e-01 7.904590e-01
    outer loop
      vertex -5.000000e+00 -3.090170e+00 8.090170e+00
      vertex -4.253254e+00 -5.877853e+00 6.881910e+00
      vertex -2.598919e+00 -4.338886e+00 8.626685e+00
    endloop
  endfacet
  facet normal -3.157542e-01 -7.056159e-01 6.343544e-01
    outer loop
      vertex -3.090170e+00 -8.090170e+00 5.000000e+00
      vertex -1.606220e+00 -6.937805e+00 7.020464e+00
      vertex -4.253254e+00 -5.877853e+00 6.881910e+00
    endloop
  endfacet
  facet normal -2.720648e-01 -5.789576e-01 7.686279e-01
    outer loop
      vertex -2.598919e+00 -4.338886e+00 8.626685e+00
      vertex -4.253254e+00 -5.877853e+00 6.881910e+00
      vertex -1.606220e+00 -6.937805e+00 7.020464e+00
    endloop
  endfacet
  facet normal -8.107531e-01 -1.613641e-01 5.627086e-01
    outer loop
      vertex -8.506508e+00 0.000000e+00 5.257311e+00
      vertex -8.626685e+00 -2.598919e+00 4.338886e+00
      vertex -7.020464e+00 -1.606220e+00 6.937805e+00
    endloop
  endfacet
  facet normal -7.904590e-01 -4.122322e-01 4.530333e-01
    outer loop
      vertex -8.090170e+00 -5.000000e+00 3.090170e+00
      vertex -6.881910e+00 -4.253254e+00 5.877853e+00
      vertex -8.626685e+00 -2.598919e+00 4.338886e+00
    endloop
  endfacet
  facet normal -6.343544e-01 -3.157542e-01 7.056159e-01
    outer loop
      vertex -5.000000e+00 -3.090170e+00 8.090170e+00
      vertex -7.020464e+00 -1.606220e+00 6.937805e+00
      vertex -6.881910e+00 -4.253254e+00 5.877853e+00
    endloop
  endfacet
  facet normal -7.686279e-01 -2.720648e-01 5.789576e-01
    outer loop
      vertex -8.626685e+00 -2.598919e+00 4.338886e+00
      vertex -6.881910e+00 -4.253254e+00 5.877853e+00
      vertex -7.020464e+00 -1.606220e+00 6.937805e+00
    endloop
  endfacet
  facet normal -4.518835e-01 -7.038250e-01 5.481165e-01
    outer loop
      vertex -3.090170e+00 -8.090170e+00 5.000000e+00
      vertex -4.253254e+00 -5.877853e+00 6.881910e+00
      vertex -5.877853e+00 -6.881910e+00 4.253254e+00
    endloop
  endfacet
  facet normal -5.481165e-01 -4.518835e-01 7.038250e-01
    outer loop
      vertex -5.000000e+00 -3.090170e+00 8.090170e+00
      vertex -6.881910e+00 -4.253254e+00 5.877853e+00
      vertex -4.253254e+00 -5.877853e+00 6.881910e+00
    endloop
  endfacet
  facet normal -7.038250e-01 -5.481165e-01 4.518835e-01
    outer loop
      vertex -8.090170e+00 -5.000000e+00 3.090170e+00
      vertex -5.877853e+00 -6.881910e+00 4.253254e+00
      vertex -6.881910e+00 -4.253254e+00 5.877853e+00
    endloop
  endfacet
  facet normal -5.773503e-01 -5.773503e-01 5.773503e-01
    outer loop
      vertex -4.253254e+00 -5.877853e+00 6.881910e+00
      vertex -6.881910e+00 -4.253254e+00 5.877853e+00
      vertex -5.877853e+00 -6.881910e+00 4.253254e+00
    endloop
  endfacet
  facet normal -1.613641e-01 -5.627086e-01 -8.107531e-01
    outer loop
      vertex 0.000000e+00 -5.257311e+00 -8.506508e+00
      vertex -1.606220e+00 -6.937805e+00 -7.020464e+00
      vertex -2.598919e+00 -4.338886e+00 -8.626685e+00
    endloop
  endfacet
  facet normal -3.157542e-01 -7.056159e-01 -6.343544e-01
    outer loop
      vertex -3.090170e+00 -8.090170e+00 -5.000000e+00
      vertex -4.253254e+00 -5.877853e+00 -6.881910e+00
      vertex -1.606220e+00 -6.937805e+00 -7.020464e+00
    endloop
  endfacet
  facet normal -4.122322e-01 -4.530333e-01 -7.904590e-01
    outer loop
      vertex -5.000000e+00 -3.090170e+00 -8.090170e+00
      vertex -2.598919e+00 -4.338886e+00 -8.626685e+00
      vertex -4.253254e+00 -5.877853e+00 -6.881910e+00
    endloop
  endfacet
  facet normal -2.720648e-01 -5.789576e-01 -7.686279e-01
    outer loop
      vertex -1.606220e+00 -6.937805e+00 -7.020464e+00
      vertex -4.253254e+00 -5.877853e+00 -6.881910e+00
      vertex -2.598919e+00 -4.338886e+00 -8.626685e+00
    endloop
  endfacet
  facet normal -5.627086e-01 -8.107531e-01 -1.613641e-01
    outer loop
      vertex -5.257311e+00 -8.506508e+00 0.000000e+00
      vertex -6.937805e+00 -7.020464e+00 -1.606220e+00
      vertex -4.338886e+00 -8.626685e+00 -2.598919e+00
    endloop
  endfacet
  facet normal -7.056159e-01 -6.343544e-01 -3.157542e-01
    outer loop
      vertex -8.090170e+00 -5.000000e+00 -3.090170e+00
      vertex -5.877853e+00 -6.881910e+00 -4.253254e+00
      vertex -6.937805e+00 -7.020464e+00 -1.606220e+00
    endloop
  endfacet
  facet normal -4.530333e-01 -7.904590e-01 -4.122322e-01
    outer loop
      vertex -3.090170e+00 -8.090170e+00 -5.000000e+00
      vertex -4.338886e+00 -8.626685e+00 -2.598919e+00
      vertex -5.877853e+00 -6.881910e+00 -4.253254e+00
    endloop
  endfacet
  facet normal -5.789576e-01 -7.686279e-01 -2.720648e-01
    outer loop
      vertex -6.937805e+00 -7.020464e+00 -1.606220e+00
      vertex -5.877853e+00 -6.881910e+00 -4.253254e+00
      vertex -4.338886e+00 -8.626685e+00 -2.598919e+00
    endloop
  endfacet
  facet normal -8.107531e-01 -1.613641e-01 -5.627086e-01
    outer loop
      vertex -8.506508e+00 0.000000e+00 -5.257311e+00
      vertex -7.020464e+00 -1.606220e+00 -6.937805e+00
      vertex -8.626685e+00 -2.598919e+00 -4.338886e+00
    endloop
  endfacet
  facet normal -6.343544e-01 -3.157542e-01 -7.056159e-01
    outer loop
      vertex -5.000000e+00 -3.090170e+00 -8.090170e+00
      vertex -6.881910e+00 -4.253254e+00 -5.877853e+00
      vertex -7.020464e+00 -1.606220e+00 -6.937805e+00
    endloop
  endfacet
  facet normal -7.904590e-01 -4.122322e-01 -4.530333e-01
    outer loop
      vertex -8.090170e+00 -5.000000e+00 -3.090170e+00
      vertex -8.626685e+00 -2.598919e+00 -4.338886e+00
      vertex -6.881910e+00 -4.253254e+00 -5.877853e+00
    endloop
  endfacet
  facet normal -7.686279e-01 -2.720648e-01 -5.789576e-01
    outer loop
      vertex -7.020464e+00 -1.606220e+00 -6.937805e+00
      vertex -6.881910e+00 -4.253254e+00 -5.877853e+00
      vertex -8.626685e+00 -2.598919e+00 -4.338886e+00
    endloop
  endfacet
  facet normal -4.518835e-01 -7.038250e-01 -5.481165e-01
    outer loop
      vertex -3.090170e+00 -8.090170e+00 -5.000000e+00
      vertex -5.877853e+00 -6.881910e+00 -4.253254e+00
      vertex -4.253254e+00 -5.877853e+00 -6.881910e+00
    endloop
  endfacet
  facet normal -7.038250e-01 -5.481165e-01 -4.518835e-01
    outer loop
      vertex -8.090170e+00 -5.000000e+00 -3.090170e+00
      vertex -6.881910e+00 -4.253254e+00 -5.877853e+00
      vertex -5.877853e+00 -6.881910e+00 -4.253254e+00
    endloop
  endfacet
  facet normal -5.481165e-01 -4.518835e-01 -7.038250e-01
    outer loop
      vertex -5.000000e+00 -3.090170e+00 -8.090170e+00
      vertex -4.253254e+00 -5.877853e+00 -6.881910e+00
      vertex -6.881910e+00 -4.253254e+00 -5.877853e+00
    endloop
  endfacet
  facet normal -5.773503e-01 -5.773503e-01 -5.773503e-01
    outer loop
      vertex -5.877853e+00 -6.881910e+00 -4.253254e+00
      vertex -6.881910e+00 -4.253254e+00 -5.877853e+00
      vertex -4.253254e+00 -5.877853e+00 -6.881910e+00
    endloop
  endfacet
  facet normal 7.491175e-01 0.000000e+00 -6.624371e-01
    outer loop
      vertex 8.506508e+00 0.000000e+00 -5.257311e+00
      vertex 7.020464e+00 -1.606220e+00 -6.937805e+00
      vertex 7.020464e+00 1.606220e+00 -6.937805e+00
    endloop
  endfacet
  facet normal 5.733737e-01 -1.561046e-01 -8.042848e-01
    outer loop
      vertex 5.000000e+00 -3.090170e+00 -8.090170e+00
      vertex 5.257311e+00 0.000000e+00 -8.506508e+00
      vertex 7.020464e+00 -1.606220e+00 -6.937805e+00
    endloop
  endfacet
  facet normal 5.733737e-01 1.561046e-01 -8.042848e-01
    outer loop
      vertex 5.000000e+00 3.090170e+00 -8.090170e+00
      vertex 7.020464e+00 1.606220e+00 -6.937805e+00
      vertex 5.257311e+00 0.000000e+00 -8.506508e+00
    endloop
  endfacet
  facet normal 6.647084e-01 0.000000e+00 -7.471029e-01
    outer loop
      vertex 7.020464e+00 -1.606220e+00 -6.937805e+00
      vertex 5.257311e+00 0.000000e+00 -8.506508e+00
      vertex 7.020464e+00 1.606220e+00 -6.937805e+00
    endloop
  endfacet
  facet normal 9.972850e-02 -4.013445e-01 -9.104816e-01
    outer loop
      vertex 0.000000e+00 -5.257311e+00 -8.506508e+00
      vertex 0.000000e+00 -2.732665e+00 -9.619384e+00
      vertex 2.598919e+00 -4.338886e+00 -8.626685e+00
    endloop
  endfacet
  facet normal 9.866886e-02 -1.372791e-01 -9.856059e-01
    outer loop
      vertex 0.000000e+00 0.000000e+00 -1.000000e+01
      vertex 2.628656e+00 -1.624598e+00 -9.510565e+00
      vertex 0.000000e+00 -2.732665e+00 -9.619384e+00
    endloop
  endfacet
  facet normal 3.512515e-01 -2.933837e-01 -8.891279e-01
    outer loop
      vertex 5.000000e+00 -3.090170e+00 -8.090170e+00
      vertex 2.598919e+00 -4.338886e+00 -8.626685e+00
      vertex 2.628656e+00 -1.624598e+00 -9.510565e+00
    endloop
  endfacet
  facet normal 1.681453e-01 -3.068929e-01 -9.367731e-01
    outer loop
      vertex 0.000000e+00 -2.732665e+00 -9.619384e+00
      vertex 2.628656e+00 -1.624598e+00 -9.510565e+00
      vertex 2.598919e+00 -4.338886e+00 -8.626685e+00
    endloop
  endfacet
  facet normal 9.972850e-02 4.013445e-01 -9.104816e-01
    outer loop
      vertex 0.000000e+00 5.257311e+00 -8.506508e+00
      vertex 2.598919e+00 4.338886e+00 -8.626685e+00
      vertex 0.000000e+00 2.732665e+00 -9.619384e+00
    endloop
  endfacet
  facet normal 3.512515e-01 2.933837e-01 -8.891279e-01
    outer loop
      vertex 5.000000e+00 3.090170e+00 -8.090170e+00
      vertex 2.628656e+00 1.624598e+00 -9.510565e+00
      vertex 2.598919e+00 4.338886e+00 -8.626685e+00
    endloop
  endfacet
  facet normal 9.866886e-02 1.372791e-01 -9.856059e-01
    outer loop
      vertex 0.000000e+00 0.000000e+00 -1.000000e+01
      vertex 0.000000e+00 2.732665e+00 -9.619384e+00
      vertex 2.628656e+00 1.624598e+00 -9.510565e+00
    endloop
  endfacet
  facet normal 1.681453e-01 3.068929e-01 -9.367731e-01
    outer loop
      vertex 2.598919e+00 4.338886e+00 -8.626685e+00
      vertex 2.628656e+00 1.624598e+00 -9.510565e+00
      vertex 0.000000e+00 2.732665e+00 -9.619384e+00
    endloop
  endfacet
  facet normal 4.349878e-01 -1.557084e-01 -8.868712e-01
    outer loop
      vertex 5.000000e+00 -3.090170e+00 -8.090170e+00
      vertex 2.628656e+00 -1.624598e+00 -9.510565e+00
      vertex 5.257311e+00 0.000000e+00 -8.506508e+00
    endloop
  endfacet
  facet normal 1.830462e-01 0.000000e+00 -9.831043e-01
    outer loop
      vertex 0.000000e+00 0.000000e+00 -1.000000e+01
      vertex 2.628656e+00 1.624598e+00 -9.510565e+00
      vertex 2.628656e+00 -1.624598e+00 -9.510565e+00
    endloop
  endfacet
  facet normal 4.349878e-01 1.557084e-01 -8.868712e-01
    outer loop
      vertex 5.000000e+00 3.090170e+00 -8.090170e+00
      vertex 5.257311e+00 0.000000e+00 -8.506508e+00
      vertex 2.628656e+00 1.624598e+00 -9.510565e+00
    endloop
  endfacet
  facet normal 3.568221e-01 0.000000e+00 -9.341724e-01
    outer loop
      vertex 2.628656e+00 -1.624598e+00 -9.510565e+00
      vertex 2.628656e+00 1.624598e+00 -9.510565e+00
      vertex 5.257311e+00 0.000000e+00 -8.506508e+00
    endloop
  endfacet
  facet normal 9.104816e-01 9.972850e-02 4.013445e-01
    outer loop
      vertex 8.506508e+00 0.000000e+00 5.257311e+00
      vertex 9.619384e+00 0.000000e+00 2.732665e+00
      vertex 8.626685e+00 2.598919e+00 4.338886e+00
    endloop
  endfacet
  facet normal 9.856059e-01 9.866886e-02 1.372791e-01
    outer loop
      vertex 1.000000e+01 0.000000e+00 0.000000e+00
      vertex 9.510565e+00 2.628656e+00 1.624598e+00
      vertex 9.619384e+00 0.000000e+00 2.732665e+00
    endloop
  endfacet
  facet normal 8.891279e-01 3.512515e-01 2.933837e-01
    outer loop
      vertex 8.090170e+00 5.000000e+00 3.090170e+00
      vertex 8.626685e+00 2.598919e+00 4.338886e+00
      vertex 9.510565e+00 2.628656e+00 1.624598e+00
    endloop
  endfacet
  facet normal 9.367731e-01 1.681453e-01 3.068929e-01
    outer loop
      vertex 9.619384e+00 0.000000e+00 2.732665e+00
      vertex 9.510565e+00 2.628656e+00 1.624598e+00
      vertex 8.626685e+00 2.598919e+00 4.338886e+00
    endloop
  endfacet
  facet normal 9.104816e-01 9.972850e-02 -4.013445e-01
    outer loop
      vertex 8.506508e+00 0.000000e+00 -5.257311e+00
      vertex 8.626685e+00 2.598919e+00 -4.338886e+00
      vertex 9.619384e+00 0.000000e+00 -2.732665e+00
    endloop
  endfacet
  facet normal 8.891279e-01 3.512515e-01 -2.933837e-01
    outer loop
      vertex 8.090170e+00 5.000000e+00 -3.090170e+00
      vertex 9.510565e+00 2.628656e+00 -1.624598e+00
      vertex 8.626685e+00 2.598919e+00 -4.338886e+00
    endloop
  endfacet
  facet normal 9.856059e-01 9.866886e-02 -1.372791e-01
    outer loop
      vertex 1.000000e+01 0.000000e+00 0.000000e+00
      vertex 9.619384e+00 0.000000e+00 -2.732665e+00
      vertex 9.510565e+00 2.628656e+00 -1.624598e+00
    endloop
  endfacet
  facet normal 9.367731e-01 1.681453e-01 -3.068929e-01
    outer loop
      vertex 8.626685e+00 2.598919e+00 -4.338886e+00
      vertex 9.510565e+00 2.628656e+00 -1.624598e+00
      vertex 9.619384e+00 0.000000e+00 -2.732665e+00
    endloop
  endfacet
  facet normal 6.624371e-01 7.491175e-01 0.000000e+00
    outer loop
      vertex 5.257311e+00 8.506508e+00 0.000000e+00
      vertex 6.937805e+00 7.020464e+00 1.606220e+00
      vertex 6.937805e+00 7.020464e+00 -1.606220e+00
    endloop
  endfacet
  facet normal 8.042848e-01 5.733737e-01 1.561046e-01
    outer loop
      vertex 8.090170e+00 5.000000e+00 3.090170e+00
      vertex 8.506508e+00 5.257311e+00 0.000000e+00
      vertex 6.937805e+00 7.020464e+00 1.606220e+00
    endloop
  endfacet
  facet normal 8.042848e-01 5.733737e-01 -1.561046e-01
    outer loop
      vertex 8.090170e+00 5.000000e+00 -3.090170e+00
      vertex 6.937805e+00 7.020464e+00 -1.606220e+00
      vertex 8.506508e+00 5.257311e+00 0.000000e+00
    endloop
  endfacet
  facet normal 7.471029e-01 6.647084e-01 0.000000e+00
    outer loop
      vertex 6.937805e+00 7.020464e+00 1.606220e+00
      vertex 8.506508e+00 5.257311e+00 0.000000e+00
      vertex 6.937805e+00 7.020464e+00 -1.606220e+00
    endloop
  endfacet
  facet normal 9.831043e-01 1.830462e-01 0.000000e+00
    outer loop
      vertex 1.000000e+01 0.000000e+00 0.000000e+00
      vertex 9.510565e+00 2.628656e+00 -1.624598e+00
      vertex 9.510565e+00 2.628656e+00 1.624598e+00
    endloop
  endfacet
  facet normal 8.868712e-01 4.349878e-01 -1.557084e-01
    outer loop
      vertex 8.090170e+00 5.000000e+00 -3.090170e+00
      vertex 8.506508e+00 5.257311e+00 0.000000e+00
      vertex 9.510565e+00 2.628656e+00 -1.624598e+00
    endloop
  endfacet
  facet normal 8.868712e-01 4.349878e-01 1.557084e-01
    outer loop
      vertex 8.090170e+00 5.000000e+00 3.090170e+00
      vertex 9.510565e+00 2.628656e+00 1.624598e+00
      vertex 8.506508e+00 5.257311e+00 0.000000e+00
    endloop
  endfacet
  facet normal 9.341724e-01 3.568221e-01 -0.000000e+00
    outer loop
      vertex 9.510565e+00 2.628656e+00 -1.624598e+00
      vertex 8.506508e+00 5.257311e+00 0.000000e+00
      vertex 9.510565e+00 2.628656e+00 1.624598e+00
    endloop
  endfacet
endsolid sphere
