solid hook
  facet normal -0.000000e+00 0.000000e+00 -1.000000e+00
    outer loop
      vertex 6.000000e+00 4.000000e+01 0.000000e+00
      vertex 0.000000e+00 8.000000e+00 0.000000e+00
      vertex 0.000000e+00 4.000000e+01 0.000000e+00
    endloop
  endfacet
  facet normal 0.000000e+00 0.000000e+00 1.000000e+00
    outer loop
      vertex 6.000000e+00 4.000000e+01 8.000000e+00
      vertex 0.000000e+00 4.000000e+01 8.000000e+00
      vertex 0.000000e+00 8.000000e+00 8.000000e+00
    endloop
  endfacet
  facet normal 0.000000e+00 0.000000e+00 -1.000000e+00
    outer loop
      vertex 6.000000e+00 4.000000e+01 0.000000e+00
      vertex 1.197719e-01 6.172633e+00 0.000000e+00
      vertex 0.000000e+00 8.000000e+00 0.000000e+00
    endloop
  endfacet
  facet normal 0.000000e+00 0.000000e+00 1.000000e+00
    outer loop
      vertex 6.000000e+00 4.000000e+01 8.000000e+00
      vertex 0.000000e+00 8.000000e+00 8.000000e+00
      vertex 1.197719e-01 6.172633e+00 8.000000e+00
    endloop
  endfacet
  facet normal 0.000000e+00 0.000000e+00 -1.000000e+00
    outer loop
      vertex 6.000000e+00 4.000000e+01 0.000000e+00
      vertex 4.770384e-01 4.376533e+00 0.000000e+00
      vertex 1.197719e-01 6.172633e+00 0.000000e+00
    endloop
  endfacet
  facet normal 0.000000e+00 0.000000e+00 1.000000e+00
    outer loop
      vertex 6.000000e+00 4.000000e+01 8.000000e+00
      vertex 1.197719e-01 6.172633e+00 8.000000e+00
      vertex 4.770384e-01 4.376533e+00 8.000000e+00
    endloop
  endfacet
  facet normal 0.000000e+00 0.000000e+00 -1.000000e+00
    outer loop
      vertex 6.000000e+00 4.000000e+01 0.000000e+00
      vertex 1.065687e+00 2.642432e+00 0.000000e+00
      vertex 4.770384e-01 4.376533e+00 0.000000e+00
    endloop
  endfacet
  facet normal 0.000000e+00 0.000000e+00 1.000000e+00
    outer loop
      vertex 6.000000e+00 4.000000e+01 8.000000e+00
      vertex 4.770384e-01 4.376533e+00 8.000000e+00
      vertex 1.065687e+00 2.642432e+00 8.000000e+00
    endloop
  endfacet
  facet normal 0.000000e+00 0.000000e+00 -1.000000e+00
    outer loop
      vertex 6.000000e+00 4.000000e+01 0.000000e+00
      vertex 1.875644e+00 1.000000e+00 0.000000e+00
      vertex 1.065687e+00 2.642432e+00 0.000000e+00
    endloop
  endfacet
  facet normal 0.000000e+00 0.000000e+00 1.000000e+00
    outer loop
      vertex 6.000000e+00 4.000000e+01 8.000000e+00
      vertex 1.065687e+00 2.642432e+00 8.000000e+00
      vertex 1.875644e+00 1.000000e+00 8.000000e+00
    endloop
  endfacet
  facet normal 0.000000e+00 0.000000e+00 -1.000000e+00
    outer loop
      vertex 6.000000e+00 4.000000e+01 0.000000e+00
      vertex 2.893053e+00 -5.226600e-01 0.000000e+00
      vertex 1.875644e+00 1.000000e+00 0.000000e+00
    endloop
  endfacet
  facet normal 0.000000e+00 0.000000e+00 1.000000e+00
    outer loop
      vertex 6.000000e+00 4.000000e+01 8.000000e+00
      vertex 1.875644e+00 1.000000e+00 8.000000e+00
      vertex 2.893053e+00 -5.226600e-01 8.000000e+00
    endloop
  endfacet
  facet normal 0.000000e+00 0.000000e+00 -1.000000e+00
    outer loop
      vertex 6.000000e+00 4.000000e+01 0.000000e+00
      vertex 4.100505e+00 -1.899495e+00 0.000000e+00
      vertex 2.893053e+00 -5.226600e-01 0.000000e+00
    endloop
  endfacet
  facet normal 0.000000e+00 0.000000e+00 1.000000e+00
    outer loop
      vertex 6.000000e+00 4.000000e+01 8.000000e+00
      vertex 2.893053e+00 -5.226600e-01 8.000000e+00
      vertex 4.100505e+00 -1.899495e+00 8.000000e+00
    endloop
  endfacet
  facet normal 0.000000e+00 0.000000e+00 -1.000000e+00
    outer loop
      vertex 6.000000e+00 4.000000e+01 0.000000e+00
      vertex 5.477340e+00 -3.106947e+00 0.000000e+00
      vertex 4.100505e+00 -1.899495e+00 0.000000e+00
    endloop
  endfacet
  facet normal 0.000000e+00 0.000000e+00 1.000000e+00
    outer loop
      vertex 6.000000e+00 4.000000e+01 8.000000e+00
      vertex 4.100505e+00 -1.899495e+00 8.000000e+00
      vertex 5.477340e+00 -3.106947e+00 8.000000e+00
    endloop
  endfacet
  facet normal 0.000000e+00 0.000000e+00 -1.000000e+00
    outer loop
      vertex 5.477340e+00 -3.106947e+00 0.000000e+00
      vertex 8.642432e+00 -4.934313e+00 0.000000e+00
      vertex 7.000000e+00 -4.124356e+00 0.000000e+00
    endloop
  endfacet
  facet normal 0.000000e+00 0.000000e+00 1.000000e+00
    outer loop
      vertex 5.477340e+00 -3.106947e+00 8.000000e+00
      vertex 7.000000e+00 -4.124356e+00 8.000000e+00
      vertex 8.642432e+00 -4.934313e+00 8.000000e+00
    endloop
  endfacet
  facet normal 0.000000e+00 0.000000e+00 -1.000000e+00
    outer loop
      vertex 5.477340e+00 -3.106947e+00 0.000000e+00
      vertex 1.037653e+01 -5.522962e+00 0.000000e+00
      vertex 8.642432e+00 -4.934313e+00 0.000000e+00
    endloop
  endfacet
  facet normal 0.000000e+00 0.000000e+00 1.000000e+00
    outer loop
      vertex 5.477340e+00 -3.106947e+00 8.000000e+00
      vertex 8.642432e+00 -4.934313e+00 8.000000e+00
      vertex 1.037653e+01 -5.522962e+00 8.000000e+00
    endloop
  endfacet
  facet normal 0.000000e+00 0.000000e+00 -1.000000e+00
    outer loop
      vertex 5.477340e+00 -3.106947e+00 0.000000e+00
      vertex 1.217263e+01 -5.880228e+00 0.000000e+00
      vertex 1.037653e+01 -5.522962e+00 0.000000e+00
    endloop
  endfacet
  facet normal 0.000000e+00 0.000000e+00 1.000000e+00
    outer loop
      vertex 5.477340e+00 -3.106947e+00 8.000000e+00
      vertex 1.037653e+01 -5.522962e+00 8.000000e+00
      vertex 1.217263e+01 -5.880228e+00 8.000000e+00
    endloop
  endfacet
  facet normal 0.000000e+00 0.000000e+00 -1.000000e+00
    outer loop
      vertex 5.477340e+00 -3.106947e+00 0.000000e+00
      vertex 1.400000e+01 -6.000000e+00 0.000000e+00
      vertex 1.217263e+01 -5.880228e+00 0.000000e+00
    endloop
  endfacet
  facet normal 0.000000e+00 0.000000e+00 1.000000e+00
    outer loop
      vertex 5.477340e+00 -3.106947e+00 8.000000e+00
      vertex 1.217263e+01 -5.880228e+00 8.000000e+00
      vertex 1.400000e+01 -6.000000e+00 8.000000e+00
    endloop
  endfacet
  facet normal 0.000000e+00 0.000000e+00 -1.000000e+00
    outer loop
      vertex 5.477340e+00 -3.106947e+00 0.000000e+00
      vertex 1.582737e+01 -5.880228e+00 0.000000e+00
      vertex 1.400000e+01 -6.000000e+00 0.000000e+00
    endloop
  endfacet
  facet normal 0.000000e+00 0.000000e+00 1.000000e+00
    outer loop
      vertex 5.477340e+00 -3.106947e+00 8.000000e+00
      vertex 1.400000e+01 -6.000000e+00 8.000000e+00
      vertex 1.582737e+01 -5.880228e+00 8.000000e+00
    endloop
  endfacet
  facet normal 0.000000e+00 0.000000e+00 -1.000000e+00
    outer loop
      vertex 5.477340e+00 -3.106947e+00 0.000000e+00
      vertex 1.762347e+01 -5.522962e+00 0.000000e+00
      vertex 1.582737e+01 -5.880228e+00 0.000000e+00
    endloop
  endfacet
  facet normal 0.000000e+00 0.000000e+00 1.000000e+00
    outer loop
      vertex 5.477340e+00 -3.106947e+00 8.000000e+00
      vertex 1.582737e+01 -5.880228e+00 8.000000e+00
      vertex 1.762347e+01 -5.522962e+00 8.000000e+00
    endloop
  endfacet
  facet normal 0.000000e+00 0.000000e+00 -1.000000e+00
    outer loop
      vertex 5.477340e+00 -3.106947e+00 0.000000e+00
      vertex 1.935757e+01 -4.934313e+00 0.000000e+00
      vertex 1.762347e+01 -5.522962e+00 0.000000e+00
    endloop
  endfacet
  facet normal 0.000000e+00 0.000000e+00 1.000000e+00
    outer loop
      vertex 5.477340e+00 -3.106947e+00 8.000000e+00
      vertex 1.762347e+01 -5.522962e+00 8.000000e+00
      vertex 1.935757e+01 -4.934313e+00 8.000000e+00
    endloop
  endfacet
  facet normal 0.000000e+00 0.000000e+00 -1.000000e+00
    outer loop
      vertex 5.477340e+00 -3.106947e+00 0.000000e+00
      vertex 2.100000e+01 -4.124356e+00 0.000000e+00
      vertex 1.935757e+01 -4.934313e+00 0.000000e+00
    endloop
  endfacet
  facet normal 0.000000e+00 0.000000e+00 1.000000e+00
    outer loop
      vertex 5.477340e+00 -3.106947e+00 8.000000e+00
      vertex 1.935757e+01 -4.934313e+00 8.000000e+00
      vertex 2.100000e+01 -4.124356e+00 8.000000e+00
    endloop
  endfacet
  facet normal 0.000000e+00 0.000000e+00 -1.000000e+00
    outer loop
      vertex 5.477340e+00 -3.106947e+00 0.000000e+00
      vertex 2.252266e+01 -3.106947e+00 0.000000e+00
      vertex 2.100000e+01 -4.124356e+00 0.000000e+00
    endloop
  endfacet
  facet normal -0.000000e+00 0.000000e+00 1.000000e+00
    outer loop
      vertex 5.477340e+00 -3.106947e+00 8.000000e+00
      vertex 2.100000e+01 -4.124356e+00 8.000000e+00
      vertex 2.252266e+01 -3.106947e+00 8.000000e+00
    endloop
  endfacet
  facet normal 0.000000e+00 0.000000e+00 -1.000000e+00
    outer loop
      vertex 5.477340e+00 -3.106947e+00 0.000000e+00
      vertex 2.389949e+01 -1.899495e+00 0.000000e+00
      vertex 2.252266e+01 -3.106947e+00 0.000000e+00
    endloop
  endfacet
  facet normal 0.000000e+00 0.000000e+00 1.000000e+00
    outer loop
      vertex 5.477340e+00 -3.106947e+00 8.000000e+00
      vertex 2.252266e+01 -3.106947e+00 8.000000e+00
      vertex 2.389949e+01 -1.899495e+00 8.000000e+00
    endloop
  endfacet
  facet normal 0.000000e+00 0.000000e+00 -1.000000e+00
    outer loop
      vertex 5.477340e+00 -3.106947e+00 0.000000e+00
      vertex 2.510695e+01 -5.226600e-01 0.000000e+00
      vertex 2.389949e+01 -1.899495e+00 0.000000e+00
    endloop
  endfacet
  facet normal 0.000000e+00 0.000000e+00 1.000000e+00
    outer loop
      vertex 5.477340e+00 -3.106947e+00 8.000000e+00
      vertex 2.389949e+01 -1.899495e+00 8.000000e+00
      vertex 2.510695e+01 -5.226600e-01 8.000000e+00
    endloop
  endfacet
  facet normal 0.000000e+00 0.000000e+00 -1.000000e+00
    outer loop
      vertex 5.477340e+00 -3.106947e+00 0.000000e+00
      vertex 2.612436e+01 1.000000e+00 0.000000e+00
      vertex 2.510695e+01 -5.226600e-01 0.000000e+00
    endloop
  endfacet
  facet normal 0.000000e+00 0.000000e+00 1.000000e+00
    outer loop
      vertex 5.477340e+00 -3.106947e+00 8.000000e+00
      vertex 2.510695e+01 -5.226600e-01 8.000000e+00
      vertex 2.612436e+01 1.000000e+00 8.000000e+00
    endloop
  endfacet
  facet normal 0.000000e+00 0.000000e+00 -1.000000e+00
    outer loop
      vertex 5.477340e+00 -3.106947e+00 0.000000e+00
      vertex 2.693431e+01 2.642432e+00 0.000000e+00
      vertex 2.612436e+01 1.000000e+00 0.000000e+00
    endloop
  endfacet
  facet normal 0.000000e+00 0.000000e+00 1.000000e+00
    outer loop
      vertex 5.477340e+00 -3.106947e+00 8.000000e+00
      vertex 2.612436e+01 1.000000e+00 8.000000e+00
      vertex 2.693431e+01 2.642432e+00 8.000000e+00
    endloop
  endfacet
  facet normal 0.000000e+00 0.000000e+00 -1.000000e+00
    outer loop
      vertex 2.693431e+01 2.642432e+00 0.000000e+00
      vertex 2.788023e+01 6.172633e+00 0.000000e+00
      vertex 2.752296e+01 4.376533e+00 0.000000e+00
    endloop
  endfacet
  facet normal 0.000000e+00 0.000000e+00 1.000000e+00
    outer loop
      vertex 2.693431e+01 2.642432e+00 8.000000e+00
      vertex 2.752296e+01 4.376533e+00 8.000000e+00
      vertex 2.788023e+01 6.172633e+00 8.000000e+00
    endloop
  endfacet
  facet normal 0.000000e+00 0.000000e+00 -1.000000e+00
    outer loop
      vertex 2.693431e+01 2.642432e+00 0.000000e+00
      vertex 2.800000e+01 8.000000e+00 0.000000e+00
      vertex 2.788023e+01 6.172633e+00 0.000000e+00
    endloop
  endfacet
  facet normal 0.000000e+00 0.000000e+00 1.000000e+00
    outer loop
      vertex 2.693431e+01 2.642432e+00 8.000000e+00
      vertex 2.788023e+01 6.172633e+00 8.000000e+00
      vertex 2.800000e+01 8.000000e+00 8.000000e+00
    endloop
  endfacet
  facet normal 0.000000e+00 0.000000e+00 -1.000000e+00
    outer loop
      vertex 2.693431e+01 2.642432e+00 0.000000e+00
      vertex 2.800000e+01 2.000000e+01 0.000000e+00
      vertex 2.800000e+01 8.000000e+00 0.000000e+00
    endloop
  endfacet
  facet normal 0.000000e+00 0.000000e+00 1.000000e+00
    outer loop
      vertex 2.693431e+01 2.642432e+00 8.000000e+00
      vertex 2.800000e+01 8.000000e+00 8.000000e+00
      vertex 2.800000e+01 2.000000e+01 8.000000e+00
    endloop
  endfacet
  facet normal 0.000000e+00 0.000000e+00 -1.000000e+00
    outer loop
      vertex 2.693431e+01 2.642432e+00 0.000000e+00
      vertex 2.200000e+01 2.000000e+01 0.000000e+00
      vertex 2.800000e+01 2.000000e+01 0.000000e+00
    endloop
  endfacet
  facet normal 0.000000e+00 -0.000000e+00 1.000000e+00
    outer loop
      vertex 2.693431e+01 2.642432e+00 8.000000e+00
      vertex 2.800000e+01 2.000000e+01 8.000000e+00
      vertex 2.200000e+01 2.000000e+01 8.000000e+00
    endloop
  endfacet
  facet normal 0.000000e+00 0.000000e+00 -1.000000e+00
    outer loop
      vertex 2.693431e+01 2.642432e+00 0.000000e+00
      vertex 2.200000e+01 8.000000e+00 0.000000e+00
      vertex 2.200000e+01 2.000000e+01 0.000000e+00
    endloop
  endfacet
  facet normal 0.000000e+00 0.000000e+00 1.000000e+00
    outer loop
      vertex 2.693431e+01 2.642432e+00 8.000000e+00
      vertex 2.200000e+01 2.000000e+01 8.000000e+00
      vertex 2.200000e+01 8.000000e+00 8.000000e+00
    endloop
  endfacet
  facet normal 0.000000e+00 0.000000e+00 -1.000000e+00
    outer loop
      vertex 2.693431e+01 2.642432e+00 0.000000e+00
      vertex 2.193156e+01 6.955790e+00 0.000000e+00
      vertex 2.200000e+01 8.000000e+00 0.000000e+00
    endloop
  endfacet
  facet normal 0.000000e+00 0.000000e+00 1.000000e+00
    outer loop
      vertex 2.693431e+01 2.642432e+00 8.000000e+00
      vertex 2.200000e+01 8.000000e+00 8.000000e+00
      vertex 2.193156e+01 6.955790e+00 8.000000e+00
    endloop
  endfacet
  facet normal 0.000000e+00 0.000000e+00 -1.000000e+00
    outer loop
      vertex 2.693431e+01 2.642432e+00 0.000000e+00
      vertex 2.172741e+01 5.929448e+00 0.000000e+00
      vertex 2.193156e+01 6.955790e+00 0.000000e+00
    endloop
  endfacet
  facet normal 0.000000e+00 0.000000e+00 1.000000e+00
    outer loop
      vertex 2.693431e+01 2.642432e+00 8.000000e+00
      vertex 2.193156e+01 6.955790e+00 8.000000e+00
      vertex 2.172741e+01 5.929448e+00 8.000000e+00
    endloop
  endfacet
  facet normal 0.000000e+00 0.000000e+00 -1.000000e+00
    outer loop
      vertex 2.693431e+01 2.642432e+00 0.000000e+00
      vertex 2.139104e+01 4.938533e+00 0.000000e+00
      vertex 2.172741e+01 5.929448e+00 0.000000e+00
    endloop
  endfacet
  facet normal 0.000000e+00 0.000000e+00 1.000000e+00
    outer loop
      vertex 2.693431e+01 2.642432e+00 8.000000e+00
      vertex 2.172741e+01 5.929448e+00 8.000000e+00
      vertex 2.139104e+01 4.938533e+00 8.000000e+00
    endloop
  endfacet
  facet normal 0.000000e+00 0.000000e+00 -1.000000e+00
    outer loop
      vertex 2.693431e+01 2.642432e+00 0.000000e+00
      vertex 2.092820e+01 4.000000e+00 0.000000e+00
      vertex 2.139104e+01 4.938533e+00 0.000000e+00
    endloop
  endfacet
  facet normal 0.000000e+00 0.000000e+00 1.000000e+00
    outer loop
      vertex 2.693431e+01 2.642432e+00 8.000000e+00
      vertex 2.139104e+01 4.938533e+00 8.000000e+00
      vertex 2.092820e+01 4.000000e+00 8.000000e+00
    endloop
  endfacet
  facet normal 0.000000e+00 0.000000e+00 -1.000000e+00
    outer loop
      vertex 2.693431e+01 2.642432e+00 0.000000e+00
      vertex 2.034683e+01 3.129909e+00 0.000000e+00
      vertex 2.092820e+01 4.000000e+00 0.000000e+00
    endloop
  endfacet
  facet normal 0.000000e+00 0.000000e+00 1.000000e+00
    outer loop
      vertex 2.693431e+01 2.642432e+00 8.000000e+00
      vertex 2.092820e+01 4.000000e+00 8.000000e+00
      vertex 2.034683e+01 3.129909e+00 8.000000e+00
    endloop
  endfacet
  facet normal -0.000000e+00 0.000000e+00 -1.000000e+00
    outer loop
      vertex 2.693431e+01 2.642432e+00 0.000000e+00
      vertex 1.965685e+01 2.343146e+00 0.000000e+00
      vertex 2.034683e+01 3.129909e+00 0.000000e+00
    endloop
  endfacet
  facet normal 0.000000e+00 0.000000e+00 1.000000e+00
    outer loop
      vertex 2.693431e+01 2.642432e+00 8.000000e+00
      vertex 2.034683e+01 3.129909e+00 8.000000e+00
      vertex 1.965685e+01 2.343146e+00 8.000000e+00
    endloop
  endfacet
  facet normal 0.000000e+00 0.000000e+00 -1.000000e+00
    outer loop
      vertex 2.693431e+01 2.642432e+00 0.000000e+00
      vertex 1.887009e+01 1.653173e+00 0.000000e+00
      vertex 1.965685e+01 2.343146e+00 0.000000e+00
    endloop
  endfacet
  facet normal 0.000000e+00 0.000000e+00 1.000000e+00
    outer loop
      vertex 2.693431e+01 2.642432e+00 8.000000e+00
      vertex 1.965685e+01 2.343146e+00 8.000000e+00
      vertex 1.887009e+01 1.653173e+00 8.000000e+00
    endloop
  endfacet
  facet normal 0.000000e+00 0.000000e+00 -1.000000e+00
    outer loop
      vertex 2.693431e+01 2.642432e+00 0.000000e+00
      vertex 1.800000e+01 1.071797e+00 0.000000e+00
      vertex 1.887009e+01 1.653173e+00 0.000000e+00
    endloop
  endfacet
  facet normal 0.000000e+00 0.000000e+00 1.000000e+00
    outer loop
      vertex 2.693431e+01 2.642432e+00 8.000000e+00
      vertex 1.887009e+01 1.653173e+00 8.000000e+00
      vertex 1.800000e+01 1.071797e+00 8.000000e+00
    endloop
  endfacet
  facet normal 0.000000e+00 0.000000e+00 -1.000000e+00
    outer loop
      vertex 2.693431e+01 2.642432e+00 0.000000e+00
      vertex 1.706147e+01 6.089637e-01 0.000000e+00
      vertex 1.800000e+01 1.071797e+00 0.000000e+00
    endloop
  endfacet
  facet normal 0.000000e+00 0.000000e+00 1.000000e+00
    outer loop
      vertex 2.693431e+01 2.642432e+00 8.000000e+00
      vertex 1.800000e+01 1.071797e+00 8.000000e+00
      vertex 1.706147e+01 6.089637e-01 8.000000e+00
    endloop
  endfacet
  facet normal 0.000000e+00 0.000000e+00 -1.000000e+00
    outer loop
      vertex 2.693431e+01 2.642432e+00 0.000000e+00
      vertex 1.607055e+01 2.725934e-01 0.000000e+00
      vertex 1.706147e+01 6.089637e-01 0.000000e+00
    endloop
  endfacet
  facet normal 0.000000e+00 0.000000e+00 1.000000e+00
    outer loop
      vertex 2.693431e+01 2.642432e+00 8.000000e+00
      vertex 1.706147e+01 6.089637e-01 8.000000e+00
      vertex 1.607055e+01 2.725934e-01 8.000000e+00
    endloop
  endfacet
  facet normal 0.000000e+00 0.000000e+00 -1.000000e+00
    outer loop
      vertex 5.477340e+00 -3.106947e+00 0.000000e+00
      vertex 1.607055e+01 2.725934e-01 0.000000e+00
      vertex 2.693431e+01 2.642432e+00 0.000000e+00
    endloop
  endfacet
  facet normal 0.000000e+00 0.000000e+00 1.000000e+00
    outer loop
      vertex 5.477340e+00 -3.106947e+00 8.000000e+00
      vertex 2.693431e+01 2.642432e+00 8.000000e+00
      vertex 1.607055e+01 2.725934e-01 8.000000e+00
    endloop
  endfacet
  facet normal 0.000000e+00 0.000000e+00 -1.000000e+00
    outer loop
      vertex 5.477340e+00 -3.106947e+00 0.000000e+00
      vertex 1.504421e+01 6.844111e-02 0.000000e+00
      vertex 1.607055e+01 2.725934e-01 0.000000e+00
    endloop
  endfacet
  facet normal 0.000000e+00 0.000000e+00 1.000000e+00
    outer loop
      vertex 5.477340e+00 -3.106947e+00 8.000000e+00
      vertex 1.607055e+01 2.725934e-01 8.000000e+00
      vertex 1.504421e+01 6.844111e-02 8.000000e+00
    endloop
  endfacet
  facet normal 0.000000e+00 0.000000e+00 -1.000000e+00
    outer loop
      vertex 5.477340e+00 -3.106947e+00 0.000000e+00
      vertex 1.400000e+01 0.000000e+00 0.000000e+00
      vertex 1.504421e+01 6.844111e-02 0.000000e+00
    endloop
  endfacet
  facet normal 0.000000e+00 0.000000e+00 1.000000e+00
    outer loop
      vertex 5.477340e+00 -3.106947e+00 8.000000e+00
      vertex 1.504421e+01 6.844111e-02 8.000000e+00
      vertex 1.400000e+01 0.000000e+00 8.000000e+00
    endloop
  endfacet
  facet normal 0.000000e+00 0.000000e+00 -1.000000e+00
    outer loop
      vertex 5.477340e+00 -3.106947e+00 0.000000e+00
      vertex 1.295579e+01 6.844111e-02 0.000000e+00
      vertex 1.400000e+01 0.000000e+00 0.000000e+00
    endloop
  endfacet
  facet normal 0.000000e+00 0.000000e+00 1.000000e+00
    outer loop
      vertex 5.477340e+00 -3.106947e+00 8.000000e+00
      vertex 1.400000e+01 0.000000e+00 8.000000e+00
      vertex 1.295579e+01 6.844111e-02 8.000000e+00
    endloop
  endfacet
  facet normal 0.000000e+00 0.000000e+00 -1.000000e+00
    outer loop
      vertex 5.477340e+00 -3.106947e+00 0.000000e+00
      vertex 1.192945e+01 2.725934e-01 0.000000e+00
      vertex 1.295579e+01 6.844111e-02 0.000000e+00
    endloop
  endfacet
  facet normal 0.000000e+00 0.000000e+00 1.000000e+00
    outer loop
      vertex 5.477340e+00 -3.106947e+00 8.000000e+00
      vertex 1.295579e+01 6.844111e-02 8.000000e+00
      vertex 1.192945e+01 2.725934e-01 8.000000e+00
    endloop
  endfacet
  facet normal 0.000000e+00 0.000000e+00 -1.000000e+00
    outer loop
      vertex 5.477340e+00 -3.106947e+00 0.000000e+00
      vertex 1.093853e+01 6.089637e-01 0.000000e+00
      vertex 1.192945e+01 2.725934e-01 0.000000e+00
    endloop
  endfacet
  facet normal 0.000000e+00 0.000000e+00 1.000000e+00
    outer loop
      vertex 5.477340e+00 -3.106947e+00 8.000000e+00
      vertex 1.192945e+01 2.725934e-01 8.000000e+00
      vertex 1.093853e+01 6.089637e-01 8.000000e+00
    endloop
  endfacet
  facet normal 0.000000e+00 0.000000e+00 -1.000000e+00
    outer loop
      vertex 5.477340e+00 -3.106947e+00 0.000000e+00
      vertex 1.000000e+01 1.071797e+00 0.000000e+00
      vertex 1.093853e+01 6.089637e-01 0.000000e+00
    endloop
  endfacet
  facet normal 0.000000e+00 0.000000e+00 1.000000e+00
    outer loop
      vertex 5.477340e+00 -3.106947e+00 8.000000e+00
      vertex 1.093853e+01 6.089637e-01 8.000000e+00
      vertex 1.000000e+01 1.071797e+00 8.000000e+00
    endloop
  endfacet
  facet normal 0.000000e+00 0.000000e+00 -1.000000e+00
    outer loop
      vertex 5.477340e+00 -3.106947e+00 0.000000e+00
      vertex 9.129909e+00 1.653173e+00 0.000000e+00
      vertex 1.000000e+01 1.071797e+00 0.000000e+00
    endloop
  endfacet
  facet normal 0.000000e+00 0.000000e+00 1.000000e+00
    outer loop
      vertex 5.477340e+00 -3.106947e+00 8.000000e+00
      vertex 1.000000e+01 1.071797e+00 8.000000e+00
      vertex 9.129909e+00 1.653173e+00 8.000000e+00
    endloop
  endfacet
  facet normal 0.000000e+00 0.000000e+00 -1.000000e+00
    outer loop
      vertex 5.477340e+00 -3.106947e+00 0.000000e+00
      vertex 8.343146e+00 2.343146e+00 0.000000e+00
      vertex 9.129909e+00 1.653173e+00 0.000000e+00
    endloop
  endfacet
  facet normal 0.000000e+00 0.000000e+00 1.000000e+00
    outer loop
      vertex 5.477340e+00 -3.106947e+00 8.000000e+00
      vertex 9.129909e+00 1.653173e+00 8.000000e+00
      vertex 8.343146e+00 2.343146e+00 8.000000e+00
    endloop
  endfacet
  facet normal 0.000000e+00 0.000000e+00 -1.000000e+00
    outer loop
      vertex 5.477340e+00 -3.106947e+00 0.000000e+00
      vertex 7.653173e+00 3.129909e+00 0.000000e+00
      vertex 8.343146e+00 2.343146e+00 0.000000e+00
    endloop
  endfacet
  facet normal 0.000000e+00 0.000000e+00 1.000000e+00
    outer loop
      vertex 5.477340e+00 -3.106947e+00 8.000000e+00
      vertex 8.343146e+00 2.343146e+00 8.000000e+00
      vertex 7.653173e+00 3.129909e+00 8.000000e+00
    endloop
  endfacet
  facet normal 0.000000e+00 0.000000e+00 -1.000000e+00
    outer loop
      vertex 5.477340e+00 -3.106947e+00 0.000000e+00
      vertex 7.071797e+00 4.000000e+00 0.000000e+00
      vertex 7.653173e+00 3.129909e+00 0.000000e+00
    endloop
  endfacet
  facet normal 0.000000e+00 0.000000e+00 1.000000e+00
    outer loop
      vertex 5.477340e+00 -3.106947e+00 8.000000e+00
      vertex 7.653173e+00 3.129909e+00 8.000000e+00
      vertex 7.071797e+00 4.000000e+00 8.000000e+00
    endloop
  endfacet
  facet normal 0.000000e+00 0.000000e+00 -1.000000e+00
    outer loop
      vertex 5.477340e+00 -3.106947e+00 0.000000e+00
      vertex 6.608964e+00 4.938533e+00 0.000000e+00
      vertex 7.071797e+00 4.000000e+00 0.000000e+00
    endloop
  endfacet
  facet normal 0.000000e+00 0.000000e+00 1.000000e+00
    outer loop
      vertex 5.477340e+00 -3.106947e+00 8.000000e+00
      vertex 7.071797e+00 4.000000e+00 8.000000e+00
      vertex 6.608964e+00 4.938533e+00 8.000000e+00
    endloop
  endfacet
  facet normal 0.000000e+00 0.000000e+00 -1.000000e+00
    outer loop
      vertex 5.477340e+00 -3.106947e+00 0.000000e+00
      vertex 6.272593e+00 5.929448e+00 0.000000e+00
      vertex 6.608964e+00 4.938533e+00 0.000000e+00
    endloop
  endfacet
  facet normal 0.000000e+00 0.000000e+00 1.000000e+00
    outer loop
      vertex 5.477340e+00 -3.106947e+00 8.000000e+00
      vertex 6.608964e+00 4.938533e+00 8.000000e+00
      vertex 6.272593e+00 5.929448e+00 8.000000e+00
    endloop
  endfacet
  facet normal 0.000000e+00 0.000000e+00 -1.000000e+00
    outer loop
      vertex 5.477340e+00 -3.106947e+00 0.000000e+00
      vertex 6.068441e+00 6.955790e+00 0.000000e+00
      vertex 6.272593e+00 5.929448e+00 0.000000e+00
    endloop
  endfacet
  facet normal 0.000000e+00 0.000000e+00 1.000000e+00
    outer loop
      vertex 5.477340e+00 -3.106947e+00 8.000000e+00
      vertex 6.272593e+00 5.929448e+00 8.000000e+00
      vertex 6.068441e+00 6.955790e+00 8.000000e+00
    endloop
  endfacet
  facet normal 0.000000e+00 0.000000e+00 -1.000000e+00
    outer loop
      vertex 5.477340e+00 -3.106947e+00 0.000000e+00
      vertex 6.000000e+00 8.000000e+00 0.000000e+00
      vertex 6.068441e+00 6.955790e+00 0.000000e+00
    endloop
  endfacet
  facet normal 0.000000e+00 0.000000e+00 1.000000e+00
    outer loop
      vertex 5.477340e+00 -3.106947e+00 8.000000e+00
      vertex 6.068441e+00 6.955790e+00 8.000000e+00
      vertex 6.000000e+00 8.000000e+00 8.000000e+00
    endloop
  endfacet
  facet normal 0.000000e+00 0.000000e+00 -1.000000e+00
    outer loop
      vertex 5.477340e+00 -3.106947e+00 0.000000e+00
      vertex 6.000000e+00 4.000000e+01 0.000000e+00
      vertex 6.000000e+00 8.000000e+00 0.000000e+00
    endloop
  endfacet
  facet normal 0.000000e+00 0.000000e+00 1.000000e+00
    outer loop
      vertex 5.477340e+00 -3.106947e+00 8.000000e+00
      vertex 6.000000e+00 8.000000e+00 8.000000e+00
      vertex 6.000000e+00 4.000000e+01 8.000000e+00
    endloop
  endfacet
  facet normal -1.000000e+00 0.000000e+00 0.000000e+00
    outer loop
      vertex 0.000000e+00 4.000000e+01 0.000000e+00
      vertex 0.000000e+00 8.000000e+00 0.000000e+00
      vertex 0.000000e+00 8.000000e+00 8.000000e+00
    endloop
  endfacet
  facet normal -1.000000e+00 0.000000e+00 0.000000e+00
    outer loop
      vertex 0.000000e+00 4.000000e+01 0.000000e+00
      vertex 0.000000e+00 8.000000e+00 8.000000e+00
      vertex 0.000000e+00 4.000000e+01 8.000000e+00
    endloop
  endfacet
  facet normal -9.978589e-01 -6.540310e-02 0.000000e+00
    outer loop
      vertex 0.000000e+00 8.000000e+00 0.000000e+00
      vertex 1.197719e-01 6.172633e+00 0.000000e+00
      vertex 1.197719e-01 6.172633e+00 8.000000e+00
    endloop
  endfacet
  facet normal -9.978589e-01 -6.540310e-02 0.000000e+00
    outer loop
      vertex 0.000000e+00 8.000000e+00 0.000000e+00
      vertex 1.197719e-01 6.172633e+00 8.000000e+00
      vertex 0.000000e+00 8.000000e+00 8.000000e+00
    endloop
  endfacet
  facet normal -9.807853e-01 -1.950903e-01 0.000000e+00
    outer loop
      vertex 1.197719e-01 6.172633e+00 0.000000e+00
      vertex 4.770384e-01 4.376533e+00 0.000000e+00
      vertex 4.770384e-01 4.376533e+00 8.000000e+00
    endloop
  endfacet
  facet normal -9.807853e-01 -1.950903e-01 0.000000e+00
    outer loop
      vertex 1.197719e-01 6.172633e+00 0.000000e+00
      vertex 4.770384e-01 4.376533e+00 8.000000e+00
      vertex 1.197719e-01 6.172633e+00 8.000000e+00
    endloop
  endfacet
  facet normal -9.469300e-01 -3.214398e-01 0.000000e+00
    outer loop
      vertex 4.770384e-01 4.376533e+00 0.000000e+00
      vertex 1.065687e+00 2.642432e+00 0.000000e+00
      vertex 1.065687e+00 2.642432e+00 8.000000e+00
    endloop
  endfacet
  facet normal -9.469300e-01 -3.214398e-01 0.000000e+00
    outer loop
      vertex 4.770384e-01 4.376533e+00 0.000000e+00
      vertex 1.065687e+00 2.642432e+00 8.000000e+00
      vertex 4.770384e-01 4.376533e+00 8.000000e+00
    endloop
  endfacet
  facet normal -8.968729e-01 -4.422883e-01 0.000000e+00
    outer loop
      vertex 1.065687e+00 2.642432e+00 0.000000e+00
      vertex 1.875644e+00 1.000000e+00 0.000000e+00
      vertex 1.875644e+00 1.000000e+00 8.000000e+00
    endloop
  endfacet
  facet normal -8.968729e-01 -4.422883e-01 0.000000e+00
    outer loop
      vertex 1.065687e+00 2.642432e+00 0.000000e+00
      vertex 1.875644e+00 1.000000e+00 8.000000e+00
      vertex 1.065687e+00 2.642432e+00 8.000000e+00
    endloop
  endfacet
  facet normal -8.314696e-01 -5.555703e-01 0.000000e+00
    outer loop
      vertex 1.875644e+00 1.000000e+00 0.000000e+00
      vertex 2.893053e+00 -5.226600e-01 0.000000e+00
      vertex 2.893053e+00 -5.226600e-01 8.000000e+00
    endloop
  endfacet
  facet normal -8.314696e-01 -5.555703e-01 0.000000e+00
    outer loop
      vertex 1.875644e+00 1.000000e+00 0.000000e+00
      vertex 2.893053e+00 -5.226600e-01 8.000000e+00
      vertex 1.875644e+00 1.000000e+00 8.000000e+00
    endloop
  endfacet
  facet normal -7.518398e-01 -6.593458e-01 0.000000e+00
    outer loop
      vertex 2.893053e+00 -5.226600e-01 0.000000e+00
      vertex 4.100505e+00 -1.899495e+00 0.000000e+00
      vertex 4.100505e+00 -1.899495e+00 8.000000e+00
    endloop
  endfacet
  facet normal -7.518398e-01 -6.593458e-01 0.000000e+00
    outer loop
      vertex 2.893053e+00 -5.226600e-01 0.000000e+00
      vertex 4.100505e+00 -1.899495e+00 8.000000e+00
      vertex 2.893053e+00 -5.226600e-01 8.000000e+00
    endloop
  endfacet
  facet normal -6.593458e-01 -7.518398e-01 0.000000e+00
    outer loop
      vertex 4.100505e+00 -1.899495e+00 0.000000e+00
      vertex 5.477340e+00 -3.106947e+00 0.000000e+00
      vertex 5.477340e+00 -3.106947e+00 8.000000e+00
    endloop
  endfacet
  facet normal -6.593458e-01 -7.518398e-01 0.000000e+00
    outer loop
      vertex 4.100505e+00 -1.899495e+00 0.000000e+00
      vertex 5.477340e+00 -3.106947e+00 8.000000e+00
      vertex 4.100505e+00 -1.899495e+00 8.000000e+00
    endloop
  endfacet
  facet normal -5.555703e-01 -8.314696e-01 0.000000e+00
    outer loop
      vertex 5.477340e+00 -3.106947e+00 0.000000e+00
      vertex 7.000000e+00 -4.124356e+00 0.000000e+00
      vertex 7.000000e+00 -4.124356e+00 8.000000e+00
    endloop
  endfacet
  facet normal -5.555703e-01 -8.314696e-01 0.000000e+00
    outer loop
      vertex 5.477340e+00 -3.106947e+00 0.000000e+00
      vertex 7.000000e+00 -4.124356e+00 8.000000e+00
      vertex 5.477340e+00 -3.106947e+00 8.000000e+00
    endloop
  endfacet
  facet normal -4.422883e-01 -8.968729e-01 0.000000e+00
    outer loop
      vertex 7.000000e+00 -4.124356e+00 0.000000e+00
      vertex 8.642432e+00 -4.934313e+00 0.000000e+00
      vertex 8.642432e+00 -4.934313e+00 8.000000e+00
    endloop
  endfacet
  facet normal -4.422883e-01 -8.968729e-01 0.000000e+00
    outer loop
      vertex 7.000000e+00 -4.124356e+00 0.000000e+00
      vertex 8.642432e+00 -4.934313e+00 8.000000e+00
      vertex 7.000000e+00 -4.124356e+00 8.000000e+00
    endloop
  endfacet
  facet normal -3.214405e-01 -9.469298e-01 0.000000e+00
    outer loop
      vertex 8.642432e+00 -4.934313e+00 0.000000e+00
      vertex 1.037653e+01 -5.522962e+00 0.000000e+00
      vertex 1.037653e+01 -5.522962e+00 8.000000e+00
    endloop
  endfacet
  facet normal -3.214405e-01 -9.469298e-01 0.000000e+00
    outer loop
      vertex 8.642432e+00 -4.934313e+00 0.000000e+00
      vertex 1.037653e+01 -5.522962e+00 8.000000e+00
      vertex 8.642432e+00 -4.934313e+00 8.000000e+00
    endloop
  endfacet
  facet normal -1.950901e-01 -9.807853e-01 0.000000e+00
    outer loop
      vertex 1.037653e+01 -5.522962e+00 0.000000e+00
      vertex 1.217263e+01 -5.880228e+00 0.000000e+00
      vertex 1.217263e+01 -5.880228e+00 8.000000e+00
    endloop
  endfacet
  facet normal -1.950901e-01 -9.807853e-01 0.000000e+00
    outer loop
      vertex 1.037653e+01 -5.522962e+00 0.000000e+00
      vertex 1.217263e+01 -5.880228e+00 8.000000e+00
      vertex 1.037653e+01 -5.522962e+00 8.000000e+00
    endloop
  endfacet
  facet normal -6.540304e-02 -9.978589e-01 0.000000e+00
    outer loop
      vertex 1.217263e+01 -5.880228e+00 0.000000e+00
      vertex 1.400000e+01 -6.000000e+00 0.000000e+00
      vertex 1.400000e+01 -6.000000e+00 8.000000e+00
    endloop
  endfacet
  facet normal -6.540304e-02 -9.978589e-01 0.000000e+00
    outer loop
      vertex 1.217263e+01 -5.880228e+00 0.000000e+00
      vertex 1.400000e+01 -6.000000e+00 8.000000e+00
      vertex 1.217263e+01 -5.880228e+00 8.000000e+00
    endloop
  endfacet
  facet normal 6.540304e-02 -9.978589e-01 0.000000e+00
    outer loop
      vertex 1.400000e+01 -6.000000e+00 0.000000e+00
      vertex 1.582737e+01 -5.880228e+00 0.000000e+00
      vertex 1.582737e+01 -5.880228e+00 8.000000e+00
    endloop
  endfacet
  facet normal 6.540304e-02 -9.978589e-01 0.000000e+00
    outer loop
      vertex 1.400000e+01 -6.000000e+00 0.000000e+00
      vertex 1.582737e+01 -5.880228e+00 8.000000e+00
      vertex 1.400000e+01 -6.000000e+00 8.000000e+00
    endloop
  endfacet
  facet normal 1.950901e-01 -9.807853e-01 0.000000e+00
    outer loop
      vertex 1.582737e+01 -5.880228e+00 0.000000e+00
      vertex 1.762347e+01 -5.522962e+00 0.000000e+00
      vertex 1.762347e+01 -5.522962e+00 8.000000e+00
    endloop
  endfacet
  facet normal 1.950901e-01 -9.807853e-01 0.000000e+00
    outer loop
      vertex 1.582737e+01 -5.880228e+00 0.000000e+00
      vertex 1.762347e+01 -5.522962e+00 8.000000e+00
      vertex 1.582737e+01 -5.880228e+00 8.000000e+00
    endloop
  endfacet
  facet normal 3.214401e-01 -9.469299e-01 0.000000e+00
    outer loop
      vertex 1.762347e+01 -5.522962e+00 0.000000e+00
      vertex 1.935757e+01 -4.934313e+00 0.000000e+00
      vertex 1.935757e+01 -4.934313e+00 8.000000e+00
    endloop
  endfacet
  facet normal 3.214401e-01 -9.469299e-01 0.000000e+00
    outer loop
      vertex 1.762347e+01 -5.522962e+00 0.000000e+00
      vertex 1.935757e+01 -4.934313e+00 8.000000e+00
      vertex 1.762347e+01 -5.522962e+00 8.000000e+00
    endloop
  endfacet
  facet normal 4.422888e-01 -8.968727e-01 0.000000e+00
    outer loop
      vertex 1.935757e+01 -4.934313e+00 0.000000e+00
      vertex 2.100000e+01 -4.124356e+00 0.000000e+00
      vertex 2.100000e+01 -4.124356e+00 8.000000e+00
    endloop
  endfacet
  facet normal 4.422888e-01 -8.968727e-01 0.000000e+00
    outer loop
      vertex 1.935757e+01 -4.934313e+00 0.000000e+00
      vertex 2.100000e+01 -4.124356e+00 8.000000e+00
      vertex 1.935757e+01 -4.934313e+00 8.000000e+00
    endloop
  endfacet
  facet normal 5.555703e-01 -8.314696e-01 0.000000e+00
    outer loop
      vertex 2.100000e+01 -4.124356e+00 0.000000e+00
      vertex 2.252266e+01 -3.106947e+00 0.000000e+00
      vertex 2.252266e+01 -3.106947e+00 8.000000e+00
    endloop
  endfacet
  facet normal 5.555703e-01 -8.314696e-01 0.000000e+00
    outer loop
      vertex 2.100000e+01 -4.124356e+00 0.000000e+00
      vertex 2.252266e+01 -3.106947e+00 8.000000e+00
      vertex 2.100000e+01 -4.124356e+00 8.000000e+00
    endloop
  endfacet
  facet normal 6.593472e-01 -7.518386e-01 0.000000e+00
    outer loop
      vertex 2.252266e+01 -3.106947e+00 0.000000e+00
      vertex 2.389949e+01 -1.899495e+00 0.000000e+00
      vertex 2.389949e+01 -1.899495e+00 8.000000e+00
    endloop
  endfacet
  facet normal 6.593472e-01 -7.518386e-01 0.000000e+00
    outer loop
      vertex 2.252266e+01 -3.106947e+00 0.000000e+00
      vertex 2.389949e+01 -1.899495e+00 8.000000e+00
      vertex 2.252266e+01 -3.106947e+00 8.000000e+00
    endloop
  endfacet
  facet normal 7.518376e-01 -6.593483e-01 0.000000e+00
    outer loop
      vertex 2.389949e+01 -1.899495e+00 0.000000e+00
      vertex 2.510695e+01 -5.226600e-01 0.000000e+00
      vertex 2.510695e+01 -5.226600e-01 8.000000e+00
    endloop
  endfacet
  facet normal 7.518376e-01 -6.593483e-01 0.000000e+00
    outer loop
      vertex 2.389949e+01 -1.899495e+00 0.000000e+00
      vertex 2.510695e+01 -5.226600e-01 8.000000e+00
      vertex 2.389949e+01 -1.899495e+00 8.000000e+00
    endloop
  endfacet
  facet normal 8.314693e-01 -5.555707e-01 0.000000e+00
    outer loop
      vertex 2.510695e+01 -5.226600e-01 0.000000e+00
      vertex 2.612436e+01 1.000000e+00 0.000000e+00
      vertex 2.612436e+01 1.000000e+00 8.000000e+00
    endloop
  endfacet
  facet normal 8.314693e-01 -5.555707e-01 0.000000e+00
    outer loop
      vertex 2.510695e+01 -5.226600e-01 0.000000e+00
      vertex 2.612436e+01 1.000000e+00 8.000000e+00
      vertex 2.510695e+01 -5.226600e-01 8.000000e+00
    endloop
  endfacet
  facet normal 8.968744e-01 -4.422853e-01 0.000000e+00
    outer loop
      vertex 2.612436e+01 1.000000e+00 0.000000e+00
      vertex 2.693431e+01 2.642432e+00 0.000000e+00
      vertex 2.693431e+01 2.642432e+00 8.000000e+00
    endloop
  endfacet
  facet normal 8.968744e-01 -4.422853e-01 0.000000e+00
    outer loop
      vertex 2.612436e+01 1.000000e+00 0.000000e+00
      vertex 2.693431e+01 2.642432e+00 8.000000e+00
      vertex 2.612436e+01 1.000000e+00 8.000000e+00
    endloop
  endfacet
  facet normal 9.469298e-01 -3.214405e-01 0.000000e+00
    outer loop
      vertex 2.693431e+01 2.642432e+00 0.000000e+00
      vertex 2.752296e+01 4.376533e+00 0.000000e+00
      vertex 2.752296e+01 4.376533e+00 8.000000e+00
    endloop
  endfacet
  facet normal 9.469298e-01 -3.214405e-01 0.000000e+00
    outer loop
      vertex 2.693431e+01 2.642432e+00 0.000000e+00
      vertex 2.752296e+01 4.376533e+00 8.000000e+00
      vertex 2.693431e+01 2.642432e+00 8.000000e+00
    endloop
  endfacet
  facet normal 9.807849e-01 -1.950922e-01 0.000000e+00
    outer loop
      vertex 2.752296e+01 4.376533e+00 0.000000e+00
      vertex 2.788023e+01 6.172633e+00 0.000000e+00
      vertex 2.788023e+01 6.172633e+00 8.000000e+00
    endloop
  endfacet
  facet normal 9.807849e-01 -1.950922e-01 0.000000e+00
    outer loop
      vertex 2.752296e+01 4.376533e+00 0.000000e+00
      vertex 2.788023e+01 6.172633e+00 8.000000e+00
      vertex 2.752296e+01 4.376533e+00 8.000000e+00
    endloop
  endfacet
  facet normal 9.978590e-01 -6.540206e-02 0.000000e+00
    outer loop
      vertex 2.788023e+01 6.172633e+00 0.000000e+00
      vertex 2.800000e+01 8.000000e+00 0.000000e+00
      vertex 2.800000e+01 8.000000e+00 8.000000e+00
    endloop
  endfacet
  facet normal 9.978590e-01 -6.540206e-02 0.000000e+00
    outer loop
      vertex 2.788023e+01 6.172633e+00 0.000000e+00
      vertex 2.800000e+01 8.000000e+00 8.000000e+00
      vertex 2.788023e+01 6.172633e+00 8.000000e+00
    endloop
  endfacet
  facet normal 1.000000e+00 0.000000e+00 0.000000e+00
    outer loop
      vertex 2.800000e+01 8.000000e+00 0.000000e+00
      vertex 2.800000e+01 2.000000e+01 0.000000e+00
      vertex 2.800000e+01 2.000000e+01 8.000000e+00
    endloop
  endfacet
  facet normal 1.000000e+00 0.000000e+00 0.000000e+00
    outer loop
      vertex 2.800000e+01 8.000000e+00 0.000000e+00
      vertex 2.800000e+01 2.000000e+01 8.000000e+00
      vertex 2.800000e+01 8.000000e+00 8.000000e+00
    endloop
  endfacet
  facet normal 0.000000e+00 1.000000e+00 0.000000e+00
    outer loop
      vertex 2.800000e+01 2.000000e+01 0.000000e+00
      vertex 2.200000e+01 2.000000e+01 0.000000e+00
      vertex 2.200000e+01 2.000000e+01 8.000000e+00
    endloop
  endfacet
  facet normal 0.000000e+00 1.000000e+00 -0.000000e+00
    outer loop
      vertex 2.800000e+01 2.000000e+01 0.000000e+00
      vertex 2.200000e+01 2.000000e+01 8.000000e+00
      vertex 2.800000e+01 2.000000e+01 8.000000e+00
    endloop
  endfacet
  facet normal -1.000000e+00 0.000000e+00 0.000000e+00
    outer loop
      vertex 2.200000e+01 2.000000e+01 0.000000e+00
      vertex 2.200000e+01 8.000000e+00 0.000000e+00
      vertex 2.200000e+01 8.000000e+00 8.000000e+00
    endloop
  endfacet
  facet normal -1.000000e+00 0.000000e+00 0.000000e+00
    outer loop
      vertex 2.200000e+01 2.000000e+01 0.000000e+00
      vertex 2.200000e+01 8.000000e+00 8.000000e+00
      vertex 2.200000e+01 2.000000e+01 8.000000e+00
    endloop
  endfacet
  facet normal -9.978590e-01 6.540205e-02 0.000000e+00
    outer loop
      vertex 2.200000e+01 8.000000e+00 0.000000e+00
      vertex 2.193156e+01 6.955790e+00 0.000000e+00
      vertex 2.193156e+01 6.955790e+00 8.000000e+00
    endloop
  endfacet
  facet normal -9.978590e-01 6.540205e-02 0.000000e+00
    outer loop
      vertex 2.200000e+01 8.000000e+00 0.000000e+00
      vertex 2.193156e+01 6.955790e+00 8.000000e+00
      vertex 2.200000e+01 8.000000e+00 8.000000e+00
    endloop
  endfacet
  facet normal -9.807857e-01 1.950884e-01 0.000000e+00
    outer loop
      vertex 2.193156e+01 6.955790e+00 0.000000e+00
      vertex 2.172741e+01 5.929448e+00 0.000000e+00
      vertex 2.172741e+01 5.929448e+00 8.000000e+00
    endloop
  endfacet
  facet normal -9.807857e-01 1.950884e-01 0.000000e+00
    outer loop
      vertex 2.193156e+01 6.955790e+00 0.000000e+00
      vertex 2.172741e+01 5.929448e+00 8.000000e+00
      vertex 2.193156e+01 6.955790e+00 8.000000e+00
    endloop
  endfacet
  facet normal -9.469302e-01 3.214392e-01 0.000000e+00
    outer loop
      vertex 2.172741e+01 5.929448e+00 0.000000e+00
      vertex 2.139104e+01 4.938533e+00 0.000000e+00
      vertex 2.139104e+01 4.938533e+00 8.000000e+00
    endloop
  endfacet
  facet normal -9.469302e-01 3.214392e-01 0.000000e+00
    outer loop
      vertex 2.172741e+01 5.929448e+00 0.000000e+00
      vertex 2.139104e+01 4.938533e+00 8.000000e+00
      vertex 2.172741e+01 5.929448e+00 8.000000e+00
    endloop
  endfacet
  facet normal -8.968702e-01 4.422939e-01 0.000000e+00
    outer loop
      vertex 2.139104e+01 4.938533e+00 0.000000e+00
      vertex 2.092820e+01 4.000000e+00 0.000000e+00
      vertex 2.092820e+01 4.000000e+00 8.000000e+00
    endloop
  endfacet
  facet normal -8.968702e-01 4.422939e-01 0.000000e+00
    outer loop
      vertex 2.139104e+01 4.938533e+00 0.000000e+00
      vertex 2.092820e+01 4.000000e+00 8.000000e+00
      vertex 2.139104e+01 4.938533e+00 8.000000e+00
    endloop
  endfacet
  facet normal -8.314724e-01 5.555661e-01 0.000000e+00
    outer loop
      vertex 2.092820e+01 4.000000e+00 0.000000e+00
      vertex 2.034683e+01 3.129909e+00 0.000000e+00
      vertex 2.034683e+01 3.129909e+00 8.000000e+00
    endloop
  endfacet
  facet normal -8.314724e-01 5.555661e-01 0.000000e+00
    outer loop
      vertex 2.092820e+01 4.000000e+00 0.000000e+00
      vertex 2.034683e+01 3.129909e+00 8.000000e+00
      vertex 2.092820e+01 4.000000e+00 8.000000e+00
    endloop
  endfacet
  facet normal -7.518363e-01 6.593498e-01 0.000000e+00
    outer loop
      vertex 2.034683e+01 3.129909e+00 0.000000e+00
      vertex 1.965685e+01 2.343146e+00 0.000000e+00
      vertex 1.965685e+01 2.343146e+00 8.000000e+00
    endloop
  endfacet
  facet normal -7.518363e-01 6.593498e-01 0.000000e+00
    outer loop
      vertex 2.034683e+01 3.129909e+00 0.000000e+00
      vertex 1.965685e+01 2.343146e+00 8.000000e+00
      vertex 2.034683e+01 3.129909e+00 8.000000e+00
    endloop
  endfacet
  facet normal -6.593474e-01 7.518384e-01 0.000000e+00
    outer loop
      vertex 1.965685e+01 2.343146e+00 0.000000e+00
      vertex 1.887009e+01 1.653173e+00 0.000000e+00
      vertex 1.887009e+01 1.653173e+00 8.000000e+00
    endloop
  endfacet
  facet normal -6.593474e-01 7.518384e-01 0.000000e+00
    outer loop
      vertex 1.965685e+01 2.343146e+00 0.000000e+00
      vertex 1.887009e+01 1.653173e+00 8.000000e+00
      vertex 1.965685e+01 2.343146e+00 8.000000e+00
    endloop
  endfacet
  facet normal -5.555705e-01 8.314694e-01 0.000000e+00
    outer loop
      vertex 1.887009e+01 1.653173e+00 0.000000e+00
      vertex 1.800000e+01 1.071797e+00 0.000000e+00
      vertex 1.800000e+01 1.071797e+00 8.000000e+00
    endloop
  endfacet
  facet normal -5.555705e-01 8.314694e-01 0.000000e+00
    outer loop
      vertex 1.887009e+01 1.653173e+00 0.000000e+00
      vertex 1.800000e+01 1.071797e+00 8.000000e+00
      vertex 1.887009e+01 1.653173e+00 8.000000e+00
    endloop
  endfacet
  facet normal -4.422899e-01 8.968722e-01 0.000000e+00
    outer loop
      vertex 1.800000e+01 1.071797e+00 0.000000e+00
      vertex 1.706147e+01 6.089637e-01 0.000000e+00
      vertex 1.706147e+01 6.089637e-01 8.000000e+00
    endloop
  endfacet
  facet normal -4.422899e-01 8.968722e-01 0.000000e+00
    outer loop
      vertex 1.800000e+01 1.071797e+00 0.000000e+00
      vertex 1.706147e+01 6.089637e-01 8.000000e+00
      vertex 1.800000e+01 1.071797e+00 8.000000e+00
    endloop
  endfacet
  facet normal -3.214380e-01 9.469306e-01 0.000000e+00
    outer loop
      vertex 1.706147e+01 6.089637e-01 0.000000e+00
      vertex 1.607055e+01 2.725934e-01 0.000000e+00
      vertex 1.607055e+01 2.725934e-01 8.000000e+00
    endloop
  endfacet
  facet normal -3.214380e-01 9.469306e-01 0.000000e+00
    outer loop
      vertex 1.706147e+01 6.089637e-01 0.000000e+00
      vertex 1.607055e+01 2.725934e-01 8.000000e+00
      vertex 1.706147e+01 6.089637e-01 8.000000e+00
    endloop
  endfacet
  facet normal -1.950908e-01 9.807852e-01 0.000000e+00
    outer loop
      vertex 1.607055e+01 2.725934e-01 0.000000e+00
      vertex 1.504421e+01 6.844111e-02 0.000000e+00
      vertex 1.504421e+01 6.844111e-02 8.000000e+00
    endloop
  endfacet
  facet normal -1.950908e-01 9.807852e-01 0.000000e+00
    outer loop
      vertex 1.607055e+01 2.725934e-01 0.000000e+00
      vertex 1.504421e+01 6.844111e-02 8.000000e+00
      vertex 1.607055e+01 2.725934e-01 8.000000e+00
    endloop
  endfacet
  facet normal -6.540310e-02 9.978589e-01 0.000000e+00
    outer loop
      vertex 1.504421e+01 6.844111e-02 0.000000e+00
      vertex 1.400000e+01 0.000000e+00 0.000000e+00
      vertex 1.400000e+01 0.000000e+00 8.000000e+00
    endloop
  endfacet
  facet normal -6.540310e-02 9.978589e-01 0.000000e+00
    outer loop
      vertex 1.504421e+01 6.844111e-02 0.000000e+00
      vertex 1.400000e+01 0.000000e+00 8.000000e+00
      vertex 1.504421e+01 6.844111e-02 8.000000e+00
    endloop
  endfacet
  facet normal 6.540310e-02 9.978589e-01 0.000000e+00
    outer loop
      vertex 1.400000e+01 0.000000e+00 0.000000e+00
      vertex 1.295579e+01 6.844111e-02 0.000000e+00
      vertex 1.295579e+01 6.844111e-02 8.000000e+00
    endloop
  endfacet
  facet normal 6.540310e-02 9.978589e-01 -0.000000e+00
    outer loop
      vertex 1.400000e+01 0.000000e+00 0.000000e+00
      vertex 1.295579e+01 6.844111e-02 8.000000e+00
      vertex 1.400000e+01 0.000000e+00 8.000000e+00
    endloop
  endfacet
  facet normal 1.950908e-01 9.807852e-01 0.000000e+00
    outer loop
      vertex 1.295579e+01 6.844111e-02 0.000000e+00
      vertex 1.192945e+01 2.725934e-01 0.000000e+00
      vertex 1.192945e+01 2.725934e-01 8.000000e+00
    endloop
  endfacet
  facet normal 1.950908e-01 9.807852e-01 -0.000000e+00
    outer loop
      vertex 1.295579e+01 6.844111e-02 0.000000e+00
      vertex 1.192945e+01 2.725934e-01 8.000000e+00
      vertex 1.295579e+01 6.844111e-02 8.000000e+00
    endloop
  endfacet
  facet normal 3.214380e-01 9.469306e-01 0.000000e+00
    outer loop
      vertex 1.192945e+01 2.725934e-01 0.000000e+00
      vertex 1.093853e+01 6.089637e-01 0.000000e+00
      vertex 1.093853e+01 6.089637e-01 8.000000e+00
    endloop
  endfacet
  facet normal 3.214380e-01 9.469306e-01 -0.000000e+00
    outer loop
      vertex 1.192945e+01 2.725934e-01 0.000000e+00
      vertex 1.093853e+01 6.089637e-01 8.000000e+00
      vertex 1.192945e+01 2.725934e-01 8.000000e+00
    endloop
  endfacet
  facet normal 4.422899e-01 8.968722e-01 0.000000e+00
    outer loop
      vertex 1.093853e+01 6.089637e-01 0.000000e+00
      vertex 1.000000e+01 1.071797e+00 0.000000e+00
      vertex 1.000000e+01 1.071797e+00 8.000000e+00
    endloop
  endfacet
  facet normal 4.422899e-01 8.968722e-01 -0.000000e+00
    outer loop
      vertex 1.093853e+01 6.089637e-01 0.000000e+00
      vertex 1.000000e+01 1.071797e+00 8.000000e+00
      vertex 1.093853e+01 6.089637e-01 8.000000e+00
    endloop
  endfacet
  facet normal 5.555701e-01 8.314697e-01 0.000000e+00
    outer loop
      vertex 1.000000e+01 1.071797e+00 0.000000e+00
      vertex 9.129909e+00 1.653173e+00 0.000000e+00
      vertex 9.129909e+00 1.653173e+00 8.000000e+00
    endloop
  endfacet
  facet normal 5.555701e-01 8.314697e-01 -0.000000e+00
    outer loop
      vertex 1.000000e+01 1.071797e+00 0.000000e+00
      vertex 9.129909e+00 1.653173e+00 8.000000e+00
      vertex 1.000000e+01 1.071797e+00 8.000000e+00
    endloop
  endfacet
  facet normal 6.593460e-01 7.518396e-01 0.000000e+00
    outer loop
      vertex 9.129909e+00 1.653173e+00 0.000000e+00
      vertex 8.343146e+00 2.343146e+00 0.000000e+00
      vertex 8.343146e+00 2.343146e+00 8.000000e+00
    endloop
  endfacet
  facet normal 6.593460e-01 7.518396e-01 -0.000000e+00
    outer loop
      vertex 9.129909e+00 1.653173e+00 0.000000e+00
      vertex 8.343146e+00 2.343146e+00 8.000000e+00
      vertex 9.129909e+00 1.653173e+00 8.000000e+00
    endloop
  endfacet
  facet normal 7.518396e-01 6.593460e-01 0.000000e+00
    outer loop
      vertex 8.343146e+00 2.343146e+00 0.000000e+00
      vertex 7.653173e+00 3.129909e+00 0.000000e+00
      vertex 7.653173e+00 3.129909e+00 8.000000e+00
    endloop
  endfacet
  facet normal 7.518396e-01 6.593460e-01 -0.000000e+00
    outer loop
      vertex 8.343146e+00 2.343146e+00 0.000000e+00
      vertex 7.653173e+00 3.129909e+00 8.000000e+00
      vertex 8.343146e+00 2.343146e+00 8.000000e+00
    endloop
  endfacet
  facet normal 8.314697e-01 5.555701e-01 0.000000e+00
    outer loop
      vertex 7.653173e+00 3.129909e+00 0.000000e+00
      vertex 7.071797e+00 4.000000e+00 0.000000e+00
      vertex 7.071797e+00 4.000000e+00 8.000000e+00
    endloop
  endfacet
  facet normal 8.314697e-01 5.555701e-01 -0.000000e+00
    outer loop
      vertex 7.653173e+00 3.129909e+00 0.000000e+00
      vertex 7.071797e+00 4.000000e+00 8.000000e+00
      vertex 7.653173e+00 3.129909e+00 8.000000e+00
    endloop
  endfacet
  facet normal 8.968728e-01 4.422885e-01 0.000000e+00
    outer loop
      vertex 7.071797e+00 4.000000e+00 0.000000e+00
      vertex 6.608964e+00 4.938533e+00 0.000000e+00
      vertex 6.608964e+00 4.938533e+00 8.000000e+00
    endloop
  endfacet
  facet normal 8.968728e-01 4.422885e-01 -0.000000e+00
    outer loop
      vertex 7.071797e+00 4.000000e+00 0.000000e+00
      vertex 6.608964e+00 4.938533e+00 8.000000e+00
      vertex 7.071797e+00 4.000000e+00 8.000000e+00
    endloop
  endfacet
  facet normal 9.469299e-01 3.214401e-01 0.000000e+00
    outer loop
      vertex 6.608964e+00 4.938533e+00 0.000000e+00
      vertex 6.272593e+00 5.929448e+00 0.000000e+00
      vertex 6.272593e+00 5.929448e+00 8.000000e+00
    endloop
  endfacet
  facet normal 9.469299e-01 3.214401e-01 -0.000000e+00
    outer loop
      vertex 6.608964e+00 4.938533e+00 0.000000e+00
      vertex 6.272593e+00 5.929448e+00 8.000000e+00
      vertex 6.608964e+00 4.938533e+00 8.000000e+00
    endloop
  endfacet
  facet normal 9.807853e-01 1.950902e-01 0.000000e+00
    outer loop
      vertex 6.272593e+00 5.929448e+00 0.000000e+00
      vertex 6.068441e+00 6.955790e+00 0.000000e+00
      vertex 6.068441e+00 6.955790e+00 8.000000e+00
    endloop
  endfacet
  facet normal 9.807853e-01 1.950902e-01 -0.000000e+00
    outer loop
      vertex 6.272593e+00 5.929448e+00 0.000000e+00
      vertex 6.068441e+00 6.955790e+00 8.000000e+00
      vertex 6.272593e+00 5.929448e+00 8.000000e+00
    endloop
  endfacet
  facet normal 9.978589e-01 6.540300e-02 0.000000e+00
    outer loop
      vertex 6.068441e+00 6.955790e+00 0.000000e+00
      vertex 6.000000e+00 8.000000e+00 0.000000e+00
      vertex 6.000000e+00 8.000000e+00 8.000000e+00
    endloop
  endfacet
  facet normal 9.978589e-01 6.540300e-02 -0.000000e+00
    outer loop
      vertex 6.068441e+00 6.955790e+00 0.000000e+00
      vertex 6.000000e+00 8.000000e+00 8.000000e+00
      vertex 6.068441e+00 6.955790e+00 8.000000e+00
    endloop
  endfacet
  facet normal 1.000000e+00 0.000000e+00 0.000000e+00
    outer loop
      vertex 6.000000e+00 8.000000e+00 0.000000e+00
      vertex 6.000000e+00 4.000000e+01 0.000000e+00
      vertex 6.000000e+00 4.000000e+01 8.000000e+00
    endloop
  endfacet
  facet normal 1.000000e+00 0.000000e+00 0.000000e+00
    outer loop
      vertex 6.000000e+00 8.000000e+00 0.000000e+00
      vertex 6.000000e+00 4.000000e+01 8.000000e+00
      vertex 6.000000e+00 8.000000e+00 8.000000e+00
    endloop
  endfacet
  facet normal 0.000000e+00 1.000000e+00 0.000000e+00
    outer loop
      vertex 6.000000e+00 4.000000e+01 0.000000e+00
      vertex 0.000000e+00 4.000000e+01 0.000000e+00
      vertex 0.000000e+00 4.000000e+01 8.000000e+00
    endloop
  endfacet
  facet normal 0.000000e+00 1.000000e+00 -0.000000e+00
    outer loop
      vertex 6.000000e+00 4.000000e+01 0.000000e+00
      vertex 0.000000e+00 4.000000e+01 8.000000e+00
      vertex 6.000000e+00 4.000000e+01 8.000000e+00
    endloop
  endfacet
endsolid hook
