solid topopt
  facet normal 0.57735026918962584 0.57735026918962584 0.57735026918962584
    outer loop
      vertex 1 1 0
      vertex 0 1 1
      vertex 1 0 1
    endloop
  endfacet
  facet normal -0 0.70710678118654746 0.70710678118654746
    outer loop
      vertex 1 1 0
      vertex 3 0 1
      vertex 3 1 0
    endloop
  endfacet
  facet normal -0 0.70710678118654746 0.70710678118654746
    outer loop
      vertex 1 0 1
      vertex 3 0 1
      vertex 1 1 0
    endloop
  endfacet
  facet normal -0 0.70710678118654746 0.70710678118654746
    outer loop
      vertex 3 1 0
      vertex 5 0 1
      vertex 5 1 0
    endloop
  endfacet
  facet normal -0 0.70710678118654746 0.70710678118654746
    outer loop
      vertex 3 0 1
      vertex 5 0 1
      vertex 3 1 0
    endloop
  endfacet
  facet normal -0 0.70710678118654746 0.70710678118654746
    outer loop
      vertex 5 1 0
      vertex 7 0 1
      vertex 7 1 0
    endloop
  endfacet
  facet normal -0 0.70710678118654746 0.70710678118654746
    outer loop
      vertex 5 0 1
      vertex 7 0 1
      vertex 5 1 0
    endloop
  endfacet
  facet normal -0 0.70710678118654746 0.70710678118654746
    outer loop
      vertex 7 1 0
      vertex 9 0 1
      vertex 9 1 0
    endloop
  endfacet
  facet normal -0 0.70710678118654746 0.70710678118654746
    outer loop
      vertex 7 0 1
      vertex 9 0 1
      vertex 7 1 0
    endloop
  endfacet
  facet normal -0 0.70710678118654746 0.70710678118654746
    outer loop
      vertex 9 1 0
      vertex 11 0 1
      vertex 11 1 0
    endloop
  endfacet
  facet normal -0 0.70710678118654746 0.70710678118654746
    outer loop
      vertex 9 0 1
      vertex 11 0 1
      vertex 9 1 0
    endloop
  endfacet
  facet normal -0.57735026918962584 0.57735026918962584 0.57735026918962584
    outer loop
      vertex 11 0 1
      vertex 12 1 1
      vertex 11 1 0
    endloop
  endfacet
  facet normal 0.70710678118654746 0 0.70710678118654746
    outer loop
      vertex 1 3 0
      vertex 0 1 1
      vertex 1 1 0
    endloop
  endfacet
  facet normal 0.70710678118654746 0 0.70710678118654746
    outer loop
      vertex 0 3 1
      vertex 0 1 1
      vertex 1 3 0
    endloop
  endfacet
  facet normal 0 -0 1
    outer loop
      vertex 3 1 0
      vertex 3 3 0
      vertex 1 1 0
    endloop
  endfacet
  facet normal 0 0 1
    outer loop
      vertex 3 3 0
      vertex 1 3 0
      vertex 1 1 0
    endloop
  endfacet
  facet normal 0 -0 1
    outer loop
      vertex 5 1 0
      vertex 5 3 0
      vertex 3 1 0
    endloop
  endfacet
  facet normal 0 0 1
    outer loop
      vertex 5 3 0
      vertex 3 3 0
      vertex 3 1 0
    endloop
  endfacet
  facet normal 0 -0 1
    outer loop
      vertex 7 1 0
      vertex 7 3 0
      vertex 5 1 0
    endloop
  endfacet
  facet normal 0 0 1
    outer loop
      vertex 7 3 0
      vertex 5 3 0
      vertex 5 1 0
    endloop
  endfacet
  facet normal 0 -0 1
    outer loop
      vertex 9 1 0
      vertex 9 3 0
      vertex 7 1 0
    endloop
  endfacet
  facet normal 0 0 1
    outer loop
      vertex 9 3 0
      vertex 7 3 0
      vertex 7 1 0
    endloop
  endfacet
  facet normal 0 -0 1
    outer loop
      vertex 11 1 0
      vertex 11 3 0
      vertex 9 1 0
    endloop
  endfacet
  facet normal 0 0 1
    outer loop
      vertex 11 3 0
      vertex 9 3 0
      vertex 9 1 0
    endloop
  endfacet
  facet normal -0.70710678118654746 0 0.70710678118654746
    outer loop
      vertex 12 3 1
      vertex 11 1 0
      vertex 12 1 1
    endloop
  endfacet
  facet normal -0.70710678118654746 0 0.70710678118654746
    outer loop
      vertex 11 3 0
      vertex 11 1 0
      vertex 12 3 1
    endloop
  endfacet
  facet normal 0.70710678118654746 0 0.70710678118654746
    outer loop
      vertex 1 5 0
      vertex 0 3 1
      vertex 1 3 0
    endloop
  endfacet
  facet normal 0.70710678118654746 0 0.70710678118654746
    outer loop
      vertex 0 5 1
      vertex 0 3 1
      vertex 1 5 0
    endloop
  endfacet
  facet normal 0 -0 1
    outer loop
      vertex 3 3 0
      vertex 3 5 0
      vertex 1 3 0
    endloop
  endfacet
  facet normal 0 0 1
    outer loop
      vertex 3 5 0
      vertex 1 5 0
      vertex 1 3 0
    endloop
  endfacet
  facet normal 0 -0 1
    outer loop
      vertex 5 3 0
      vertex 5 5 0
      vertex 3 3 0
    endloop
  endfacet
  facet normal 0 0 1
    outer loop
      vertex 5 5 0
      vertex 3 5 0
      vertex 3 3 0
    endloop
  endfacet
  facet normal 0 -0 1
    outer loop
      vertex 7 3 0
      vertex 7 5 0
      vertex 5 3 0
    endloop
  endfacet
  facet normal 0 0 1
    outer loop
      vertex 7 5 0
      vertex 5 5 0
      vertex 5 3 0
    endloop
  endfacet
  facet normal 0 -0 1
    outer loop
      vertex 9 3 0
      vertex 9 5 0
      vertex 7 3 0
    endloop
  endfacet
  facet normal 0 0 1
    outer loop
      vertex 9 5 0
      vertex 7 5 0
      vertex 7 3 0
    endloop
  endfacet
  facet normal 0 -0 1
    outer loop
      vertex 11 3 0
      vertex 11 5 0
      vertex 9 3 0
    endloop
  endfacet
  facet normal 0 0 1
    outer loop
      vertex 11 5 0
      vertex 9 5 0
      vertex 9 3 0
    endloop
  endfacet
  facet normal -0.70710678118654746 0 0.70710678118654746
    outer loop
      vertex 12 5 1
      vertex 11 3 0
      vertex 12 3 1
    endloop
  endfacet
  facet normal -0.70710678118654746 0 0.70710678118654746
    outer loop
      vertex 11 5 0
      vertex 11 3 0
      vertex 12 5 1
    endloop
  endfacet
  facet normal 0.70710678118654746 0 0.70710678118654746
    outer loop
      vertex 1 7 0
      vertex 0 5 1
      vertex 1 5 0
    endloop
  endfacet
  facet normal 0.70710678118654746 0 0.70710678118654746
    outer loop
      vertex 0 7 1
      vertex 0 5 1
      vertex 1 7 0
    endloop
  endfacet
  facet normal 0 -0 1
    outer loop
      vertex 3 5 0
      vertex 3 7 0
      vertex 1 5 0
    endloop
  endfacet
  facet normal 0 0 1
    outer loop
      vertex 3 7 0
      vertex 1 7 0
      vertex 1 5 0
    endloop
  endfacet
  facet normal 0 -0 1
    outer loop
      vertex 5 5 0
      vertex 5 7 0
      vertex 3 5 0
    endloop
  endfacet
  facet normal 0 0 1
    outer loop
      vertex 5 7 0
      vertex 3 7 0
      vertex 3 5 0
    endloop
  endfacet
  facet normal 0 -0 1
    outer loop
      vertex 7 5 0
      vertex 7 7 0
      vertex 5 5 0
    endloop
  endfacet
  facet normal 0 0 1
    outer loop
      vertex 7 7 0
      vertex 5 7 0
      vertex 5 5 0
    endloop
  endfacet
  facet normal 0 -0 1
    outer loop
      vertex 9 5 0
      vertex 9 7 0
      vertex 7 5 0
    endloop
  endfacet
  facet normal 0 0 1
    outer loop
      vertex 9 7 0
      vertex 7 7 0
      vertex 7 5 0
    endloop
  endfacet
  facet normal 0 -0 1
    outer loop
      vertex 11 5 0
      vertex 11 7 0
      vertex 9 5 0
    endloop
  endfacet
  facet normal 0 0 1
    outer loop
      vertex 11 7 0
      vertex 9 7 0
      vertex 9 5 0
    endloop
  endfacet
  facet normal -0.70710678118654746 0 0.70710678118654746
    outer loop
      vertex 12 7 1
      vertex 11 5 0
      vertex 12 5 1
    endloop
  endfacet
  facet normal -0.70710678118654746 0 0.70710678118654746
    outer loop
      vertex 11 7 0
      vertex 11 5 0
      vertex 12 7 1
    endloop
  endfacet
  facet normal 0.57735026918962584 -0.57735026918962584 0.57735026918962584
    outer loop
      vertex 1 7 0
      vertex 1 8 1
      vertex 0 7 1
    endloop
  endfacet
  facet normal 0 -0.70710678118654746 0.70710678118654746
    outer loop
      vertex 3 7 0
      vertex 1 8 1
      vertex 1 7 0
    endloop
  endfacet
  facet normal 0 -0.70710678118654746 0.70710678118654746
    outer loop
      vertex 3 8 1
      vertex 1 8 1
      vertex 3 7 0
    endloop
  endfacet
  facet normal 0 -0.70710678118654746 0.70710678118654746
    outer loop
      vertex 5 7 0
      vertex 3 8 1
      vertex 3 7 0
    endloop
  endfacet
  facet normal 0 -0.70710678118654746 0.70710678118654746
    outer loop
      vertex 5 8 1
      vertex 3 8 1
      vertex 5 7 0
    endloop
  endfacet
  facet normal 0 -0.70710678118654746 0.70710678118654746
    outer loop
      vertex 7 7 0
      vertex 5 8 1
      vertex 5 7 0
    endloop
  endfacet
  facet normal 0 -0.70710678118654746 0.70710678118654746
    outer loop
      vertex 7 8 1
      vertex 5 8 1
      vertex 7 7 0
    endloop
  endfacet
  facet normal 0 -0.70710678118654746 0.70710678118654746
    outer loop
      vertex 9 7 0
      vertex 7 8 1
      vertex 7 7 0
    endloop
  endfacet
  facet normal 0 -0.70710678118654746 0.70710678118654746
    outer loop
      vertex 9 8 1
      vertex 7 8 1
      vertex 9 7 0
    endloop
  endfacet
  facet normal 0 -0.70710678118654746 0.70710678118654746
    outer loop
      vertex 11 7 0
      vertex 9 8 1
      vertex 9 7 0
    endloop
  endfacet
  facet normal 0 -0.70710678118654746 0.70710678118654746
    outer loop
      vertex 11 8 1
      vertex 9 8 1
      vertex 11 7 0
    endloop
  endfacet
  facet normal -0.57735026918962584 -0.57735026918962584 0.57735026918962584
    outer loop
      vertex 12 7 1
      vertex 11 8 1
      vertex 11 7 0
    endloop
  endfacet
  facet normal 0.70710678118654746 0.70710678118654746 -0
    outer loop
      vertex 1 0 1
      vertex 0 1 3
      vertex 1 0 3
    endloop
  endfacet
  facet normal 0.70710678118654746 0.70710678118654746 -0
    outer loop
      vertex 0 1 1
      vertex 0 1 3
      vertex 1 0 1
    endloop
  endfacet
  facet normal 0 1 -0
    outer loop
      vertex 3 0 1
      vertex 1 0 1
      vertex 3 0 3
    endloop
  endfacet
  facet normal 0 1 0
    outer loop
      vertex 1 0 1
      vertex 1 0 3
      vertex 3 0 3
    endloop
  endfacet
  facet normal 0 1 -0
    outer loop
      vertex 5 0 1
      vertex 3 0 1
      vertex 5 0 3
    endloop
  endfacet
  facet normal 0 1 0
    outer loop
      vertex 3 0 1
      vertex 3 0 3
      vertex 5 0 3
    endloop
  endfacet
  facet normal 0 1 -0
    outer loop
      vertex 7 0 1
      vertex 5 0 1
      vertex 7 0 3
    endloop
  endfacet
  facet normal 0 1 0
    outer loop
      vertex 5 0 1
      vertex 5 0 3
      vertex 7 0 3
    endloop
  endfacet
  facet normal 0 1 -0
    outer loop
      vertex 9 0 1
      vertex 7 0 1
      vertex 9 0 3
    endloop
  endfacet
  facet normal 0 1 0
    outer loop
      vertex 7 0 1
      vertex 7 0 3
      vertex 9 0 3
    endloop
  endfacet
  facet normal 0 1 -0
    outer loop
      vertex 11 0 1
      vertex 9 0 1
      vertex 11 0 3
    endloop
  endfacet
  facet normal 0 1 0
    outer loop
      vertex 9 0 1
      vertex 9 0 3
      vertex 11 0 3
    endloop
  endfacet
  facet normal -0.70710678118654746 0.70710678118654746 0
    outer loop
      vertex 11 0 3
      vertex 12 1 1
      vertex 11 0 1
    endloop
  endfacet
  facet normal -0.70710678118654746 0.70710678118654746 0
    outer loop
      vertex 12 1 3
      vertex 12 1 1
      vertex 11 0 3
    endloop
  endfacet
  facet normal 1 0 0
    outer loop
      vertex 0 1 1
      vertex 0 3 1
      vertex 0 1 3
    endloop
  endfacet
  facet normal 1 -0 0
    outer loop
      vertex 0 1 3
      vertex 0 3 1
      vertex 0 3 3
    endloop
  endfacet
  facet normal -1 0 0
    outer loop
      vertex 12 1 1
      vertex 12 1 3
      vertex 12 3 1
    endloop
  endfacet
  facet normal -1 0 0
    outer loop
      vertex 12 1 3
      vertex 12 3 3
      vertex 12 3 1
    endloop
  endfacet
  facet normal 1 0 0
    outer loop
      vertex 0 3 1
      vertex 0 5 1
      vertex 0 3 3
    endloop
  endfacet
  facet normal 1 -0 0
    outer loop
      vertex 0 3 3
      vertex 0 5 1
      vertex 0 5 3
    endloop
  endfacet
  facet normal -1 0 0
    outer loop
      vertex 12 3 1
      vertex 12 3 3
      vertex 12 5 1
    endloop
  endfacet
  facet normal -1 0 0
    outer loop
      vertex 12 3 3
      vertex 12 5 3
      vertex 12 5 1
    endloop
  endfacet
  facet normal 1 0 0
    outer loop
      vertex 0 5 1
      vertex 0 7 1
      vertex 0 5 3
    endloop
  endfacet
  facet normal 1 -0 0
    outer loop
      vertex 0 5 3
      vertex 0 7 1
      vertex 0 7 3
    endloop
  endfacet
  facet normal -1 0 0
    outer loop
      vertex 12 5 1
      vertex 12 5 3
      vertex 12 7 1
    endloop
  endfacet
  facet normal -1 0 0
    outer loop
      vertex 12 5 3
      vertex 12 7 3
      vertex 12 7 1
    endloop
  endfacet
  facet normal 0.70710678118654746 -0.70710678118654746 0
    outer loop
      vertex 0 7 1
      vertex 1 8 3
      vertex 0 7 3
    endloop
  endfacet
  facet normal 0.70710678118654746 -0.70710678118654746 0
    outer loop
      vertex 1 8 1
      vertex 1 8 3
      vertex 0 7 1
    endloop
  endfacet
  facet normal 0 -1 0
    outer loop
      vertex 3 8 1
      vertex 3 8 3
      vertex 1 8 1
    endloop
  endfacet
  facet normal 0 -1 0
    outer loop
      vertex 1 8 1
      vertex 3 8 3
      vertex 1 8 3
    endloop
  endfacet
  facet normal 0 -1 0
    outer loop
      vertex 5 8 1
      vertex 5 8 3
      vertex 3 8 1
    endloop
  endfacet
  facet normal 0 -1 0
    outer loop
      vertex 3 8 1
      vertex 5 8 3
      vertex 3 8 3
    endloop
  endfacet
  facet normal 0 -1 0
    outer loop
      vertex 7 8 1
      vertex 7 8 3
      vertex 5 8 1
    endloop
  endfacet
  facet normal 0 -1 0
    outer loop
      vertex 5 8 1
      vertex 7 8 3
      vertex 5 8 3
    endloop
  endfacet
  facet normal 0 -1 0
    outer loop
      vertex 9 8 1
      vertex 9 8 3
      vertex 7 8 1
    endloop
  endfacet
  facet normal 0 -1 0
    outer loop
      vertex 7 8 1
      vertex 9 8 3
      vertex 7 8 3
    endloop
  endfacet
  facet normal 0 -1 0
    outer loop
      vertex 11 8 1
      vertex 11 8 3
      vertex 9 8 1
    endloop
  endfacet
  facet normal 0 -1 0
    outer loop
      vertex 9 8 1
      vertex 11 8 3
      vertex 9 8 3
    endloop
  endfacet
  facet normal -0.70710678118654746 -0.70710678118654746 -0
    outer loop
      vertex 12 7 3
      vertex 11 8 1
      vertex 12 7 1
    endloop
  endfacet
  facet normal -0.70710678118654746 -0.70710678118654746 -0
    outer loop
      vertex 11 8 3
      vertex 11 8 1
      vertex 12 7 3
    endloop
  endfacet
  facet normal 0.70710678118654746 0.70710678118654746 -0
    outer loop
      vertex 1 0 3
      vertex 0 1 5
      vertex 1 0 5
    endloop
  endfacet
  facet normal 0.70710678118654746 0.70710678118654746 -0
    outer loop
      vertex 0 1 3
      vertex 0 1 5
      vertex 1 0 3
    endloop
  endfacet
  facet normal 0 1 -0
    outer loop
      vertex 3 0 3
      vertex 1 0 3
      vertex 3 0 5
    endloop
  endfacet
  facet normal 0 1 0
    outer loop
      vertex 1 0 3
      vertex 1 0 5
      vertex 3 0 5
    endloop
  endfacet
  facet normal 0 1 -0
    outer loop
      vertex 5 0 3
      vertex 3 0 3
      vertex 5 0 5
    endloop
  endfacet
  facet normal 0 1 0
    outer loop
      vertex 3 0 3
      vertex 3 0 5
      vertex 5 0 5
    endloop
  endfacet
  facet normal 0 1 -0
    outer loop
      vertex 7 0 3
      vertex 5 0 3
      vertex 7 0 5
    endloop
  endfacet
  facet normal 0 1 0
    outer loop
      vertex 5 0 3
      vertex 5 0 5
      vertex 7 0 5
    endloop
  endfacet
  facet normal 0 1 -0
    outer loop
      vertex 9 0 3
      vertex 7 0 3
      vertex 9 0 5
    endloop
  endfacet
  facet normal 0 1 0
    outer loop
      vertex 7 0 3
      vertex 7 0 5
      vertex 9 0 5
    endloop
  endfacet
  facet normal 0 1 -0
    outer loop
      vertex 11 0 3
      vertex 9 0 3
      vertex 11 0 5
    endloop
  endfacet
  facet normal 0 1 0
    outer loop
      vertex 9 0 3
      vertex 9 0 5
      vertex 11 0 5
    endloop
  endfacet
  facet normal -0.70710678118654746 0.70710678118654746 0
    outer loop
      vertex 11 0 5
      vertex 12 1 3
      vertex 11 0 3
    endloop
  endfacet
  facet normal -0.70710678118654746 0.70710678118654746 0
    outer loop
      vertex 12 1 5
      vertex 12 1 3
      vertex 11 0 5
    endloop
  endfacet
  facet normal 1 0 0
    outer loop
      vertex 0 1 3
      vertex 0 3 3
      vertex 0 1 5
    endloop
  endfacet
  facet normal 1 -0 0
    outer loop
      vertex 0 1 5
      vertex 0 3 3
      vertex 0 3 5
    endloop
  endfacet
  facet normal -1 0 0
    outer loop
      vertex 12 1 3
      vertex 12 1 5
      vertex 12 3 3
    endloop
  endfacet
  facet normal -1 0 0
    outer loop
      vertex 12 1 5
      vertex 12 3 5
      vertex 12 3 3
    endloop
  endfacet
  facet normal 1 0 0
    outer loop
      vertex 0 3 3
      vertex 0 5 3
      vertex 0 3 5
    endloop
  endfacet
  facet normal 1 -0 0
    outer loop
      vertex 0 3 5
      vertex 0 5 3
      vertex 0 5 5
    endloop
  endfacet
  facet normal -1 0 0
    outer loop
      vertex 12 3 3
      vertex 12 3 5
      vertex 12 5 3
    endloop
  endfacet
  facet normal -1 0 0
    outer loop
      vertex 12 3 5
      vertex 12 5 5
      vertex 12 5 3
    endloop
  endfacet
  facet normal 1 0 0
    outer loop
      vertex 0 5 3
      vertex 0 7 3
      vertex 0 5 5
    endloop
  endfacet
  facet normal 1 -0 0
    outer loop
      vertex 0 5 5
      vertex 0 7 3
      vertex 0 7 5
    endloop
  endfacet
  facet normal -1 0 0
    outer loop
      vertex 12 5 3
      vertex 12 5 5
      vertex 12 7 3
    endloop
  endfacet
  facet normal -1 0 0
    outer loop
      vertex 12 5 5
      vertex 12 7 5
      vertex 12 7 3
    endloop
  endfacet
  facet normal 0.70710678118654746 -0.70710678118654746 0
    outer loop
      vertex 0 7 3
      vertex 1 8 5
      vertex 0 7 5
    endloop
  endfacet
  facet normal 0.70710678118654746 -0.70710678118654746 0
    outer loop
      vertex 1 8 3
      vertex 1 8 5
      vertex 0 7 3
    endloop
  endfacet
  facet normal 0 -1 0
    outer loop
      vertex 3 8 3
      vertex 3 8 5
      vertex 1 8 3
    endloop
  endfacet
  facet normal 0 -1 0
    outer loop
      vertex 1 8 3
      vertex 3 8 5
      vertex 1 8 5
    endloop
  endfacet
  facet normal 0 -1 0
    outer loop
      vertex 5 8 3
      vertex 5 8 5
      vertex 3 8 3
    endloop
  endfacet
  facet normal 0 -1 0
    outer loop
      vertex 3 8 3
      vertex 5 8 5
      vertex 3 8 5
    endloop
  endfacet
  facet normal 0 -1 0
    outer loop
      vertex 7 8 3
      vertex 7 8 5
      vertex 5 8 3
    endloop
  endfacet
  facet normal 0 -1 0
    outer loop
      vertex 5 8 3
      vertex 7 8 5
      vertex 5 8 5
    endloop
  endfacet
  facet normal 0 -1 0
    outer loop
      vertex 9 8 3
      vertex 9 8 5
      vertex 7 8 3
    endloop
  endfacet
  facet normal 0 -1 0
    outer loop
      vertex 7 8 3
      vertex 9 8 5
      vertex 7 8 5
    endloop
  endfacet
  facet normal 0 -1 0
    outer loop
      vertex 11 8 3
      vertex 11 8 5
      vertex 9 8 3
    endloop
  endfacet
  facet normal 0 -1 0
    outer loop
      vertex 9 8 3
      vertex 11 8 5
      vertex 9 8 5
    endloop
  endfacet
  facet normal -0.70710678118654746 -0.70710678118654746 -0
    outer loop
      vertex 12 7 5
      vertex 11 8 3
      vertex 12 7 3
    endloop
  endfacet
  facet normal -0.70710678118654746 -0.70710678118654746 -0
    outer loop
      vertex 11 8 5
      vertex 11 8 3
      vertex 12 7 5
    endloop
  endfacet
  facet normal 0.57735026918962584 0.57735026918962584 -0.57735026918962584
    outer loop
      vertex 1 0 5
      vertex 0 1 5
      vertex 1 1 6
    endloop
  endfacet
  facet normal 0 0.70710678118654746 -0.70710678118654746
    outer loop
      vertex 1 0 5
      vertex 3 1 6
      vertex 3 0 5
    endloop
  endfacet
  facet normal 0 0.70710678118654746 -0.70710678118654746
    outer loop
      vertex 1 1 6
      vertex 3 1 6
      vertex 1 0 5
    endloop
  endfacet
  facet normal 0 0.70710678118654746 -0.70710678118654746
    outer loop
      vertex 3 0 5
      vertex 5 1 6
      vertex 5 0 5
    endloop
  endfacet
  facet normal 0 0.70710678118654746 -0.70710678118654746
    outer loop
      vertex 3 1 6
      vertex 5 1 6
      vertex 3 0 5
    endloop
  endfacet
  facet normal 0 0.70710678118654746 -0.70710678118654746
    outer loop
      vertex 5 0 5
      vertex 7 1 6
      vertex 7 0 5
    endloop
  endfacet
  facet normal 0 0.70710678118654746 -0.70710678118654746
    outer loop
      vertex 5 1 6
      vertex 7 1 6
      vertex 5 0 5
    endloop
  endfacet
  facet normal 0 0.70710678118654746 -0.70710678118654746
    outer loop
      vertex 7 0 5
      vertex 9 1 6
      vertex 9 0 5
    endloop
  endfacet
  facet normal 0 0.70710678118654746 -0.70710678118654746
    outer loop
      vertex 7 1 6
      vertex 9 1 6
      vertex 7 0 5
    endloop
  endfacet
  facet normal 0 0.70710678118654746 -0.70710678118654746
    outer loop
      vertex 9 0 5
      vertex 11 1 6
      vertex 11 0 5
    endloop
  endfacet
  facet normal 0 0.70710678118654746 -0.70710678118654746
    outer loop
      vertex 9 1 6
      vertex 11 1 6
      vertex 9 0 5
    endloop
  endfacet
  facet normal -0.57735026918962584 0.57735026918962584 -0.57735026918962584
    outer loop
      vertex 11 0 5
      vertex 11 1 6
      vertex 12 1 5
    endloop
  endfacet
  facet normal 0.70710678118654746 0 -0.70710678118654746
    outer loop
      vertex 1 1 6
      vertex 0 3 5
      vertex 1 3 6
    endloop
  endfacet
  facet normal 0.70710678118654746 0 -0.70710678118654746
    outer loop
      vertex 0 1 5
      vertex 0 3 5
      vertex 1 1 6
    endloop
  endfacet
  facet normal 0 0 -1
    outer loop
      vertex 3 1 6
      vertex 1 1 6
      vertex 3 3 6
    endloop
  endfacet
  facet normal -0 0 -1
    outer loop
      vertex 3 3 6
      vertex 1 1 6
      vertex 1 3 6
    endloop
  endfacet
  facet normal 0 0 -1
    outer loop
      vertex 5 1 6
      vertex 3 1 6
      vertex 5 3 6
    endloop
  endfacet
  facet normal -0 0 -1
    outer loop
      vertex 5 3 6
      vertex 3 1 6
      vertex 3 3 6
    endloop
  endfacet
  facet normal 0 0 -1
    outer loop
      vertex 7 1 6
      vertex 5 1 6
      vertex 7 3 6
    endloop
  endfacet
  facet normal -0 0 -1
    outer loop
      vertex 7 3 6
      vertex 5 1 6
      vertex 5 3 6
    endloop
  endfacet
  facet normal 0 0 -1
    outer loop
      vertex 9 1 6
      vertex 7 1 6
      vertex 9 3 6
    endloop
  endfacet
  facet normal -0 0 -1
    outer loop
      vertex 9 3 6
      vertex 7 1 6
      vertex 7 3 6
    endloop
  endfacet
  facet normal 0 0 -1
    outer loop
      vertex 11 1 6
      vertex 9 1 6
      vertex 11 3 6
    endloop
  endfacet
  facet normal -0 0 -1
    outer loop
      vertex 11 3 6
      vertex 9 1 6
      vertex 9 3 6
    endloop
  endfacet
  facet normal -0.70710678118654746 0 -0.70710678118654746
    outer loop
      vertex 12 1 5
      vertex 11 3 6
      vertex 12 3 5
    endloop
  endfacet
  facet normal -0.70710678118654746 0 -0.70710678118654746
    outer loop
      vertex 11 1 6
      vertex 11 3 6
      vertex 12 1 5
    endloop
  endfacet
  facet normal 0.70710678118654746 0 -0.70710678118654746
    outer loop
      vertex 1 3 6
      vertex 0 5 5
      vertex 1 5 6
    endloop
  endfacet
  facet normal 0.70710678118654746 0 -0.70710678118654746
    outer loop
      vertex 0 3 5
      vertex 0 5 5
      vertex 1 3 6
    endloop
  endfacet
  facet normal 0 0 -1
    outer loop
      vertex 3 3 6
      vertex 1 3 6
      vertex 3 5 6
    endloop
  endfacet
  facet normal -0 0 -1
    outer loop
      vertex 3 5 6
      vertex 1 3 6
      vertex 1 5 6
    endloop
  endfacet
  facet normal 0 0 -1
    outer loop
      vertex 5 3 6
      vertex 3 3 6
      vertex 5 5 6
    endloop
  endfacet
  facet normal -0 0 -1
    outer loop
      vertex 5 5 6
      vertex 3 3 6
      vertex 3 5 6
    endloop
  endfacet
  facet normal 0 0 -1
    outer loop
      vertex 7 3 6
      vertex 5 3 6
      vertex 7 5 6
    endloop
  endfacet
  facet normal -0 0 -1
    outer loop
      vertex 7 5 6
      vertex 5 3 6
      vertex 5 5 6
    endloop
  endfacet
  facet normal 0 0 -1
    outer loop
      vertex 9 3 6
      vertex 7 3 6
      vertex 9 5 6
    endloop
  endfacet
  facet normal -0 0 -1
    outer loop
      vertex 9 5 6
      vertex 7 3 6
      vertex 7 5 6
    endloop
  endfacet
  facet normal 0 0 -1
    outer loop
      vertex 11 3 6
      vertex 9 3 6
      vertex 11 5 6
    endloop
  endfacet
  facet normal -0 0 -1
    outer loop
      vertex 11 5 6
      vertex 9 3 6
      vertex 9 5 6
    endloop
  endfacet
  facet normal -0.70710678118654746 0 -0.70710678118654746
    outer loop
      vertex 12 3 5
      vertex 11 5 6
      vertex 12 5 5
    endloop
  endfacet
  facet normal -0.70710678118654746 0 -0.70710678118654746
    outer loop
      vertex 11 3 6
      vertex 11 5 6
      vertex 12 3 5
    endloop
  endfacet
  facet normal 0.70710678118654746 0 -0.70710678118654746
    outer loop
      vertex 1 5 6
      vertex 0 7 5
      vertex 1 7 6
    endloop
  endfacet
  facet normal 0.70710678118654746 0 -0.70710678118654746
    outer loop
      vertex 0 5 5
      vertex 0 7 5
      vertex 1 5 6
    endloop
  endfacet
  facet normal 0 0 -1
    outer loop
      vertex 3 5 6
      vertex 1 5 6
      vertex 3 7 6
    endloop
  endfacet
  facet normal -0 0 -1
    outer loop
      vertex 3 7 6
      vertex 1 5 6
      vertex 1 7 6
    endloop
  endfacet
  facet normal 0 0 -1
    outer loop
      vertex 5 5 6
      vertex 3 5 6
      vertex 5 7 6
    endloop
  endfacet
  facet normal -0 0 -1
    outer loop
      vertex 5 7 6
      vertex 3 5 6
      vertex 3 7 6
    endloop
  endfacet
  facet normal 0 0 -1
    outer loop
      vertex 7 5 6
      vertex 5 5 6
      vertex 7 7 6
    endloop
  endfacet
  facet normal -0 0 -1
    outer loop
      vertex 7 7 6
      vertex 5 5 6
      vertex 5 7 6
    endloop
  endfacet
  facet normal 0 0 -1
    outer loop
      vertex 9 5 6
      vertex 7 5 6
      vertex 9 7 6
    endloop
  endfacet
  facet normal -0 0 -1
    outer loop
      vertex 9 7 6
      vertex 7 5 6
      vertex 7 7 6
    endloop
  endfacet
  facet normal 0 0 -1
    outer loop
      vertex 11 5 6
      vertex 9 5 6
      vertex 11 7 6
    endloop
  endfacet
  facet normal -0 0 -1
    outer loop
      vertex 11 7 6
      vertex 9 5 6
      vertex 9 7 6
    endloop
  endfacet
  facet normal -0.70710678118654746 0 -0.70710678118654746
    outer loop
      vertex 12 5 5
      vertex 11 7 6
      vertex 12 7 5
    endloop
  endfacet
  facet normal -0.70710678118654746 0 -0.70710678118654746
    outer loop
      vertex 11 5 6
      vertex 11 7 6
      vertex 12 5 5
    endloop
  endfacet
  facet normal 0.57735026918962584 -0.57735026918962584 -0.57735026918962584
    outer loop
      vertex 0 7 5
      vertex 1 8 5
      vertex 1 7 6
    endloop
  endfacet
  facet normal -0 -0.70710678118654746 -0.70710678118654746
    outer loop
      vertex 3 8 5
      vertex 1 7 6
      vertex 1 8 5
    endloop
  endfacet
  facet normal -0 -0.70710678118654746 -0.70710678118654746
    outer loop
      vertex 3 7 6
      vertex 1 7 6
      vertex 3 8 5
    endloop
  endfacet
  facet normal -0 -0.70710678118654746 -0.70710678118654746
    outer loop
      vertex 5 8 5
      vertex 3 7 6
      vertex 3 8 5
    endloop
  endfacet
  facet normal -0 -0.70710678118654746 -0.70710678118654746
    outer loop
      vertex 5 7 6
      vertex 3 7 6
      vertex 5 8 5
    endloop
  endfacet
  facet normal -0 -0.70710678118654746 -0.70710678118654746
    outer loop
      vertex 7 8 5
      vertex 5 7 6
      vertex 5 8 5
    endloop
  endfacet
  facet normal -0 -0.70710678118654746 -0.70710678118654746
    outer loop
      vertex 7 7 6
      vertex 5 7 6
      vertex 7 8 5
    endloop
  endfacet
  facet normal -0 -0.70710678118654746 -0.70710678118654746
    outer loop
      vertex 9 8 5
      vertex 7 7 6
      vertex 7 8 5
    endloop
  endfacet
  facet normal -0 -0.70710678118654746 -0.70710678118654746
    outer loop
      vertex 9 7 6
      vertex 7 7 6
      vertex 9 8 5
    endloop
  endfacet
  facet normal -0 -0.70710678118654746 -0.70710678118654746
    outer loop
      vertex 11 8 5
      vertex 9 7 6
      vertex 9 8 5
    endloop
  endfacet
  facet normal -0 -0.70710678118654746 -0.70710678118654746
    outer loop
      vertex 11 7 6
      vertex 9 7 6
      vertex 11 8 5
    endloop
  endfacet
  facet normal -0.57735026918962584 -0.57735026918962584 -0.57735026918962584
    outer loop
      vertex 12 7 5
      vertex 11 7 6
      vertex 11 8 5
    endloop
  endfacet
endsolid topopt
